<?xml version="1.0" standalone="no"?>
<!DOCTYPE svg PUBLIC "-//W3C//DTD SVG 1.1//EN" "http://www.w3.org/Graphics/SVG/1.1/DTD/svg11.dtd" >
<svg>
<metadata>
Created by FontForge 20120731 at Fri Dec 20 20:38:48 2013
 By root
Copyright (c) Mark Simonson, 2005. All rights reserved.
</metadata>
<defs>
<font id="ProximaNovaCond-Regular" horiz-adv-x="952" >
  <font-face 
    font-family="Proxima Nova Cn Rg"
    font-weight="400"
    font-stretch="normal"
    units-per-em="2048"
    panose-1="2 0 5 6 3 0 0 2 0 4"
    ascent="1618"
    descent="-430"
    x-height="989"
    cap-height="1366"
    bbox="-279 -555 1909 1821"
    underline-thickness="40"
    underline-position="-231"
    unicode-range="U+000D-FB04"
  />
<missing-glyph horiz-adv-x="1007" 
d="M862 -184h-719v1724h719v-1724zM797 -123v1602h-590v-1602h590z" />
    <glyph glyph-name="f_f_j" unicode="ffj" horiz-adv-x="1454" 
d="M838 0h-148v860h-131v129h131v121q0 129 66.5 202.5t175.5 73.5q74 0 127 -30l-37 -115q-28 21 -66 21q-57 0 -87.5 -40t-30.5 -112v-121h168v-129h-168v-860zM1245 1133q-40 0 -70 29.5t-30 70.5t30 70.5t70 29.5q41 0 71 -29.5t30 -70.5t-30 -70.5t-71 -29.5z
M1073 -401q-105 0 -168 69l53 109q43 -53 101 -53q115 0 115 155v1110h145v-1110q0 -280 -246 -280zM317 0h-147v860h-131v129h131v121q0 129 66 202.5t182 73.5q108 0 176 -65l-57 -104q-42 45 -97 45q-61 0 -92 -39.5t-31 -112.5v-121h168v-129h-168v-860z" />
    <glyph glyph-name="f_j" unicode="fj" horiz-adv-x="935" 
d="M317 0h-147v860h-131v129h131v121q0 129 66.5 202.5t175.5 73.5q74 0 127 -30l-37 -115q-28 21 -66 21q-57 0 -88 -40t-31 -112v-121h168v-129h-168v-860zM727 1133q-40 0 -70 29.5t-30 70.5t30 70.5t70 29.5q41 0 70.5 -29.5t29.5 -70.5t-29.5 -70.5t-70.5 -29.5z
M555 -401q-105 0 -168 69l53 109q43 -53 101 -53q114 0 114 155v1110h146v-1110q0 -280 -246 -280z" />
    <glyph glyph-name="f_f" unicode="ff" horiz-adv-x="1038" 
d="M317 0h-147v860h-131v129h131v121q0 129 66 202.5t182 73.5q108 0 176 -65l-57 -104q-42 45 -97 45q-61 0 -92 -39.5t-31 -112.5v-121h168v-129h-168v-860zM838 0h-148v860h-131v129h131v121q0 129 66 202.5t182 73.5q108 0 176 -65l-57 -104q-42 45 -96 45
q-61 0 -92 -39.5t-31 -112.5v-121h168v-129h-168v-860z" />
    <glyph glyph-name="fi" unicode="fi" horiz-adv-x="935" 
d="M317 0h-147v860h-131v129h131v121q0 129 66.5 202.5t175.5 73.5q74 0 127 -30l-37 -115q-28 21 -66 21q-57 0 -88 -40t-31 -112v-121h168v-129h-168v-860zM727 1133q-40 0 -70 29.5t-30 70.5t30 70.5t70 29.5q41 0 70.5 -29.5t29.5 -70.5t-29.5 -70.5t-70.5 -29.5zM801 0
h-146v989h146v-989z" />
    <glyph glyph-name="fl" unicode="fl" horiz-adv-x="935" 
d="M317 0h-147v860h-131v129h131v121q0 129 66.5 202.5t175.5 73.5q74 0 127 -30l-37 -115q-28 21 -66 21q-57 0 -88 -40t-31 -112v-121h168v-129h-168v-860zM801 0h-146v1366h146v-1366z" />
    <glyph glyph-name="f_f_i" unicode="ffi" horiz-adv-x="1454" 
d="M838 0h-148v860h-131v129h131v121q0 129 66.5 202.5t175.5 73.5q74 0 127 -30l-37 -115q-28 21 -66 21q-57 0 -87.5 -40t-30.5 -112v-121h168v-129h-168v-860zM1245 1133q-40 0 -70 29.5t-30 70.5t30 70.5t70 29.5q41 0 71 -29.5t30 -70.5t-30 -70.5t-71 -29.5zM1319 0
h-145v989h145v-989zM317 0h-147v860h-131v129h131v121q0 129 66 202.5t182 73.5q108 0 176 -65l-57 -104q-42 45 -97 45q-61 0 -92 -39.5t-31 -112.5v-121h168v-129h-168v-860z" />
    <glyph glyph-name="f_f_l" unicode="ffl" horiz-adv-x="1454" 
d="M838 0h-148v860h-131v129h131v121q0 129 66.5 202.5t175.5 73.5q74 0 127 -30l-37 -115q-28 21 -66 21q-57 0 -87.5 -40t-30.5 -112v-121h168v-129h-168v-860zM1319 0h-145v1366h145v-1366zM317 0h-147v860h-131v129h131v121q0 129 66 202.5t182 73.5q108 0 176 -65
l-57 -104q-42 45 -97 45q-61 0 -92 -39.5t-31 -112.5v-121h168v-129h-168v-860z" />
    <glyph glyph-name="f_b" unicode="fb" horiz-adv-x="1501" 
d="M317 0h-147v860h-131v129h131v121q0 129 66.5 202.5t175.5 73.5q74 0 127 -30l-37 -115q-28 21 -66 21q-57 0 -88 -40t-31 -112v-121h168v-129h-168v-860zM801 266q30 -67 93 -113.5t130 -46.5q116 0 177 109.5t61 278.5q0 171 -61 280t-177 109q-67 0 -129.5 -48.5
t-93.5 -115.5v-453zM801 0h-146v1366h146v-520q45 81 114 124.5t146 43.5q165 0 259.5 -143t94.5 -377q0 -236 -94.5 -377.5t-259.5 -141.5q-77 0 -147 45t-113 121v-141z" />
    <glyph glyph-name="f_h" unicode="fh" horiz-adv-x="1470" 
d="M317 0h-147v860h-131v129h131v121q0 129 66.5 202.5t175.5 73.5q74 0 127 -30l-37 -115q-28 21 -66 21q-57 0 -88 -40t-31 -112v-121h168v-129h-168v-860zM1337 0h-145v707q0 94 -41 135t-119 41q-68 0 -131.5 -46t-99.5 -112v-725h-146v1366h146v-518q46 69 125 117.5
t164 48.5q126 0 186.5 -64.5t60.5 -199.5v-750z" />
    <glyph glyph-name="f_k" unicode="fk" horiz-adv-x="1415" 
d="M317 0h-147v860h-131v129h131v121q0 129 66.5 202.5t175.5 73.5q74 0 127 -30l-37 -115q-28 21 -66 21q-57 0 -88 -40t-31 -112v-121h168v-129h-168v-860zM1386 0h-174l-272 446l-139 -178v-268h-146v1366h146v-913l411 536h174l-346 -444z" />
    <glyph glyph-name=".notdef" horiz-adv-x="1007" 
d="M862 -184h-719v1724h719v-1724zM797 -123v1602h-590v-1602h590z" />
    <glyph glyph-name=".null" horiz-adv-x="0" 
 />
    <glyph glyph-name=".null" horiz-adv-x="0" 
 />
    <glyph glyph-name="nonmarkingreturn" horiz-adv-x="682" 
 />
    <glyph glyph-name="CR" unicode="&#xd;" horiz-adv-x="0" 
 />
    <glyph glyph-name="space" unicode=" " horiz-adv-x="440" 
 />
    <glyph glyph-name="exclam" unicode="!" horiz-adv-x="466" 
d="M295 379h-121l-33 987h185zM233 -20q-44 0 -76 33t-32 77q0 43 32 76t76 33t77.5 -33t33.5 -76q0 -44 -33.5 -77t-77.5 -33z" />
    <glyph glyph-name="quotedbl" unicode="&#x22;" horiz-adv-x="696" 
d="M240 848h-76q-53 417 -53 448q0 37 27 63.5t65 26.5q37 0 63.5 -26.5t26.5 -63.5q0 -14 -13.5 -126t-26.5 -217zM530 848h-73q-54 417 -54 448q0 37 26.5 63.5t64.5 26.5t64 -26.5t26 -63.5q0 -14 -13.5 -126t-26.5 -217z" />
    <glyph glyph-name="numbersign" unicode="#" horiz-adv-x="1038" 
d="M539 0h-121l106 373h-186l-105 -373h-120l104 373h-178l29 104h182l115 412h-183l27 102h186l105 375h121l-105 -375h184l105 375h121l-107 -375h178l-24 -102h-185l-114 -412h184l-27 -104h-188zM551 477l119 412h-185l-116 -412h182z" />
    <glyph glyph-name="dollar" unicode="$" horiz-adv-x="958" 
d="M436 -205v182q-234 12 -373 170l91 125q49 -61 122.5 -101.5t159.5 -47.5v512q-63 30 -98.5 49.5t-86.5 56.5t-78.5 73.5t-48 92.5t-20.5 123q0 142 92 239.5t240 114.5v189h121v-189q185 -18 303 -139l-86 -123q-86 96 -217 115v-467q41 -21 69 -36t65.5 -39.5t63 -46.5
t52.5 -54.5t43 -66.5t26.5 -78.5t10.5 -94.5q0 -142 -85 -245t-245 -127v-187h-121zM721 344q0 77 -43 130.5t-121 98.5v-442q81 21 122.5 79t41.5 134zM270 1038q0 -68 43 -115.5t123 -91.5v406q-75 -15 -120.5 -68.5t-45.5 -130.5z" />
    <glyph glyph-name="percent" unicode="%" horiz-adv-x="1333" 
d="M350 713q-129 0 -209 95.5t-80 240.5q0 147 80 242t209 95t209 -95t80 -242q0 -145 -80 -240.5t-209 -95.5zM358 0h-96l717 1366h98zM983 -25q-129 0 -209 95t-80 239q0 147 80 243.5t209 96.5q128 0 208.5 -97t80.5 -243q0 -144 -80.5 -239t-208.5 -95zM350 813
q77 0 124.5 68t47.5 168q0 103 -47.5 170t-124.5 67q-78 0 -126 -67t-48 -170q0 -101 48 -168.5t126 -67.5zM983 76q78 0 126 66.5t48 166.5q0 103 -48 171.5t-126 68.5t-126 -68.5t-48 -171.5q0 -100 48 -166.5t126 -66.5z" />
    <glyph glyph-name="ampersand" unicode="&#x26;" horiz-adv-x="1064" 
d="M1030 0h-184q-26 31 -109 135q-140 -160 -319 -160q-150 0 -246 98t-96 271q0 75 19.5 138.5t57 113.5t76.5 86t93 74q-91 187 -91 305q0 144 79.5 234.5t203.5 90.5q110 0 183 -73t73 -193q0 -30 -3.5 -57t-13 -52.5t-17 -45t-25.5 -42.5t-27.5 -37t-35 -36t-35.5 -31.5
t-40.5 -31.5t-39 -28.5t-41.5 -29.5q58 -102 122 -190q54 -83 121 -174q67 135 109 301l125 -54q-67 -218 -150 -358q22 -28 211 -254zM436 98q118 0 223 138q-102 134 -151 208q-82 120 -127 201q-72 -60 -111 -129.5t-39 -163.5q0 -118 59.5 -186t145.5 -68zM377 1061
q0 -96 61 -225q98 66 148.5 128.5t50.5 151.5q0 75 -34.5 115.5t-86.5 40.5q-63 0 -101 -55t-38 -156z" />
    <glyph glyph-name="quotesingle" unicode="'" horiz-adv-x="403" 
d="M240 848h-76q-53 417 -53 448q0 37 27 63.5t65 26.5q37 0 63.5 -26.5t26.5 -63.5q0 -14 -13.5 -126t-26.5 -217z" />
    <glyph glyph-name="parenleft" unicode="(" horiz-adv-x="468" 
d="M430 -350l-94 -58q-242 413 -242 906q0 492 242 905l94 -55q-87 -213 -130.5 -410t-43.5 -440q0 -242 43.5 -439.5t130.5 -408.5z" />
    <glyph glyph-name="parenright" unicode=")" horiz-adv-x="468" 
d="M131 -408l-94 58q88 208 132 406.5t44 441.5q0 244 -44 441.5t-132 408.5l94 55q244 -411 244 -905q0 -495 -244 -906z" />
    <glyph glyph-name="asterisk" unicode="*" horiz-adv-x="657" 
d="M375 801h-90l10 235l-199 -129l-45 80l211 107l-211 106l45 78l199 -127l-10 235h90l-13 -235l199 127l45 -78l-209 -106l209 -107l-45 -80l-199 129z" />
    <glyph glyph-name="plus" unicode="+" horiz-adv-x="899" 
d="M840 639h-334v-377h-113v377h-334v104h334v363h113v-363h334v-104z" />
    <glyph glyph-name="comma" unicode="," horiz-adv-x="466" 
d="M354 45q0 -89 -46 -170t-118 -133l-73 59q50 34 87.5 88t43.5 103q-2 0 -12 -1t-15 -1q-41 0 -68.5 28.5t-27.5 71.5q0 45 30.5 77t75.5 32q52 0 87.5 -41.5t35.5 -112.5z" />
    <glyph glyph-name="hyphen" unicode="-" horiz-adv-x="546" 
d="M485 430h-424v131h424v-131z" />
    <glyph glyph-name="period" unicode="." horiz-adv-x="466" 
d="M233 -20q-44 0 -76 32t-32 78q0 43 32 76t76 33t77.5 -33t33.5 -76q0 -45 -33 -77.5t-78 -32.5z" />
    <glyph glyph-name="slash" unicode="/" horiz-adv-x="507" 
d="M115 -41h-115l393 1448h115z" />
    <glyph glyph-name="zero" unicode="0" horiz-adv-x="1048" 
d="M524 -25q-92 0 -166.5 42.5t-122.5 111.5t-80 162.5t-45.5 190.5t-13.5 200t13.5 200t45.5 190t80 161.5t122.5 110.5t166.5 42t166.5 -42t122.5 -110.5t80 -161.5t45.5 -190t13.5 -200t-13.5 -200t-45.5 -190.5t-80 -162.5t-122.5 -111.5t-166.5 -42.5zM524 121
q76 0 129.5 48.5t81 133t39.5 177t12 202.5q0 111 -12 203t-39.5 176t-81 132t-129.5 48q-60 0 -107 -33t-75 -85.5t-46 -127.5t-25 -150.5t-7 -162.5t6.5 -162t24.5 -150.5t46 -129t75 -86.5t108 -33z" />
    <glyph glyph-name="one" unicode="1" horiz-adv-x="645" 
d="M502 0h-162v1151l-211 -225l-98 102l327 338h144v-1366z" />
    <glyph glyph-name="two" unicode="2" horiz-adv-x="1001" 
d="M881 0h-772v133q319 368 395 464q149 187 186 300q19 58 19 117q0 105 -64 166t-156 61q-184 0 -288 -172l-107 98q142 219 398 219q163 0 272.5 -99.5t109.5 -272.5q0 -38 -7.5 -77t-17 -73.5t-34.5 -81.5t-43.5 -80.5t-61 -92.5t-70 -95.5t-88.5 -111.5t-97.5 -119
t-114.5 -138h541v-145z" />
    <glyph glyph-name="three" unicode="3" horiz-adv-x="968" 
d="M465 -25q-139 0 -244.5 64t-161.5 164l107 96q50 -81 125 -129.5t168 -48.5q122 0 185 69t63 191q0 130 -72.5 189t-188.5 59q-90 0 -108 -2v147q18 -2 104 -2q109 0 178.5 58.5t69.5 170.5q0 118 -64 179t-171 61q-161 0 -277 -162l-102 92q63 101 163.5 158t225.5 57
q173 0 280 -93.5t107 -268.5q0 -121 -72 -207.5t-172 -109.5q100 -15 181 -107.5t81 -230.5q0 -175 -107.5 -284.5t-297.5 -109.5z" />
    <glyph glyph-name="four" unicode="4" horiz-adv-x="946" 
d="M750 0h-162v350h-541v142l494 874h209v-872h149v-144h-149v-350zM588 494v696l-391 -696h391z" />
    <glyph glyph-name="five" unicode="5" horiz-adv-x="1005" 
d="M508 -25q-144 0 -239.5 57.5t-162.5 166.5l109 98q103 -176 289 -176q109 0 176.5 86.5t67.5 210.5q0 144 -63 222.5t-171 78.5q-74 0 -133 -29.5t-115 -97.5l-121 41v733h697v-143h-535v-480q42 53 108 86t144 33q154 0 254 -116.5t100 -323.5q0 -194 -113.5 -320.5
t-291.5 -126.5z" />
    <glyph glyph-name="six" unicode="6" horiz-adv-x="1007" 
d="M528 -25q-95 0 -170 39t-123.5 104.5t-80 157.5t-45 192t-13.5 214q0 94 11.5 180t34.5 165.5t61 144.5t87.5 113t117.5 74.5t149 26.5q104 0 185.5 -45t134.5 -124l-91 -115q-41 69 -94 104t-133 35q-78 0 -137.5 -48t-93.5 -128.5t-51 -173.5t-17 -195q0 -25 2 -41
q39 80 121 140.5t180 60.5q157 0 258 -113t101 -323q0 -118 -45 -218t-136.5 -163.5t-212.5 -63.5zM520 121q59 0 105.5 26t74.5 69t42 94t14 106q0 154 -64.5 226.5t-169.5 72.5q-81 0 -148.5 -59.5t-109.5 -149.5q3 -51 11.5 -99.5t27.5 -102t46 -92.5t71.5 -65t99.5 -26z
" />
    <glyph glyph-name="seven" unicode="7" horiz-adv-x="864" 
d="M377 0h-174l428 1223h-578v143h760v-113z" />
    <glyph glyph-name="eight" unicode="8" horiz-adv-x="995" 
d="M498 -25q-182 0 -294 97.5t-112 263.5q0 128 81 227.5t192 141.5q-105 38 -178.5 124.5t-73.5 208.5q0 86 32 154t87 109.5t122.5 63t143.5 21.5t144 -21.5t123 -63t87.5 -109.5t32.5 -154q0 -121 -74 -208t-178 -125q110 -42 190 -141t80 -226q0 -167 -112 -265
t-293 -98zM498 766q26 7 58 22.5t72 44.5t66.5 77.5t26.5 107.5q0 102 -61.5 162.5t-161.5 60.5q-101 0 -162.5 -60.5t-61.5 -162.5q0 -48 18.5 -89.5t44.5 -68t59.5 -48t57.5 -31.5t44 -15zM498 121q102 0 171.5 63t69.5 172q0 51 -19.5 97t-48.5 77.5t-63.5 55.5t-62.5 36
t-47 15q-25 -3 -62 -22.5t-78.5 -53t-70.5 -88.5t-29 -119q0 -107 68.5 -170t171.5 -63z" />
    <glyph glyph-name="nine" unicode="9" horiz-adv-x="1007" 
d="M449 -23q-205 0 -318 170l90 115q41 -69 94 -104t134 -35q64 0 115.5 32.5t84.5 85.5t55 125t31.5 147t9.5 155v43q-39 -82 -120.5 -142.5t-180.5 -60.5q-157 0 -257.5 113t-100.5 323q0 87 26.5 167t75 142t124 99t167.5 37q95 0 170 -39t123.5 -104.5t80 -157.5
t45 -192t13.5 -214q0 -113 -16 -214.5t-52 -192t-88.5 -156t-131 -104t-174.5 -38.5zM485 649q81 0 148.5 59.5t107.5 149.5q-2 42 -8.5 82.5t-18 85.5t-31.5 82.5t-46 68.5t-65 48.5t-85 17.5q-78 0 -133 -45.5t-78.5 -110t-23.5 -139.5q0 -154 64 -226.5t169 -72.5z" />
    <glyph glyph-name="colon" unicode=":" horiz-adv-x="466" 
d="M233 786q-44 0 -76 32.5t-32 76.5t32 76.5t76 32.5t77.5 -32.5t33.5 -76.5t-33.5 -76.5t-77.5 -32.5zM233 -20q-44 0 -76 32t-32 78q0 43 32 76t76 33t77.5 -33t33.5 -76q0 -45 -33 -77.5t-78 -32.5z" />
    <glyph glyph-name="semicolon" unicode=";" horiz-adv-x="466" 
d="M233 786q-44 0 -76 33t-32 76q0 44 32 76.5t76 32.5t77.5 -32.5t33.5 -76.5q0 -43 -33.5 -76t-77.5 -33zM354 49q0 -90 -46 -171.5t-118 -133.5l-73 61q50 32 87.5 87t43.5 104q-8 -4 -27 -4q-41 0 -68.5 29t-27.5 73t30.5 75.5t75.5 31.5q52 0 87.5 -41t35.5 -111z" />
    <glyph glyph-name="less" unicode="&#x3c;" horiz-adv-x="899" 
d="M840 258l-781 375v104l781 377v-125l-654 -305l654 -303v-123z" />
    <glyph glyph-name="equal" unicode="=" horiz-adv-x="899" 
d="M840 829h-781v105h781v-105zM840 434h-781v103h781v-103z" />
    <glyph glyph-name="greater" unicode="&#x3e;" horiz-adv-x="899" 
d="M840 633l-781 -375v123l652 303l-652 305v125l781 -377v-104z" />
    <glyph glyph-name="question" unicode="?" horiz-adv-x="792" 
d="M346 377q-67 67 -67 168q0 59 21.5 110.5t54 86t70.5 72t70.5 69.5t54 78t21.5 98q0 76 -52 130t-144 54q-139 0 -232 -117l-86 105q130 158 340 158q152 0 246 -88t94 -218q0 -59 -17.5 -110.5t-45 -89.5t-61 -72t-67.5 -65t-61.5 -61.5t-45 -68.5t-17.5 -79
q0 -63 45 -105zM393 -20q-45 0 -77.5 32.5t-32.5 77.5q0 43 33 76t77 33t76.5 -33t32.5 -76q0 -46 -32 -78t-77 -32z" />
    <glyph glyph-name="at" unicode="@" horiz-adv-x="1415" 
d="M629 -143q-246 0 -401.5 171.5t-155.5 442.5q0 162 61 316t162 268.5t238 184t282 69.5q235 0 381.5 -161.5t146.5 -414.5q0 -245 -100 -402t-229 -157q-74 0 -119.5 44.5t-50.5 111.5v12q-50 -74 -120.5 -121t-152.5 -47q-111 0 -180 75.5t-69 217.5q0 139 57 267
t156.5 208t214.5 80q75 0 128 -43t76 -111l25 121h133l-119 -561q-4 -24 -4 -47q0 -100 78 -100q28 0 62 27.5t66.5 79.5t54.5 142.5t22 200.5q0 232 -127 370t-334 138q-175 0 -330.5 -110t-246.5 -287t-91 -369q0 -242 137.5 -395.5t358.5 -153.5q172 0 330 115l35 -53
q-178 -129 -375 -129zM616 285q136 0 248 174l66 307q-16 59 -56.5 102t-103.5 43q-88 0 -160.5 -68.5t-110.5 -166.5t-38 -197q0 -90 40 -142t115 -52z" />
    <glyph glyph-name="A" unicode="A" horiz-adv-x="1046" 
d="M1030 0h-176l-88 309h-485l-88 -309h-177l410 1366h195zM731 453l-209 733l-207 -733h416z" />
    <glyph glyph-name="B" unicode="B" horiz-adv-x="1056" 
d="M608 0h-465v1366h453q159 0 248.5 -95t89.5 -253q0 -124 -58 -205.5t-151 -107.5q99 -15 165 -113t66 -223q0 -170 -90 -269.5t-258 -99.5zM565 770q100 0 150.5 62t50.5 163t-50.5 164.5t-150.5 63.5h-258v-453h258zM575 145q104 0 158.5 63t54.5 177q0 104 -55 173
t-158 69h-268v-482h268z" />
    <glyph glyph-name="C" unicode="C" horiz-adv-x="1091" 
d="M627 -25q-160 0 -281.5 91.5t-185.5 251.5t-64 364q0 205 64 365t185.5 251t281.5 91q259 0 399 -267l-135 -63q-43 86 -110 135t-154 49q-108 0 -191.5 -72.5t-127.5 -200t-44 -288.5t44 -288.5t127.5 -200t191.5 -72.5q90 0 158 55t108 148l137 -64
q-31 -62 -66.5 -109.5t-83.5 -89t-112.5 -64t-140.5 -22.5z" />
    <glyph glyph-name="D" unicode="D" horiz-adv-x="1155" 
d="M508 0h-365v1366h365q173 0 298.5 -90t188 -243t62.5 -351t-62.5 -351t-188 -242t-298.5 -89zM508 145q123 0 210 71t129 190.5t42 275.5q0 241 -98.5 391t-282.5 150h-201v-1078h201z" />
    <glyph glyph-name="E" unicode="E" horiz-adv-x="944" 
d="M846 0h-703v1366h703v-143h-539v-453h524v-143h-524v-482h539v-145z" />
    <glyph glyph-name="F" unicode="F" horiz-adv-x="923" 
d="M307 0h-164v1366h703v-143h-539v-453h524v-143h-524v-627z" />
    <glyph glyph-name="G" unicode="G" horiz-adv-x="1150" 
d="M627 -27q-158 0 -278.5 89t-186.5 250t-66 370q0 317 146 512t385 195q262 0 405 -259l-131 -67q-45 84 -114.5 132t-159.5 48q-164 0 -263.5 -155t-99.5 -406q0 -250 99.5 -405.5t263.5 -155.5q81 0 148 33t108 82v319h-326v143h481v-524q-161 -201 -411 -201z" />
    <glyph glyph-name="H" unicode="H" horiz-adv-x="1175" 
d="M1032 0h-164v631h-561v-631h-164v1366h164v-592h561v592h164v-1366z" />
    <glyph glyph-name="I" unicode="I" horiz-adv-x="450" 
d="M307 0h-164v1366h164v-1366z" />
    <glyph glyph-name="J" unicode="J" horiz-adv-x="815" 
d="M305 -25q-176 0 -287 125l74 127q86 -106 201 -106q102 0 159.5 60.5t57.5 172.5v1012h162v-1016q0 -186 -100.5 -280.5t-266.5 -94.5z" />
    <glyph glyph-name="K" unicode="K" horiz-adv-x="1042" 
d="M1016 0h-197l-399 602l-113 -164v-438h-164v1366h164v-709l477 709h193l-457 -649z" />
    <glyph glyph-name="L" unicode="L" horiz-adv-x="862" 
d="M801 0h-658v1366h164v-1221h494v-145z" />
    <glyph glyph-name="M" unicode="M" horiz-adv-x="1398" 
d="M1255 0h-159v1073l-365 -1073h-63l-361 1073v-1073h-164v1366h228l329 -971l332 971h223v-1366z" />
    <glyph glyph-name="N" unicode="N" horiz-adv-x="1171" 
d="M1028 0h-158l-563 1018v-1018h-164v1366h164l557 -997v997h164v-1366z" />
    <glyph glyph-name="O" unicode="O" horiz-adv-x="1226" 
d="M612 -25q-122 0 -220.5 55t-162.5 150.5t-98.5 224t-34.5 277.5t34.5 277.5t98.5 224t162.5 150.5t220.5 55t220.5 -55t163.5 -150.5t99.5 -224t34.5 -277.5t-34.5 -277.5t-99.5 -224t-163.5 -150.5t-220.5 -55zM612 121q110 0 191 76t120.5 201.5t39.5 283.5
q0 160 -39.5 285.5t-120.5 200.5t-191 75q-109 0 -189 -75t-119.5 -200.5t-39.5 -285.5q0 -158 39.5 -283.5t119.5 -201.5t189 -76z" />
    <glyph glyph-name="P" unicode="P" horiz-adv-x="997" 
d="M307 0h-164v1366h416q179 0 278 -117.5t99 -292.5t-99.5 -292t-277.5 -117h-252v-547zM543 690q104 0 164.5 73.5t60.5 192.5t-60.5 193t-164.5 74h-236v-533h236z" />
    <glyph glyph-name="Q" unicode="Q" horiz-adv-x="1226" 
d="M612 -25q-122 0 -220.5 55t-162.5 150.5t-98.5 224t-34.5 277.5t34.5 277.5t98.5 224t162.5 150.5t220.5 55t220.5 -55t163.5 -150.5t99.5 -224t34.5 -277.5q0 -171 -45 -315t-131 -240l78 -121l-114 -74l-70 107q-106 -64 -236 -64zM612 121q84 0 154 45l-162 252
l117 74l141 -224q101 156 101 414q0 160 -39.5 285.5t-120.5 200.5t-191 75q-109 0 -189 -75t-119.5 -200.5t-39.5 -285.5q0 -158 39.5 -283.5t119.5 -201.5t189 -76z" />
    <glyph glyph-name="R" unicode="R" horiz-adv-x="1042" 
d="M950 0h-184l-262 547h-197v-547h-164v1366h418q166 0 270.5 -111.5t104.5 -296.5q0 -170 -79.5 -268t-192.5 -119zM543 690q104 0 164.5 73.5t60.5 192.5t-60.5 193t-164.5 74h-236v-533h236z" />
    <glyph glyph-name="S" unicode="S" horiz-adv-x="962" 
d="M467 -25q-256 0 -408 172l91 125q56 -67 139 -109t178 -42q122 0 186 64t64 159q0 53 -21 96t-57 74t-82 57.5t-97 50.5t-102.5 49.5t-97.5 59t-82 73.5t-57 98t-21 128q0 157 111 258t281 101q223 0 364 -144l-86 -123q-109 121 -283 121q-95 0 -158 -57t-63 -148
q0 -58 34 -104t88.5 -78.5t120 -63t131.5 -68t120.5 -84t88.5 -120t34 -166.5q0 -77 -26 -144.5t-75.5 -120.5t-130.5 -83.5t-184 -30.5z" />
    <glyph glyph-name="T" unicode="T" horiz-adv-x="913" 
d="M537 0h-162v1223h-324v143h811v-143h-325v-1223z" />
    <glyph glyph-name="U" unicode="U" horiz-adv-x="1165" 
d="M582 -25q-207 0 -323 121.5t-116 345.5v924h164v-926q0 -157 71.5 -238t203.5 -81q133 0 204.5 81t71.5 238v926h162v-924q0 -225 -115 -346t-323 -121z" />
    <glyph glyph-name="V" unicode="V" horiz-adv-x="1046" 
d="M621 0h-195l-410 1366h177l329 -1171l332 1171h176z" />
    <glyph glyph-name="W" unicode="W" horiz-adv-x="1464" 
d="M1128 0h-174l-223 1077l-221 -1077h-174l-303 1366h174l223 -1114l234 1114h137l233 -1114l223 1114h175z" />
    <glyph glyph-name="X" unicode="X" horiz-adv-x="1044" 
d="M1028 0h-188l-318 565l-317 -565h-189l408 698l-385 668h190l293 -537l293 537h191l-385 -668z" />
    <glyph glyph-name="Y" unicode="Y" horiz-adv-x="1021" 
d="M592 0h-162v578l-422 788h182l322 -631l322 631h180l-422 -788v-578z" />
    <glyph glyph-name="Z" unicode="Z" horiz-adv-x="946" 
d="M864 0h-782v137l573 1086h-573v143h768v-135l-576 -1086h590v-145z" />
    <glyph glyph-name="bracketleft" unicode="[" horiz-adv-x="436" 
d="M399 -389h-323v1778h323v-109h-209v-1561h209v-108z" />
    <glyph glyph-name="backslash" unicode="\" horiz-adv-x="507" 
d="M395 -41l-393 1448h115l393 -1448h-115z" />
    <glyph glyph-name="bracketright" unicode="]" horiz-adv-x="436" 
d="M358 -389h-323v108h209v1561h-209v109h323v-1778z" />
    <glyph glyph-name="asciicircum" unicode="^" horiz-adv-x="780" 
d="M741 682h-118l-234 567l-231 -567h-119l295 684h112z" />
    <glyph glyph-name="underscore" unicode="_" horiz-adv-x="864" 
d="M870 -190h-876v108h876v-108z" />
    <glyph glyph-name="grave" unicode="`" horiz-adv-x="380" 
d="M381 1139h-107l-274 295h150z" />
    <glyph glyph-name="a" unicode="a" horiz-adv-x="923" 
d="M791 0h-148v106q-46 -65 -114 -98t-146 -33q-125 0 -212 90t-87 240t86 238t213 88q79 0 147.5 -31.5t112.5 -95.5v172q0 101 -53 156t-150 55q-140 0 -247 -121l-66 104q138 144 336 144q154 0 241 -79.5t87 -242.5v-692zM430 82q66 0 123 32.5t90 92.5v188
q-33 61 -90 94t-123 33q-90 0 -143.5 -62t-53.5 -157t53.5 -158t143.5 -63z" />
    <glyph glyph-name="b" unicode="b" horiz-adv-x="983" 
d="M281 266q30 -67 93 -113.5t130 -46.5q78 0 132.5 53.5t79.5 139t25 195.5q0 171 -60.5 280t-176.5 109q-67 0 -129.5 -48.5t-93.5 -115.5v-453zM281 0h-146v1366h146v-520q45 81 114 124.5t146 43.5q165 0 259.5 -143t94.5 -377q0 -236 -94.5 -377.5t-259.5 -141.5
q-77 0 -147 45t-113 121v-141z" />
    <glyph glyph-name="c" unicode="c" horiz-adv-x="831" 
d="M496 -25q-186 0 -298 148t-112 373q0 147 49 264t143 185.5t218 68.5q177 0 282 -131l-80 -101q-74 101 -190 101q-127 0 -197.5 -110.5t-70.5 -276.5q0 -108 29.5 -195t91.5 -141t147 -54q114 0 190 101l80 -101q-102 -131 -282 -131z" />
    <glyph glyph-name="d" unicode="d" horiz-adv-x="983" 
d="M848 0h-148v141q-43 -76 -113 -121t-147 -45q-164 0 -259 141.5t-95 377.5q0 234 94.5 377t259.5 143q77 0 147 -43.5t113 -124.5v520h148v-1366zM477 106q69 0 131.5 46.5t91.5 113.5v455q-29 67 -92 114.5t-131 47.5q-116 0 -176.5 -109t-60.5 -280q0 -110 25 -195.5
t79.5 -139t132.5 -53.5z" />
    <glyph glyph-name="e" unicode="e" horiz-adv-x="958" 
d="M510 -25q-195 0 -309.5 145t-114.5 376q0 144 47.5 261t139.5 187t214 70q126 0 216 -71t133 -187t43 -264v-46h-641q5 -154 80 -251t204 -97q65 0 128 31.5t108 89.5l78 -86q-129 -158 -326 -158zM733 555q-1 61 -15 117.5t-42 107t-77.5 81t-113.5 30.5
q-62 0 -111 -31.5t-77 -82.5t-42.5 -107.5t-16.5 -114.5h495z" />
    <glyph glyph-name="f" unicode="f" horiz-adv-x="520" 
d="M317 0h-147v860h-131v129h131v121q0 129 66 202.5t182 73.5q108 0 176 -65l-57 -104q-42 45 -97 45q-61 0 -92 -39.5t-31 -112.5v-121h168v-129h-168v-860z" />
    <glyph glyph-name="g" unicode="g" horiz-adv-x="980" 
d="M457 -401q-104 0 -183 28.5t-147 96.5l68 114q99 -114 258 -114q109 0 178 66.5t69 201.5v166q-44 -77 -113.5 -123.5t-146.5 -46.5q-165 0 -259.5 138.5t-94.5 373.5q0 233 94.5 373.5t259.5 140.5q77 0 146 -43.5t114 -124.5v143h148v-987q0 -89 -21 -159t-56.5 -115
t-86.5 -74.5t-106.5 -42t-120.5 -12.5zM477 119q68 0 131 48.5t92 115.5v438q-29 67 -92 114.5t-131 47.5q-116 0 -176.5 -107t-60.5 -276t60.5 -275t176.5 -106z" />
    <glyph glyph-name="h" unicode="h" 
d="M817 0h-145v707q0 94 -41 135t-119 41q-68 0 -131.5 -46t-99.5 -112v-725h-146v1366h146v-518q46 69 124.5 117.5t163.5 48.5q126 0 187 -64.5t61 -199.5v-750z" />
    <glyph glyph-name="i" unicode="i" horiz-adv-x="415" 
d="M207 1133q-40 0 -70.5 29.5t-30.5 70.5t30.5 70.5t70.5 29.5q41 0 70.5 -29.5t29.5 -70.5t-29.5 -70.5t-70.5 -29.5zM281 0h-146v989h146v-989z" />
    <glyph glyph-name="j" unicode="j" horiz-adv-x="415" 
d="M207 1133q-40 0 -70.5 29.5t-30.5 70.5t30.5 70.5t70.5 29.5q41 0 70.5 -29.5t29.5 -70.5t-29.5 -70.5t-70.5 -29.5zM35 -401q-105 0 -168 69l53 109q43 -53 100 -53q115 0 115 155v1110h146v-1110q0 -280 -246 -280z" />
    <glyph glyph-name="k" unicode="k" horiz-adv-x="897" 
d="M866 0h-174l-272 446l-139 -178v-268h-146v1366h146v-913l411 536h174l-346 -444z" />
    <glyph glyph-name="l" unicode="l" horiz-adv-x="415" 
d="M281 0h-146v1366h146v-1366z" />
    <glyph glyph-name="m" unicode="m" horiz-adv-x="1417" 
d="M1282 0h-147v717q0 166 -138 166q-63 0 -123.5 -47t-91.5 -111v-725h-147v717q0 166 -139 166q-62 0 -121 -46.5t-94 -111.5v-725h-146v989h146v-141q35 62 111 114t159 52q93 0 151 -48t72 -128q39 72 116.5 124t162.5 52q229 0 229 -258v-756z" />
    <glyph glyph-name="n" unicode="n" 
d="M817 0h-147v705q0 95 -40.5 136.5t-117.5 41.5q-68 0 -131.5 -46t-99.5 -112v-725h-146v989h146v-141q46 69 123.5 117.5t162.5 48.5q250 0 250 -269v-745z" />
    <glyph glyph-name="o" unicode="o" horiz-adv-x="976" 
d="M487 -25q-126 0 -219 73t-137.5 189t-44.5 259q0 142 44.5 258t137 188t219.5 72q128 0 221.5 -72t138 -187.5t44.5 -258.5t-44.5 -259t-138 -189t-221.5 -73zM487 106q63 0 112 32.5t78.5 87.5t44.5 123.5t15 146.5q0 77 -15 145t-44.5 123t-78.5 87t-112 32
q-62 0 -110 -32t-77.5 -87t-44.5 -123t-15 -145q0 -105 25.5 -191t83 -142.5t138.5 -56.5z" />
    <glyph glyph-name="p" unicode="p" horiz-adv-x="978" 
d="M541 -25q-77 0 -146 43.5t-114 124.5v-520h-146v1366h146v-141q43 76 113 121t147 45q165 0 259.5 -141t94.5 -377q0 -235 -94.5 -378t-259.5 -143zM504 106q116 0 176.5 109.5t60.5 280.5q0 110 -25 195.5t-79.5 138.5t-132.5 53q-67 0 -130 -46.5t-93 -113.5v-453
q31 -67 93.5 -115.5t129.5 -48.5z" />
    <glyph glyph-name="q" unicode="q" horiz-adv-x="978" 
d="M475 106q67 0 129.5 48.5t93.5 115.5v453q-30 67 -93 113.5t-130 46.5q-78 0 -132.5 -53t-79.5 -138.5t-25 -195.5q0 -171 60.5 -280.5t176.5 -109.5zM438 -25q-165 0 -259.5 143t-94.5 378q0 236 94.5 377t259.5 141q76 0 146.5 -45.5t113.5 -120.5v141h146v-1366h-146
v520q-45 -81 -114 -124.5t-146 -43.5z" />
    <glyph glyph-name="r" unicode="r" horiz-adv-x="595" 
d="M281 0h-146v989h146v-158q50 82 121.5 130.5t158.5 48.5v-152q-24 6 -49 6q-65 0 -132 -49t-99 -113v-702z" />
    <glyph glyph-name="s" unicode="s" horiz-adv-x="792" 
d="M389 -25q-212 0 -334 140l74 104q45 -55 113.5 -90t144.5 -35q86 0 138.5 44.5t52.5 115.5q0 47 -27 82t-71 57.5t-96.5 43.5t-105 46t-96.5 57.5t-71 85.5t-27 122q0 114 85.5 190t229.5 76q184 0 301 -127l-69 -101q-37 50 -98 79.5t-132 29.5q-80 0 -128 -40.5
t-48 -102.5q0 -38 21 -67.5t56 -48.5t79.5 -39t90.5 -37.5t90.5 -44.5t79.5 -59t56 -83t21 -115q0 -125 -90 -204t-240 -79z" />
    <glyph glyph-name="t" unicode="t" horiz-adv-x="538" 
d="M362 -25q-198 0 -198 224v661h-131v129h131v271h147v-271h168v-129h-168v-635q0 -119 80 -119q55 0 86 39l45 -110q-60 -60 -160 -60z" />
    <glyph glyph-name="u" unicode="u" 
d="M817 0h-147v137q-48 -70 -124 -116t-163 -46q-126 0 -187 65t-61 200v749h146v-706q0 -94 40.5 -135.5t116.5 -41.5q71 0 134.5 44.5t97.5 109.5v729h147v-989z" />
    <glyph glyph-name="v" unicode="v" horiz-adv-x="835" 
d="M498 0h-162l-324 989h160l246 -815l248 815h157z" />
    <glyph glyph-name="w" unicode="w" horiz-adv-x="1306" 
d="M1016 0h-152l-211 795l-213 -795h-149l-264 989h153l193 -790l209 790h139l211 -790l194 790h154z" />
    <glyph glyph-name="x" unicode="x" horiz-adv-x="831" 
d="M807 0h-164l-227 397l-228 -397h-163l301 504l-285 485h164l211 -377l211 377h164l-285 -485z" />
    <glyph glyph-name="y" unicode="y" horiz-adv-x="835" 
d="M84 -387l22 131q25 -14 66 -14q44 0 70.5 21.5t46.5 76.5l53 152l-330 1009h160l246 -811l248 811h157l-395 -1198q-36 -104 -95.5 -148t-150.5 -44q-58 0 -98 14z" />
    <glyph glyph-name="z" unicode="z" horiz-adv-x="792" 
d="M705 0h-617v115l428 745h-428v129h608v-112l-428 -748h437v-129z" />
    <glyph glyph-name="braceleft" unicode="{" horiz-adv-x="473" 
d="M438 -389h-94q-90 0 -157.5 68t-67.5 176v452q0 61 -28 102.5t-79 41.5v98q51 0 79 41t28 102v451q0 108 67.5 177t157.5 69h94v-109h-94q-46 0 -78.5 -38.5t-32.5 -98.5v-463q0 -141 -92 -180q92 -39 92 -181v-464q0 -58 33 -97t78 -39h94v-108z" />
    <glyph glyph-name="bar" unicode="|" horiz-adv-x="397" 
d="M254 -41h-111v1448h111v-1448z" />
    <glyph glyph-name="braceright" unicode="}" horiz-adv-x="473" 
d="M35 -389v108h94q45 0 78 39t33 97v464q0 141 94 181q-94 40 -94 180v463q0 60 -32.5 98.5t-78.5 38.5h-94v109h94q90 0 158.5 -69t68.5 -177v-451q0 -61 28 -102t79 -41v-98q-51 0 -79 -41.5t-28 -102.5v-452q0 -108 -68 -176t-159 -68h-94z" />
    <glyph glyph-name="asciitilde" unicode="~" horiz-adv-x="919" 
d="M752 1366l110 -12q-5 -63 -11 -114t-18 -110.5t-30.5 -103t-44 -81t-63.5 -57.5t-85 -20q-63 0 -105 40.5t-61.5 98t-35 115t-39 98t-60.5 40.5q-62 0 -93 -95.5t-50 -298.5l-111 13q5 64 12 115t19 110t30.5 102.5t44.5 81t63.5 57t84.5 19.5q63 0 105 -40.5t61.5 -98
t35 -115.5t39 -98.5t60.5 -40.5q63 0 94.5 96t47.5 299z" />
    <glyph glyph-name="nbspace" unicode="&#xa0;" horiz-adv-x="440" 
 />
    <glyph glyph-name="exclamdown" unicode="&#xa1;" horiz-adv-x="466" 
d="M143 -377l31 987h121l33 -987h-185zM125 901q0 43 32 76t76 33t77.5 -33t33.5 -76q0 -44 -33 -76t-78 -32q-44 0 -76 32t-32 76z" />
    <glyph glyph-name="cent" unicode="&#xa2;" horiz-adv-x="831" 
d="M434 -205v187q-160 24 -254 166.5t-94 347.5q0 204 94 346t254 166v149h115v-147q140 -16 229 -127l-80 -101q-64 85 -149 97v-770q87 15 149 98l80 -101q-88 -113 -229 -129v-182h-115zM240 496q0 -140 50 -244t144 -135v753q-94 -30 -144 -132.5t-50 -241.5z" />
    <glyph glyph-name="sterling" unicode="&#xa3;" horiz-adv-x="919" 
d="M51 551v106h176q-28 41 -38 55.5t-32.5 54t-31.5 67t-18 70.5t-9 87q0 163 113.5 279t277.5 116q124 0 215.5 -60.5t131.5 -170.5l-129 -70q-25 72 -78.5 118t-128.5 46q-94 0 -161 -71t-67 -191q0 -55 15 -106.5t29.5 -78.5t48 -77t43.5 -68h231v-106h-186
q12 -43 12 -94q0 -83 -41 -159t-105 -124q49 19 95 19q58 0 132.5 -37t119.5 -37q52 0 97 23.5t66 54.5l66 -129q-35 -41 -100 -68t-140 -27q-53 0 -97 14t-68.5 31t-61 31t-76.5 14q-82 0 -200 -77l-60 120q106 57 165.5 142t59.5 178q0 62 -26 125h-240z" />
    <glyph glyph-name="currency" unicode="&#xa4;" horiz-adv-x="1011" 
d="M506 195q-144 0 -244 84l-143 -146l-92 90l153 152q-76 128 -76 307t78 307l-155 156l90 92l149 -152q101 82 240 82q138 0 239 -82l150 152l90 -92l-156 -156q78 -128 78 -307t-80 -309l158 -154l-90 -90l-150 147q-100 -81 -239 -81zM506 332q84 0 143 51t85 128
t26 171q0 69 -15.5 130t-45.5 110.5t-79.5 78.5t-113.5 29q-82 0 -141.5 -51t-86 -128t-26.5 -169q0 -69 16 -131t46.5 -111.5t80 -78.5t111.5 -29z" />
    <glyph glyph-name="yen" unicode="&#xa5;" horiz-adv-x="1021" 
d="M592 0h-162v252h-385v104h385v222h-385v104h328l-365 684h182l322 -631l322 631h180l-367 -684h330v-104h-385v-222h385v-104h-385v-252z" />
    <glyph glyph-name="brokenbar" unicode="&#xa6;" horiz-adv-x="397" 
d="M254 -41h-111v647h111v-647zM254 760h-111v647h111v-647z" />
    <glyph glyph-name="section" unicode="&#xa7;" horiz-adv-x="796" 
d="M719 629q0 -79 -43 -145t-125 -103q85 -49 126.5 -111.5t41.5 -152.5q0 -126 -92.5 -204.5t-237.5 -78.5q-204 0 -332 141l72 99q43 -52 109 -90.5t147 -38.5q85 0 139 47t54 119q0 49 -27 86.5t-71 61t-96.5 45t-105 47t-96.5 57.5t-71 84.5t-27 121.5q0 88 57 154
t148 88q-106 53 -155.5 117.5t-49.5 154.5q0 111 86.5 184.5t220.5 73.5q197 0 307 -129l-67 -90q-92 109 -232 109q-77 0 -125.5 -41t-48.5 -107q0 -45 27 -79.5t71 -57t96.5 -43t105 -46.5t96.5 -59t71 -88t27 -126zM580 608q0 42 -15 75.5t-42.5 57t-53.5 38t-61 28.5
q-187 -42 -187 -176q0 -37 15 -66.5t48 -54.5t66.5 -42.5t89.5 -41.5q140 65 140 182z" />
    <glyph glyph-name="dieresis" unicode="&#xa8;" horiz-adv-x="548" 
d="M545 1235q0 -37 -27.5 -63.5t-64.5 -26.5q-38 0 -65.5 26.5t-27.5 63.5q0 38 27.5 65t65.5 27q37 0 64.5 -27t27.5 -65zM188 1235q0 -37 -27 -63.5t-65 -26.5q-37 0 -64.5 26.5t-27.5 63.5q0 38 27.5 65t64.5 27q38 0 65 -27t27 -65z" />
    <glyph glyph-name="copyright" unicode="&#xa9;" horiz-adv-x="1593" 
d="M1503 684q0 -143 -56 -274t-150 -226t-225 -151t-275 -56q-191 0 -354 95t-258 258t-95 354q0 192 95 355t258 257.5t354 94.5q144 0 275 -56t225 -150.5t150 -225.5t56 -275zM1442 684q0 174 -87 322.5t-235.5 235.5t-322.5 87q-130 0 -249 -51.5t-205.5 -138
t-137.5 -206t-51 -249.5q0 -174 86.5 -322t234.5 -234.5t322 -86.5q130 0 249.5 51t206 137.5t138 205.5t51.5 249zM1049 432l53 -49q-116 -135 -299 -135q-179 0 -303.5 126.5t-124.5 311.5q0 187 124 311.5t304 124.5q183 0 297 -133l-51 -51q-40 54 -107 86.5t-139 32.5
q-144 0 -249 -104.5t-105 -266.5q0 -158 105.5 -265.5t248.5 -107.5q73 0 139.5 32.5t106.5 86.5z" />
    <glyph glyph-name="ordfeminine" unicode="&#xaa;" horiz-adv-x="673" 
d="M565 668h-112v69q-67 -86 -181 -86q-85 0 -143.5 58t-58.5 155q0 98 58.5 154.5t143.5 56.5q115 0 181 -82v109q0 65 -37.5 99t-100.5 34q-97 0 -168 -84l-49 78q95 98 236 98q109 0 170 -56t61 -173v-430zM311 729q43 0 81.5 20t60.5 58v117q-43 77 -142 77
q-58 0 -93.5 -38.5t-35.5 -96.5q0 -61 35.5 -99t93.5 -38z" />
    <glyph glyph-name="guillemotleft" unicode="&#xab;" horiz-adv-x="782" 
d="M721 129h-137l-256 369l256 362h137l-256 -362zM455 129h-138l-256 369l256 362h138l-256 -362z" />
    <glyph glyph-name="logicalnot" unicode="&#xac;" horiz-adv-x="903" 
d="M840 934v-500h-111v395h-670v105h781z" />
    <glyph glyph-name="uni00AD" unicode="&#xad;" horiz-adv-x="546" 
d="M485 430h-424v131h424v-131z" />
    <glyph glyph-name="registered" unicode="&#xae;" horiz-adv-x="1011" 
d="M940 952q0 -180 -126.5 -307t-307.5 -127q-180 0 -307 127t-127 307q0 181 127 307.5t307 126.5q119 0 219 -57.5t157.5 -157.5t57.5 -219zM881 952q0 158 -109 266.5t-266 108.5t-267 -108.5t-110 -266.5q0 -156 110.5 -266.5t266.5 -110.5t265.5 110.5t109.5 266.5z
M707 702h-82l-129 197h-90v-197h-66v498h203q65 0 111 -42t46 -109q0 -72 -46 -110t-81 -38zM633 1049q0 40 -28 67t-62 27h-137v-185h137q34 0 62 27t28 64z" />
    <glyph glyph-name="macron" unicode="&#xaf;" horiz-adv-x="626" 
d="M627 1174h-627v94h627v-94z" />
    <glyph glyph-name="degree" unicode="&#xb0;" horiz-adv-x="591" 
d="M543 1139q0 -103 -72.5 -175.5t-175.5 -72.5t-175.5 72.5t-72.5 175.5q0 101 72.5 174t175.5 73t175.5 -73t72.5 -174zM449 1139q0 62 -45.5 106.5t-108.5 44.5t-107.5 -44.5t-44.5 -106.5q0 -63 44.5 -107.5t107.5 -44.5t108.5 44.5t45.5 107.5z" />
    <glyph glyph-name="plusminus" unicode="&#xb1;" horiz-adv-x="899" 
d="M840 651h-334v-377h-113v377h-334v105h334v362h113v-362h334v-105zM840 45h-781v105h781v-105z" />
    <glyph glyph-name="twosuperior" unicode="&#xb2;" horiz-adv-x="667" 
d="M596 862h-512v90q86 84 130 128.5t97 100.5t76.5 87t47 68t31 65.5t7.5 58.5q0 65 -40.5 100t-100.5 35q-58 0 -107.5 -28.5t-79.5 -75.5l-71 72q93 131 262 131q110 0 183 -60t73 -168q0 -42 -16 -86.5t-38.5 -83t-74 -98.5t-93.5 -105.5t-126 -131.5h352v-99z" />
    <glyph glyph-name="threesuperior" unicode="&#xb3;" horiz-adv-x="667" 
d="M600 1085q0 -106 -72 -171.5t-196 -65.5q-92 0 -162 37.5t-107 97.5l72 70q33 -49 84 -78t109 -29q74 0 113.5 38.5t39.5 107.5q0 76 -48 109.5t-122 33.5q-55 0 -67 -2v98q12 -2 65 -2q73 0 116.5 33t43.5 100q0 65 -39.5 99t-105.5 34q-111 0 -181 -98l-71 68
q43 60 109.5 94.5t150.5 34.5q114 0 185 -57.5t71 -161.5q0 -74 -47.5 -126t-110.5 -63q64 -8 117 -63t53 -138z" />
    <glyph glyph-name="acute" unicode="&#xb4;" horiz-adv-x="380" 
d="M381 1434l-275 -295h-106l231 295h150z" />
    <glyph glyph-name="mu" unicode="&#xb5;" horiz-adv-x="974" 
d="M281 45v-422h-146v1366h146v-706q0 -91 42.5 -136t118.5 -45q69 0 131.5 46t96.5 112v729h147v-772q0 -111 80 -111q18 0 33 3l12 -125q-40 -9 -74 -9q-88 0 -134 44t-58 131q-42 -77 -107 -126t-139 -49q-105 0 -149 70z" />
    <glyph glyph-name="paragraph" unicode="&#xb6;" horiz-adv-x="919" 
d="M772 -205h-92v1481h-182v-1481h-90v867q-146 0 -249.5 103t-103.5 249t103.5 249t249.5 103h364v-1571z" />
    <glyph glyph-name="periodcentered" unicode="&#xb7;" horiz-adv-x="466" 
d="M344 502q0 -44 -33.5 -77.5t-77.5 -33.5t-76 33t-32 78q0 43 32 75.5t76 32.5t77.5 -32.5t33.5 -75.5z" />
    <glyph glyph-name="cedilla" unicode="&#xb8;" horiz-adv-x="378" 
d="M182 -391q-106 0 -182 61l37 76q63 -57 143 -57q45 0 78 23.5t33 62.5q0 32 -18 50.5t-50 18.5q-40 0 -67 -30l-66 36l64 173h88l-54 -138q26 23 68 23q53 0 88 -37t35 -98q0 -73 -56.5 -118.5t-140.5 -45.5z" />
    <glyph glyph-name="onesuperior" unicode="&#xb9;" horiz-adv-x="460" 
d="M346 862h-119v666l-129 -135l-69 71l213 217h104v-819z" />
    <glyph glyph-name="ordmasculine" unicode="&#xba;" horiz-adv-x="710" 
d="M354 651q-130 0 -205 97.5t-75 240.5t75 240.5t205 97.5q133 0 208 -97.5t75 -240.5t-75 -240.5t-208 -97.5zM354 745q82 0 124 69t42 175q0 105 -42 172.5t-124 67.5q-80 0 -122 -68t-42 -172q0 -105 42.5 -174.5t121.5 -69.5z" />
    <glyph glyph-name="guillemotright" unicode="&#xbb;" horiz-adv-x="782" 
d="M455 498l-256 -369h-138l256 369l-256 362h138zM721 498l-256 -369h-137l256 369l-256 362h137z" />
    <glyph glyph-name="onequarter" unicode="&#xbc;" horiz-adv-x="1378" 
d="M346 547h-119v665l-129 -135l-69 72l213 217h104v-819zM1325 207h-96v-207h-119v207h-344v92l307 520h156v-516h96v-96zM1110 303v395l-233 -395h233zM1057 1366l-717 -1366h-98l716 1366h99z" />
    <glyph glyph-name="onehalf" unicode="&#xbd;" horiz-adv-x="1447" 
d="M346 547h-119v665l-129 -135l-69 72l213 217h104v-819zM1376 0h-512v90q86 84 130 128.5t97 100.5t76.5 87t47 68t31 65.5t7.5 58.5q0 65 -40.5 100t-100.5 35q-58 0 -107 -28.5t-79 -75.5l-72 71q93 131 262 131q110 0 183 -59.5t73 -167.5q0 -42 -16 -86.5t-39 -83.5
t-73.5 -99t-93.5 -106t-126 -131h352v-98zM1057 1366l-717 -1366h-98l716 1366h99z" />
    <glyph glyph-name="threequarters" unicode="&#xbe;" horiz-adv-x="1525" 
d="M1475 207h-97v-207h-118v207h-345v92l308 520h155v-516h97v-96zM1260 303v395l-234 -395h234zM1204 1366l-717 -1366h-98l717 1366h98zM600 770q0 -106 -72 -172t-196 -66q-92 0 -162 37.5t-107 98.5l72 69q33 -49 83.5 -77.5t109.5 -28.5q74 0 113.5 38.5t39.5 106.5
q0 76 -48 110t-122 34q-55 0 -67 -2v98q12 -2 65 -2q73 0 116.5 33t43.5 100q0 65 -39.5 99t-105.5 34q-111 0 -181 -98l-71 67q43 60 109.5 94.5t150.5 34.5q114 0 185 -57.5t71 -161.5q0 -74 -47.5 -125.5t-110.5 -62.5q64 -8 117 -63t53 -138z" />
    <glyph glyph-name="questiondown" unicode="&#xbf;" horiz-adv-x="679" 
d="M446 608q68 -71 68 -170q0 -51 -16 -95.5t-42 -77.5t-57 -63.5t-62.5 -60.5t-57.5 -60.5t-42 -71t-16 -85.5q0 -74 53 -128t144 -54q76 0 131 29.5t102 87.5l84 -107q-130 -155 -338 -155q-153 0 -246.5 87t-93.5 216q0 59 17.5 111t45.5 90t61.5 72.5t67 65.5t61.5 62
t45.5 69t17.5 79q0 60 -47 104zM399 1010q45 0 78 -33t33 -78q0 -43 -32.5 -74.5t-78.5 -31.5q-44 0 -76 31.5t-32 74.5q0 45 32 78t76 33z" />
    <glyph glyph-name="Agrave" unicode="&#xc0;" horiz-adv-x="1046" 
d="M1030 0h-176l-88 309h-485l-88 -309h-177l410 1366h195zM731 453l-209 733l-207 -733h416zM618 1481h-106l-274 295h149z" />
    <glyph glyph-name="Aacute" unicode="&#xc1;" horiz-adv-x="1046" 
d="M1030 0h-176l-88 309h-485l-88 -309h-177l410 1366h195zM731 453l-209 733l-207 -733h416zM809 1776l-274 -295h-107l231 295h150z" />
    <glyph glyph-name="Acircumflex" unicode="&#xc2;" horiz-adv-x="1046" 
d="M764 1481h-96l-146 215l-141 -215h-94l164 295h143zM1030 0h-176l-88 309h-485l-88 -309h-177l410 1366h195zM731 453l-209 733l-207 -733h416z" />
    <glyph glyph-name="Atilde" unicode="&#xc3;" horiz-adv-x="1046" 
d="M1030 0h-176l-88 309h-485l-88 -309h-177l410 1366h195zM731 453l-209 733l-207 -733h416zM627 1477q-36 0 -64 20t-44.5 48t-31 56t-32 48t-39.5 20q-36 0 -59 -45.5t-23 -134.5h-86q0 122 44.5 198t129.5 76q36 0 64 -19.5t44.5 -47.5t31 -56t32 -47.5t39.5 -19.5
q36 0 59 44.5t23 133.5h86q0 -122 -44.5 -198t-129.5 -76z" />
    <glyph glyph-name="Adieresis" unicode="&#xc4;" horiz-adv-x="1046" 
d="M795 1577q0 -36 -28 -63t-65 -27q-38 0 -65 26.5t-27 63.5q0 38 27 65t65 27q37 0 65 -27t28 -65zM438 1577q0 -37 -27 -63.5t-65 -26.5q-37 0 -64.5 26.5t-27.5 63.5q0 38 27.5 65t64.5 27q38 0 65 -27t27 -65zM1030 0h-176l-88 309h-485l-88 -309h-177l410 1366h195z
M731 453l-209 733l-207 -733h416z" />
    <glyph glyph-name="Aring" unicode="&#xc5;" horiz-adv-x="1046" 
d="M1030 0h-176l-88 309h-485l-88 -309h-177l410 1366h195zM731 453l-209 733l-207 -733h416zM524 1415q-76 0 -131 55t-55 132q0 76 55 131t131 55t130.5 -54.5t54.5 -131.5t-54.5 -132t-130.5 -55zM524 1493q44 0 75.5 32.5t31.5 76.5t-31.5 76t-75.5 32t-76 -32t-32 -76
t32 -76.5t76 -32.5z" />
    <glyph glyph-name="AE" unicode="&#xc6;" horiz-adv-x="1538" 
d="M1438 0h-701v309h-399l-141 -309h-174l647 1366h768v-143h-539v-453h524v-143h-524v-482h539v-145zM737 453v733l-338 -733h338z" />
    <glyph glyph-name="Ccedilla" unicode="&#xc7;" horiz-adv-x="1091" 
d="M614 -383q-106 0 -182 61l37 76q63 -57 143 -57q45 0 78 23.5t33 62.5q0 32 -18 51t-50 19q-39 0 -67 -31l-66 37l43 121q-216 26 -342.5 219t-126.5 483q0 205 64 365t185.5 251t281.5 91q259 0 399 -267l-135 -63q-43 86 -110 135t-154 49q-108 0 -191.5 -72.5
t-127.5 -200t-44 -288.5t44 -288.5t127.5 -200t191.5 -72.5q90 0 158 55t108 148l137 -64q-138 -271 -379 -283l-30 -83q25 22 67 22q53 0 88 -37t35 -98q0 -73 -56.5 -118.5t-140.5 -45.5z" />
    <glyph glyph-name="Egrave" unicode="&#xc8;" horiz-adv-x="944" 
d="M846 0h-703v1366h703v-143h-539v-453h524v-143h-524v-482h539v-145zM590 1481h-107l-274 295h149z" />
    <glyph glyph-name="Eacute" unicode="&#xc9;" horiz-adv-x="944" 
d="M780 1776l-274 -295h-107l232 295h149zM846 0h-703v1366h703v-143h-539v-453h524v-143h-524v-482h539v-145z" />
    <glyph glyph-name="Ecircumflex" unicode="&#xca;" horiz-adv-x="944" 
d="M735 1481h-96l-145 215l-142 -215h-94l164 295h143zM846 0h-703v1366h703v-143h-539v-453h524v-143h-524v-482h539v-145z" />
    <glyph glyph-name="Edieresis" unicode="&#xcb;" horiz-adv-x="944" 
d="M766 1577q0 -37 -27.5 -63.5t-64.5 -26.5q-38 0 -65 26.5t-27 63.5q0 38 27 65t65 27q37 0 64.5 -27t27.5 -65zM410 1577q0 -37 -27.5 -63.5t-65.5 -26.5q-37 0 -64.5 26.5t-27.5 63.5q0 38 27.5 65t64.5 27q38 0 65.5 -27t27.5 -65zM846 0h-703v1366h703v-143h-539v-453
h524v-143h-524v-482h539v-145z" />
    <glyph glyph-name="Igrave" unicode="&#xcc;" horiz-adv-x="450" 
d="M307 0h-164v1366h164v-1366zM322 1481h-107l-274 295h149z" />
    <glyph glyph-name="Iacute" unicode="&#xcd;" horiz-adv-x="450" 
d="M307 0h-164v1366h164v-1366zM512 1776l-274 -295h-107l231 295h150z" />
    <glyph glyph-name="Icircumflex" unicode="&#xce;" horiz-adv-x="450" 
d="M467 1481h-96l-146 215l-141 -215h-94l164 295h143zM307 0h-164v1366h164v-1366z" />
    <glyph glyph-name="Idieresis" unicode="&#xcf;" horiz-adv-x="450" 
d="M498 1577q0 -37 -27.5 -63.5t-64.5 -26.5q-38 0 -65.5 26.5t-27.5 63.5q0 38 27.5 65t65.5 27q37 0 64.5 -27t27.5 -65zM141 1577q0 -37 -27 -63.5t-65 -26.5q-37 0 -64.5 26.5t-27.5 63.5q0 38 27.5 65t64.5 27q38 0 65 -27t27 -65zM307 0h-164v1366h164v-1366z" />
    <glyph glyph-name="Eth" unicode="&#xd0;" horiz-adv-x="1202" 
d="M557 0h-364v616h-160v117h160v633h364q173 0 298.5 -90t188 -243t62.5 -351t-62.5 -351t-188 -242t-298.5 -89zM557 145q123 0 210 71t129 190.5t42 275.5q0 241 -98.5 391t-282.5 150h-201v-490h254v-117h-254v-471h201z" />
    <glyph glyph-name="Ntilde" unicode="&#xd1;" horiz-adv-x="1171" 
d="M684 1477q-36 0 -64 20t-44.5 48t-31 56t-32 48t-39.5 20q-36 0 -59 -45.5t-23 -134.5h-86q0 122 44.5 198t129.5 76q36 0 64 -19.5t44.5 -47.5t31 -56t32 -47.5t39.5 -19.5q36 0 59 44.5t23 133.5h86q0 -122 -44.5 -198t-129.5 -76zM1028 0h-158l-563 1018v-1018h-164
v1366h164l557 -997v997h164v-1366z" />
    <glyph glyph-name="Ograve" unicode="&#xd2;" horiz-adv-x="1226" 
d="M709 1481h-107l-274 295h149zM612 -25q-122 0 -220.5 55t-162.5 150.5t-98.5 224t-34.5 277.5t34.5 277.5t98.5 224t162.5 150.5t220.5 55t220.5 -55t163.5 -150.5t99.5 -224t34.5 -277.5t-34.5 -277.5t-99.5 -224t-163.5 -150.5t-220.5 -55zM612 121q110 0 191 76
t120.5 201.5t39.5 283.5q0 160 -39.5 285.5t-120.5 200.5t-191 75q-109 0 -189 -75t-119.5 -200.5t-39.5 -285.5q0 -158 39.5 -283.5t119.5 -201.5t189 -76z" />
    <glyph glyph-name="Oacute" unicode="&#xd3;" horiz-adv-x="1226" 
d="M899 1776l-274 -295h-107l232 295h149zM612 -25q-122 0 -220.5 55t-162.5 150.5t-98.5 224t-34.5 277.5t34.5 277.5t98.5 224t162.5 150.5t220.5 55t220.5 -55t163.5 -150.5t99.5 -224t34.5 -277.5t-34.5 -277.5t-99.5 -224t-163.5 -150.5t-220.5 -55zM612 121
q110 0 191 76t120.5 201.5t39.5 283.5q0 160 -39.5 285.5t-120.5 200.5t-191 75q-109 0 -189 -75t-119.5 -200.5t-39.5 -285.5q0 -158 39.5 -283.5t119.5 -201.5t189 -76z" />
    <glyph glyph-name="Ocircumflex" unicode="&#xd4;" horiz-adv-x="1226" 
d="M856 1481h-96l-146 215l-141 -215h-94l164 295h143zM612 -25q-122 0 -220.5 55t-162.5 150.5t-98.5 224t-34.5 277.5t34.5 277.5t98.5 224t162.5 150.5t220.5 55t220.5 -55t163.5 -150.5t99.5 -224t34.5 -277.5t-34.5 -277.5t-99.5 -224t-163.5 -150.5t-220.5 -55z
M612 121q110 0 191 76t120.5 201.5t39.5 283.5q0 160 -39.5 285.5t-120.5 200.5t-191 75q-109 0 -189 -75t-119.5 -200.5t-39.5 -285.5q0 -158 39.5 -283.5t119.5 -201.5t189 -76z" />
    <glyph glyph-name="Otilde" unicode="&#xd5;" horiz-adv-x="1226" 
d="M612 -25q-122 0 -220.5 55t-162.5 150.5t-98.5 224t-34.5 277.5t34.5 277.5t98.5 224t162.5 150.5t220.5 55t220.5 -55t163.5 -150.5t99.5 -224t34.5 -277.5t-34.5 -277.5t-99.5 -224t-163.5 -150.5t-220.5 -55zM612 121q110 0 191 76t120.5 201.5t39.5 283.5
q0 160 -39.5 285.5t-120.5 200.5t-191 75q-109 0 -189 -75t-119.5 -200.5t-39.5 -285.5q0 -158 39.5 -283.5t119.5 -201.5t189 -76zM717 1477q-36 0 -64 20t-44.5 48t-31 56t-32 48t-39.5 20q-36 0 -59 -45.5t-23 -134.5h-86q0 122 44.5 198t129.5 76q36 0 64 -19.5
t44.5 -47.5t31 -56t32 -47.5t39.5 -19.5q36 0 59 44.5t23 133.5h86q0 -122 -44.5 -198t-129.5 -76z" />
    <glyph glyph-name="Odieresis" unicode="&#xd6;" horiz-adv-x="1226" 
d="M883 1577q0 -37 -27.5 -63.5t-64.5 -26.5q-38 0 -65.5 26.5t-27.5 63.5q0 38 27.5 65t65.5 27q37 0 64.5 -27t27.5 -65zM526 1577q0 -37 -27 -63.5t-65 -26.5q-37 0 -64.5 26.5t-27.5 63.5q0 38 27.5 65t64.5 27q38 0 65 -27t27 -65zM612 -25q-122 0 -220.5 55
t-162.5 150.5t-98.5 224t-34.5 277.5t34.5 277.5t98.5 224t162.5 150.5t220.5 55t220.5 -55t163.5 -150.5t99.5 -224t34.5 -277.5t-34.5 -277.5t-99.5 -224t-163.5 -150.5t-220.5 -55zM612 121q110 0 191 76t120.5 201.5t39.5 283.5q0 160 -39.5 285.5t-120.5 200.5t-191 75
q-109 0 -189 -75t-119.5 -200.5t-39.5 -285.5q0 -158 39.5 -283.5t119.5 -201.5t189 -76z" />
    <glyph glyph-name="multiply" unicode="&#xd7;" horiz-adv-x="899" 
d="M711 348l-262 262l-261 -262l-75 74l262 262l-262 262l75 74l261 -262l262 262l73 -74l-262 -262l262 -262z" />
    <glyph glyph-name="Oslash" unicode="&#xd8;" horiz-adv-x="1226" 
d="M612 -25q-156 0 -276 93l-37 -68h-121l78 143q-78 96 -119 235.5t-41 303.5q0 149 34.5 277.5t98.5 224t162.5 150.5t220.5 55q155 0 273 -91l37 68h120l-77 -143q80 -97 122.5 -237t42.5 -304q0 -149 -34.5 -277.5t-99.5 -224t-163.5 -150.5t-220.5 -55zM612 121
q110 0 191 76t120.5 201.5t39.5 283.5q0 235 -84 385l-467 -860q83 -86 200 -86zM264 682q0 -229 78 -379l467 858q-85 82 -197 82q-109 0 -189 -75t-119.5 -200.5t-39.5 -285.5z" />
    <glyph glyph-name="Ugrave" unicode="&#xd9;" horiz-adv-x="1165" 
d="M582 -25q-207 0 -323 121.5t-116 345.5v924h164v-926q0 -157 71.5 -238t203.5 -81q133 0 204.5 81t71.5 238v926h162v-924q0 -225 -115 -346t-323 -121zM678 1481h-107l-274 295h149z" />
    <glyph glyph-name="Uacute" unicode="&#xda;" horiz-adv-x="1165" 
d="M868 1776l-274 -295h-107l232 295h149zM582 -25q-207 0 -323 121.5t-116 345.5v924h164v-926q0 -157 71.5 -238t203.5 -81q133 0 204.5 81t71.5 238v926h162v-924q0 -225 -115 -346t-323 -121z" />
    <glyph glyph-name="Ucircumflex" unicode="&#xdb;" horiz-adv-x="1165" 
d="M823 1481h-96l-145 215l-142 -215h-94l164 295h143zM582 -25q-207 0 -323 121.5t-116 345.5v924h164v-926q0 -157 71.5 -238t203.5 -81q133 0 204.5 81t71.5 238v926h162v-924q0 -225 -115 -346t-323 -121z" />
    <glyph glyph-name="Udieresis" unicode="&#xdc;" horiz-adv-x="1165" 
d="M854 1577q0 -37 -27.5 -63.5t-64.5 -26.5q-38 0 -65 26.5t-27 63.5q0 38 27 65t65 27q37 0 64.5 -27t27.5 -65zM498 1577q0 -37 -27 -63.5t-65 -26.5q-37 0 -65 27t-28 63q0 38 28 65t65 27q38 0 65 -27t27 -65zM582 -25q-207 0 -323 121.5t-116 345.5v924h164v-926
q0 -157 71.5 -238t203.5 -81q133 0 204.5 81t71.5 238v926h162v-924q0 -225 -115 -346t-323 -121z" />
    <glyph glyph-name="Yacute" unicode="&#xdd;" horiz-adv-x="1021" 
d="M592 0h-162v578l-422 788h182l322 -631l322 631h180l-422 -788v-578zM797 1776l-275 -295h-106l231 295h150z" />
    <glyph glyph-name="Thorn" unicode="&#xde;" horiz-adv-x="997" 
d="M307 0h-164v1366h164v-246h252q179 0 278 -118t99 -293q0 -173 -99.5 -290.5t-277.5 -117.5h-252v-301zM543 446q104 0 164.5 72t60.5 191t-60.5 193.5t-164.5 74.5h-236v-531h236z" />
    <glyph glyph-name="germandbls" unicode="&#xdf;" horiz-adv-x="1073" 
d="M1038 258q0 -119 -87 -201t-234 -82q-110 0 -183 36.5t-137 105.5l70 104q40 -52 101.5 -88.5t138.5 -36.5q83 0 133.5 45.5t50.5 114.5q0 46 -26 81t-67 58t-91.5 43.5t-100.5 45.5t-91 56t-67 82.5t-26 118.5q0 56 26 102.5t62.5 77.5t73 59.5t62.5 63t26 72.5
q0 61 -53.5 100t-126.5 39q-87 0 -144 -55.5t-57 -157.5v-1042h-146v1042q0 149 96 246.5t253 97.5q136 0 230.5 -72t94.5 -184q0 -51 -19 -93t-47 -69t-61 -54t-61 -48.5t-47 -52t-19 -65.5q0 -42 26 -74t68 -53.5t92.5 -41.5t100.5 -45.5t92 -59t68 -89t26 -127.5z" />
    <glyph glyph-name="agrave" unicode="&#xe0;" horiz-adv-x="923" 
d="M791 0h-148v106q-46 -65 -114 -98t-146 -33q-125 0 -212 90t-87 240t86 238t213 88q79 0 147.5 -31.5t112.5 -95.5v172q0 101 -53 156t-150 55q-140 0 -247 -121l-66 104q138 144 336 144q154 0 241 -79.5t87 -242.5v-692zM430 82q66 0 123 32.5t90 92.5v188
q-33 61 -90 94t-123 33q-90 0 -143.5 -62t-53.5 -157t53.5 -158t143.5 -63zM559 1139h-106l-275 295h150z" />
    <glyph glyph-name="aacute" unicode="&#xe1;" horiz-adv-x="923" 
d="M791 0h-148v106q-46 -65 -114 -98t-146 -33q-125 0 -212 90t-87 240t86 238t213 88q79 0 147.5 -31.5t112.5 -95.5v172q0 101 -53 156t-150 55q-140 0 -247 -121l-66 104q138 144 336 144q154 0 241 -79.5t87 -242.5v-692zM430 82q66 0 123 32.5t90 92.5v188
q-33 61 -90 94t-123 33q-90 0 -143.5 -62t-53.5 -157t53.5 -158t143.5 -63zM748 1434l-275 -295h-106l231 295h150z" />
    <glyph glyph-name="acircumflex" unicode="&#xe2;" horiz-adv-x="923" 
d="M791 0h-148v106q-46 -65 -114 -98t-146 -33q-125 0 -212 90t-87 240t86 238t213 88q79 0 147.5 -31.5t112.5 -95.5v172q0 101 -53 156t-150 55q-140 0 -247 -121l-66 104q138 144 336 144q154 0 241 -79.5t87 -242.5v-692zM430 82q66 0 123 32.5t90 92.5v188
q-33 61 -90 94t-123 33q-90 0 -143.5 -62t-53.5 -157t53.5 -158t143.5 -63zM707 1139h-97l-145 215l-141 -215h-95l164 295h144z" />
    <glyph glyph-name="atilde" unicode="&#xe3;" horiz-adv-x="923" 
d="M791 0h-148v106q-46 -65 -114 -98t-146 -33q-125 0 -212 90t-87 240t86 238t213 88q79 0 147.5 -31.5t112.5 -95.5v172q0 101 -53 156t-150 55q-140 0 -247 -121l-66 104q138 144 336 144q154 0 241 -79.5t87 -242.5v-692zM430 82q66 0 123 32.5t90 92.5v188
q-33 61 -90 94t-123 33q-90 0 -143.5 -62t-53.5 -157t53.5 -158t143.5 -63zM567 1135q-36 0 -64 20t-44.5 48t-31 56t-32 48t-39.5 20q-36 0 -59 -45.5t-23 -134.5h-86q0 122 44.5 198t129.5 76q36 0 64 -19.5t44.5 -47.5t31 -56t32 -47.5t39.5 -19.5q36 0 59 44.5t23 133.5
h86q0 -122 -44.5 -198t-129.5 -76z" />
    <glyph glyph-name="adieresis" unicode="&#xe4;" horiz-adv-x="923" 
d="M791 0h-148v106q-46 -65 -114 -98t-146 -33q-125 0 -212 90t-87 240t86 238t213 88q79 0 147.5 -31.5t112.5 -95.5v172q0 101 -53 156t-150 55q-140 0 -247 -121l-66 104q138 144 336 144q154 0 241 -79.5t87 -242.5v-692zM430 82q66 0 123 32.5t90 92.5v188
q-33 61 -90 94t-123 33q-90 0 -143.5 -62t-53.5 -157t53.5 -158t143.5 -63zM733 1235q0 -37 -27.5 -63.5t-64.5 -26.5q-38 0 -65 26.5t-27 63.5q0 38 27 65t65 27q37 0 64.5 -27t27.5 -65zM377 1235q0 -37 -27 -63.5t-65 -26.5q-37 0 -64.5 26.5t-27.5 63.5q0 38 27.5 65
t64.5 27q38 0 65 -27t27 -65z" />
    <glyph glyph-name="aring" unicode="&#xe5;" horiz-adv-x="923" 
d="M791 0h-148v106q-46 -65 -114 -98t-146 -33q-125 0 -212 90t-87 240t86 238t213 88q79 0 147.5 -31.5t112.5 -95.5v172q0 101 -53 156t-150 55q-140 0 -247 -121l-66 104q138 144 336 144q154 0 241 -79.5t87 -242.5v-692zM430 82q66 0 123 32.5t90 92.5v188
q-33 61 -90 94t-123 33q-90 0 -143.5 -62t-53.5 -157t53.5 -158t143.5 -63zM465 1114q-77 0 -131.5 55t-54.5 131q0 77 55 132t131 55t130 -55t54 -132t-54 -131.5t-130 -54.5zM465 1192q44 0 75 32t31 76q0 45 -31 77t-75 32t-76.5 -32.5t-32.5 -76.5t32.5 -76t76.5 -32z
" />
    <glyph glyph-name="ae" unicode="&#xe6;" horiz-adv-x="1507" 
d="M1427 446h-608q5 -154 75 -251t191 -97q62 0 122 32.5t102 90.5l77 -88q-129 -158 -311 -158q-220 0 -325 211q-43 -95 -129.5 -153t-200.5 -58q-149 0 -242.5 88t-93.5 240q0 150 88 239t223 89q83 0 156.5 -31.5t122.5 -93.5v170q0 101 -56 156t-159 55
q-151 0 -266 -121l-66 104q141 144 344 144q112 0 190 -51t99 -146q97 197 295 197q121 0 206.5 -72t125.5 -188.5t40 -264.5v-43zM817 555h465q0 61 -12.5 117.5t-38 107t-72 81t-108.5 30.5q-59 0 -105 -31.5t-72.5 -82.5t-40.5 -107.5t-16 -114.5zM674 356v39
q-37 62 -98 94.5t-132 32.5q-96 0 -153.5 -57.5t-57.5 -155.5q0 -99 57.5 -156t153.5 -57q99 0 164.5 76t65.5 184z" />
    <glyph glyph-name="ccedilla" unicode="&#xe7;" horiz-adv-x="831" 
d="M496 -387q-107 0 -183 61l37 76q63 -57 144 -57q45 0 77.5 23.5t32.5 62.5q0 32 -17.5 50.5t-49.5 18.5q-41 0 -68 -30l-66 37l46 125q-166 18 -264.5 162.5t-98.5 353.5q0 147 49 264t143 185.5t218 68.5q177 0 282 -131l-80 -101q-74 101 -190 101
q-127 0 -197.5 -110.5t-70.5 -276.5q0 -108 29.5 -195t91.5 -141t147 -54q114 0 190 101l80 -101q-93 -119 -243 -129l-33 -88q26 23 67 23q53 0 88 -37t35 -98q0 -73 -56 -118.5t-140 -45.5z" />
    <glyph glyph-name="egrave" unicode="&#xe8;" horiz-adv-x="958" 
d="M510 -25q-195 0 -309.5 145t-114.5 376q0 144 47.5 261t139.5 187t214 70q126 0 216 -71t133 -187t43 -264v-46h-641q5 -154 80 -251t204 -97q65 0 128 31.5t108 89.5l78 -86q-129 -158 -326 -158zM733 555q-1 61 -15 117.5t-42 107t-77.5 81t-113.5 30.5
q-62 0 -111 -31.5t-77 -82.5t-42.5 -107.5t-16.5 -114.5h495zM584 1139h-107l-274 295h149z" />
    <glyph glyph-name="eacute" unicode="&#xe9;" horiz-adv-x="958" 
d="M772 1434l-274 -295h-107l232 295h149zM510 -25q-195 0 -309.5 145t-114.5 376q0 144 47.5 261t139.5 187t214 70q126 0 216 -71t133 -187t43 -264v-46h-641q5 -154 80 -251t204 -97q65 0 128 31.5t108 89.5l78 -86q-129 -158 -326 -158zM733 555q-1 61 -15 117.5
t-42 107t-77.5 81t-113.5 30.5q-62 0 -111 -31.5t-77 -82.5t-42.5 -107.5t-16.5 -114.5h495z" />
    <glyph glyph-name="ecircumflex" unicode="&#xea;" horiz-adv-x="958" 
d="M729 1139h-96l-146 215l-141 -215h-94l164 295h143zM510 -25q-195 0 -309.5 145t-114.5 376q0 144 47.5 261t139.5 187t214 70q126 0 216 -71t133 -187t43 -264v-46h-641q5 -154 80 -251t204 -97q65 0 128 31.5t108 89.5l78 -86q-129 -158 -326 -158zM733 555
q-1 61 -15 117.5t-42 107t-77.5 81t-113.5 30.5q-62 0 -111 -31.5t-77 -82.5t-42.5 -107.5t-16.5 -114.5h495z" />
    <glyph glyph-name="edieresis" unicode="&#xeb;" horiz-adv-x="958" 
d="M758 1235q0 -37 -27.5 -63.5t-64.5 -26.5q-38 0 -65.5 26.5t-27.5 63.5q0 38 27.5 65t65.5 27q37 0 64.5 -27t27.5 -65zM401 1235q0 -37 -27 -63.5t-65 -26.5q-37 0 -64.5 26.5t-27.5 63.5q0 38 27.5 65t64.5 27q38 0 65 -27t27 -65zM510 -25q-195 0 -309.5 145
t-114.5 376q0 144 47.5 261t139.5 187t214 70q126 0 216 -71t133 -187t43 -264v-46h-641q5 -154 80 -251t204 -97q65 0 128 31.5t108 89.5l78 -86q-129 -158 -326 -158zM733 555q-1 61 -15 117.5t-42 107t-77.5 81t-113.5 30.5q-62 0 -111 -31.5t-77 -82.5t-42.5 -107.5
t-16.5 -114.5h495z" />
    <glyph glyph-name="igrave" unicode="&#xec;" horiz-adv-x="415" 
d="M281 0h-146v989h146v-989zM303 1139h-106l-275 295h150z" />
    <glyph glyph-name="iacute" unicode="&#xed;" horiz-adv-x="415" 
d="M494 1434l-275 -295h-106l231 295h150zM281 0h-146v989h146v-989z" />
    <glyph glyph-name="icircumflex" unicode="&#xee;" horiz-adv-x="415" 
d="M446 1139h-96l-145 215l-142 -215h-94l164 295h143zM281 0h-146v989h146v-989z" />
    <glyph glyph-name="idieresis" unicode="&#xef;" horiz-adv-x="415" 
d="M477 1235q0 -37 -27.5 -63.5t-64.5 -26.5q-38 0 -65 26.5t-27 63.5q0 38 27 65t65 27q37 0 64.5 -27t27.5 -65zM121 1235q0 -37 -27 -63.5t-65 -26.5q-37 0 -64.5 26.5t-27.5 63.5q0 38 27.5 65t64.5 27q38 0 65 -27t27 -65zM281 0h-146v989h146v-989z" />
    <glyph glyph-name="eth" unicode="&#xf0;" horiz-adv-x="976" 
d="M246 1034l-37 82l227 101q-71 71 -119 112l105 94q85 -78 145 -149l189 84l35 -80l-164 -74q264 -333 264 -690q0 -155 -44.5 -275t-137.5 -192t-222 -72q-126 0 -218.5 69.5t-137.5 183t-45 253.5q0 139 43 251.5t128 181.5t198 69q153 0 245 -154q-74 173 -202 318z
M487 106q83 0 141 54.5t83.5 137t25.5 183.5q0 99 -25.5 180.5t-83.5 136t-141 54.5q-81 0 -138.5 -54.5t-83 -136.5t-25.5 -180q0 -101 25.5 -183.5t83 -137t138.5 -54.5z" />
    <glyph glyph-name="ntilde" unicode="&#xf1;" 
d="M817 0h-147v705q0 95 -40.5 136.5t-117.5 41.5q-68 0 -131.5 -46t-99.5 -112v-725h-146v989h146v-141q46 69 123.5 117.5t162.5 48.5q250 0 250 -269v-745zM582 1135q-36 0 -64 20t-44.5 48t-31 56t-32 48t-39.5 20q-36 0 -59 -45.5t-23 -134.5h-86q0 122 44.5 198
t129.5 76q36 0 64 -19.5t44.5 -47.5t31 -56t32 -47.5t39.5 -19.5q36 0 59 44.5t23 133.5h86q0 -122 -44.5 -198t-129.5 -76z" />
    <glyph glyph-name="ograve" unicode="&#xf2;" horiz-adv-x="976" 
d="M487 -25q-126 0 -219 73t-137.5 189t-44.5 259q0 142 44.5 258t137 188t219.5 72q128 0 221.5 -72t138 -187.5t44.5 -258.5t-44.5 -259t-138 -189t-221.5 -73zM487 106q63 0 112 32.5t78.5 87.5t44.5 123.5t15 146.5q0 77 -15 145t-44.5 123t-78.5 87t-112 32
q-62 0 -110 -32t-77.5 -87t-44.5 -123t-15 -145q0 -105 25.5 -191t83 -142.5t138.5 -56.5zM586 1139h-107l-274 295h149z" />
    <glyph glyph-name="oacute" unicode="&#xf3;" horiz-adv-x="976" 
d="M774 1434l-274 -295h-107l232 295h149zM487 -25q-126 0 -219 73t-137.5 189t-44.5 259q0 142 44.5 258t137 188t219.5 72q128 0 221.5 -72t138 -187.5t44.5 -258.5t-44.5 -259t-138 -189t-221.5 -73zM487 106q63 0 112 32.5t78.5 87.5t44.5 123.5t15 146.5q0 77 -15 145
t-44.5 123t-78.5 87t-112 32q-62 0 -110 -32t-77.5 -87t-44.5 -123t-15 -145q0 -105 25.5 -191t83 -142.5t138.5 -56.5z" />
    <glyph glyph-name="ocircumflex" unicode="&#xf4;" horiz-adv-x="976" 
d="M729 1139h-96l-146 215l-141 -215h-94l164 295h143zM487 -25q-126 0 -219 73t-137.5 189t-44.5 259q0 142 44.5 258t137 188t219.5 72q128 0 221.5 -72t138 -187.5t44.5 -258.5t-44.5 -259t-138 -189t-221.5 -73zM487 106q63 0 112 32.5t78.5 87.5t44.5 123.5t15 146.5
q0 77 -15 145t-44.5 123t-78.5 87t-112 32q-62 0 -110 -32t-77.5 -87t-44.5 -123t-15 -145q0 -105 25.5 -191t83 -142.5t138.5 -56.5z" />
    <glyph glyph-name="otilde" unicode="&#xf5;" horiz-adv-x="976" 
d="M487 -25q-126 0 -219 73t-137.5 189t-44.5 259q0 142 44.5 258t137 188t219.5 72q128 0 221.5 -72t138 -187.5t44.5 -258.5t-44.5 -259t-138 -189t-221.5 -73zM487 106q63 0 112 32.5t78.5 87.5t44.5 123.5t15 146.5q0 77 -15 145t-44.5 123t-78.5 87t-112 32
q-62 0 -110 -32t-77.5 -87t-44.5 -123t-15 -145q0 -105 25.5 -191t83 -142.5t138.5 -56.5zM592 1135q-36 0 -64 20t-44.5 48t-31 56t-32 48t-39.5 20q-36 0 -59 -45.5t-23 -134.5h-86q0 122 44.5 198t129.5 76q36 0 64 -19.5t44.5 -47.5t31 -56t32 -47.5t39.5 -19.5
q36 0 59 44.5t23 133.5h86q0 -122 -44.5 -198t-129.5 -76z" />
    <glyph glyph-name="odieresis" unicode="&#xf6;" horiz-adv-x="976" 
d="M760 1235q0 -37 -27.5 -63.5t-64.5 -26.5q-38 0 -65.5 26.5t-27.5 63.5q0 38 27.5 65t65.5 27q37 0 64.5 -27t27.5 -65zM403 1235q0 -37 -27 -63.5t-65 -26.5q-37 0 -64.5 26.5t-27.5 63.5q0 38 27.5 65t64.5 27q38 0 65 -27t27 -65zM487 -25q-126 0 -219 73t-137.5 189
t-44.5 259q0 142 44.5 258t137 188t219.5 72q128 0 221.5 -72t138 -187.5t44.5 -258.5t-44.5 -259t-138 -189t-221.5 -73zM487 106q63 0 112 32.5t78.5 87.5t44.5 123.5t15 146.5q0 77 -15 145t-44.5 123t-78.5 87t-112 32q-62 0 -110 -32t-77.5 -87t-44.5 -123t-15 -145
q0 -105 25.5 -191t83 -142.5t138.5 -56.5z" />
    <glyph glyph-name="divide" unicode="&#xf7;" horiz-adv-x="907" 
d="M547 1028q0 -37 -27 -64.5t-65 -27.5t-65.5 27.5t-27.5 64.5q0 38 27.5 65t65.5 27t65 -27t27 -65zM848 639h-789v104h789v-104zM547 344q0 -38 -27 -65t-65 -27t-65.5 27t-27.5 65q0 37 27.5 64.5t65.5 27.5t65 -27.5t27 -64.5z" />
    <glyph glyph-name="oslash" unicode="&#xf8;" horiz-adv-x="976" 
d="M213 0h-100l80 123q-107 147 -107 373q0 142 44.5 258t137 188t219.5 72q136 0 232 -80l35 55h102l-78 -119q113 -144 113 -374q0 -143 -44.5 -259t-138 -189t-221.5 -73q-138 0 -235 84zM487 106q63 0 112 32.5t78.5 87.5t44.5 123.5t15 146.5q0 136 -47 239l-360 -555
q64 -74 157 -74zM240 496q0 -135 43 -236l358 555q-65 68 -154 68q-62 0 -110 -32t-77.5 -87t-44.5 -123t-15 -145z" />
    <glyph glyph-name="ugrave" unicode="&#xf9;" 
d="M817 0h-147v137q-48 -70 -124 -116t-163 -46q-126 0 -187 65t-61 200v749h146v-706q0 -94 40.5 -135.5t116.5 -41.5q71 0 134.5 44.5t97.5 109.5v729h147v-989zM571 1139h-106l-275 295h150z" />
    <glyph glyph-name="uacute" unicode="&#xfa;" 
d="M760 1434l-275 -295h-106l231 295h150zM817 0h-147v137q-48 -70 -124 -116t-163 -46q-126 0 -187 65t-61 200v749h146v-706q0 -94 40.5 -135.5t116.5 -41.5q71 0 134.5 44.5t97.5 109.5v729h147v-989z" />
    <glyph glyph-name="ucircumflex" unicode="&#xfb;" 
d="M715 1139h-97l-145 215l-141 -215h-94l163 295h144zM817 0h-147v137q-48 -70 -124 -116t-163 -46q-126 0 -187 65t-61 200v749h146v-706q0 -94 40.5 -135.5t116.5 -41.5q71 0 134.5 44.5t97.5 109.5v729h147v-989z" />
    <glyph glyph-name="udieresis" unicode="&#xfc;" 
d="M750 1235q0 -36 -28 -63t-65 -27q-38 0 -65 26.5t-27 63.5q0 38 27 65t65 27q37 0 65 -27t28 -65zM393 1235q0 -37 -27 -63.5t-65 -26.5q-37 0 -64.5 26.5t-27.5 63.5q0 38 27.5 65t64.5 27q38 0 65 -27t27 -65zM817 0h-147v137q-48 -70 -124 -116t-163 -46
q-126 0 -187 65t-61 200v749h146v-706q0 -94 40.5 -135.5t116.5 -41.5q71 0 134.5 44.5t97.5 109.5v729h147v-989z" />
    <glyph glyph-name="yacute" unicode="&#xfd;" horiz-adv-x="835" 
d="M84 -387l22 131q25 -14 66 -14q44 0 70.5 21.5t46.5 76.5l53 152l-330 1009h160l246 -811l248 811h157l-395 -1198q-36 -104 -95.5 -148t-150.5 -44q-58 0 -98 14zM702 1434l-274 -295h-106l231 295h149z" />
    <glyph glyph-name="thorn" unicode="&#xfe;" horiz-adv-x="978" 
d="M541 -25q-79 0 -147 41.5t-113 122.5v-516h-146v1743h146v-514q43 75 112 118.5t148 43.5q165 0 259.5 -141t94.5 -377q0 -235 -94.5 -378t-259.5 -143zM504 106q116 0 176.5 109.5t60.5 280.5q0 110 -25 195.5t-79.5 138.5t-132.5 53q-67 0 -130 -46.5t-93 -113.5v-453
q31 -67 93.5 -115.5t129.5 -48.5z" />
    <glyph glyph-name="ydieresis" unicode="&#xff;" horiz-adv-x="835" 
d="M84 -387l22 131q25 -14 66 -14q44 0 70.5 21.5t46.5 76.5l53 152l-330 1009h160l246 -811l248 811h157l-395 -1198q-36 -104 -95.5 -148t-150.5 -44q-58 0 -98 14zM690 1235q0 -37 -27.5 -63.5t-64.5 -26.5q-38 0 -65 26.5t-27 63.5q0 38 27 65t65 27q37 0 64.5 -27
t27.5 -65zM334 1235q0 -37 -27 -63.5t-65 -26.5q-37 0 -64.5 26.5t-27.5 63.5q0 38 27.5 65t64.5 27q38 0 65 -27t27 -65z" />
    <glyph glyph-name="Amacron" unicode="&#x100;" horiz-adv-x="1046" 
d="M1030 0h-176l-88 309h-485l-88 -309h-177l410 1366h195zM731 453l-209 733l-207 -733h416zM836 1516h-627v94h627v-94z" />
    <glyph glyph-name="amacron" unicode="&#x101;" horiz-adv-x="923" 
d="M791 0h-148v106q-46 -65 -114 -98t-146 -33q-125 0 -212 90t-87 240t86 238t213 88q79 0 147.5 -31.5t112.5 -95.5v172q0 101 -53 156t-150 55q-140 0 -247 -121l-66 104q138 144 336 144q154 0 241 -79.5t87 -242.5v-692zM430 82q66 0 123 32.5t90 92.5v188
q-33 61 -90 94t-123 33q-90 0 -143.5 -62t-53.5 -157t53.5 -158t143.5 -63zM776 1174h-626v94h626v-94z" />
    <glyph glyph-name="Abreve" unicode="&#x102;" horiz-adv-x="1046" 
d="M1030 0h-176l-88 309h-485l-88 -309h-177l410 1366h195zM731 453l-209 733l-207 -733h416zM825 1610q-54 -71 -132.5 -111.5t-168.5 -40.5q-91 0 -170 41t-133 111l76 61q37 -54 97 -85.5t130 -31.5q69 0 129 31.5t97 85.5z" />
    <glyph glyph-name="abreve" unicode="&#x103;" horiz-adv-x="923" 
d="M791 0h-148v106q-46 -65 -114 -98t-146 -33q-125 0 -212 90t-87 240t86 238t213 88q79 0 147.5 -31.5t112.5 -95.5v172q0 101 -53 156t-150 55q-140 0 -247 -121l-66 104q138 144 336 144q154 0 241 -79.5t87 -242.5v-692zM430 82q66 0 123 32.5t90 92.5v188
q-33 61 -90 94t-123 33q-90 0 -143.5 -62t-53.5 -157t53.5 -158t143.5 -63zM764 1268q-54 -71 -132.5 -111.5t-168.5 -40.5q-91 0 -170 41t-133 111l76 61q37 -54 97 -85.5t130 -31.5q69 0 128.5 31.5t96.5 85.5z" />
    <glyph glyph-name="Aogonek" unicode="&#x104;" horiz-adv-x="1046" 
d="M1047 -225l73 -41q-47 -115 -159 -115q-73 0 -118.5 42t-45.5 124q0 123 106 215h-49l-88 309h-485l-88 -309h-177l410 1366h195l409 -1366q-145 -84 -145 -211q0 -45 21 -68.5t55 -23.5q64 0 86 78zM731 453l-209 733l-207 -733h416z" />
    <glyph glyph-name="aogonek" unicode="&#x105;" horiz-adv-x="923" 
d="M807 -225l74 -41q-47 -115 -160 -115q-73 0 -118.5 42t-45.5 124q0 123 107 215h-21v106q-46 -65 -114 -98t-146 -33q-125 0 -212 90t-87 240t86 238t213 88q79 0 147.5 -31.5t112.5 -95.5v172q0 101 -53 156t-150 55q-140 0 -247 -121l-66 104q138 144 336 144
q154 0 241 -79.5t87 -242.5v-692q-146 -85 -146 -211q0 -45 21 -68.5t55 -23.5q64 0 86 78zM430 82q66 0 123 32.5t90 92.5v188q-33 61 -90 94t-123 33q-90 0 -143.5 -62t-53.5 -157t53.5 -158t143.5 -63z" />
    <glyph glyph-name="Cacute" unicode="&#x106;" horiz-adv-x="1091" 
d="M911 1776l-274 -295h-107l232 295h149zM627 -25q-160 0 -281.5 91.5t-185.5 251.5t-64 364q0 205 64 365t185.5 251t281.5 91q259 0 399 -267l-135 -63q-43 86 -110 135t-154 49q-108 0 -191.5 -72.5t-127.5 -200t-44 -288.5t44 -288.5t127.5 -200t191.5 -72.5
q90 0 158 55t108 148l137 -64q-31 -62 -66.5 -109.5t-83.5 -89t-112.5 -64t-140.5 -22.5z" />
    <glyph glyph-name="cacute" unicode="&#x107;" horiz-adv-x="831" 
d="M780 1434l-274 -295h-107l232 295h149zM496 -25q-186 0 -298 148t-112 373q0 147 49 264t143 185.5t218 68.5q177 0 282 -131l-80 -101q-74 101 -190 101q-127 0 -197.5 -110.5t-70.5 -276.5q0 -108 29.5 -195t91.5 -141t147 -54q114 0 190 101l80 -101
q-102 -131 -282 -131z" />
    <glyph glyph-name="Ccircumflex" unicode="&#x108;" horiz-adv-x="1091" 
d="M866 1481h-96l-145 215l-142 -215h-94l164 295h143zM627 -25q-160 0 -281.5 91.5t-185.5 251.5t-64 364q0 205 64 365t185.5 251t281.5 91q259 0 399 -267l-135 -63q-43 86 -110 135t-154 49q-108 0 -191.5 -72.5t-127.5 -200t-44 -288.5t44 -288.5t127.5 -200
t191.5 -72.5q90 0 158 55t108 148l137 -64q-31 -62 -66.5 -109.5t-83.5 -89t-112.5 -64t-140.5 -22.5z" />
    <glyph glyph-name="ccircumflex" unicode="&#x109;" horiz-adv-x="831" 
d="M737 1139h-96l-145 215l-142 -215h-94l164 295h143zM496 -25q-186 0 -298 148t-112 373q0 147 49 264t143 185.5t218 68.5q177 0 282 -131l-80 -101q-74 101 -190 101q-127 0 -197.5 -110.5t-70.5 -276.5q0 -108 29.5 -195t91.5 -141t147 -54q114 0 190 101l80 -101
q-102 -131 -282 -131z" />
    <glyph glyph-name="Cdotaccent" unicode="&#x10a;" horiz-adv-x="1091" 
d="M627 -25q-160 0 -281.5 91.5t-185.5 251.5t-64 364q0 205 64 365t185.5 251t281.5 91q259 0 399 -267l-135 -63q-43 86 -110 135t-154 49q-108 0 -191.5 -72.5t-127.5 -200t-44 -288.5t44 -288.5t127.5 -200t191.5 -72.5q90 0 158 55t108 148l137 -64
q-31 -62 -66.5 -109.5t-83.5 -89t-112.5 -64t-140.5 -22.5zM627 1481q-38 0 -66.5 27.5t-28.5 66.5q0 38 29 65t66 27q38 0 65 -27t27 -65q0 -40 -27 -67t-65 -27z" />
    <glyph glyph-name="cdotaccent" unicode="&#x10b;" horiz-adv-x="831" 
d="M496 -25q-186 0 -298 148t-112 373q0 147 49 264t143 185.5t218 68.5q177 0 282 -131l-80 -101q-74 101 -190 101q-127 0 -197.5 -110.5t-70.5 -276.5q0 -108 29.5 -195t91.5 -141t147 -54q114 0 190 101l80 -101q-102 -131 -282 -131zM500 1139q-37 0 -65.5 27.5
t-28.5 66.5q0 38 28.5 65t65.5 27q38 0 65 -27t27 -65q0 -40 -27 -67t-65 -27z" />
    <glyph glyph-name="Ccaron" unicode="&#x10c;" horiz-adv-x="1091" 
d="M702 1481h-143l-170 295h94l148 -217l139 217h96zM627 -25q-160 0 -281.5 91.5t-185.5 251.5t-64 364q0 205 64 365t185.5 251t281.5 91q259 0 399 -267l-135 -63q-43 86 -110 135t-154 49q-108 0 -191.5 -72.5t-127.5 -200t-44 -288.5t44 -288.5t127.5 -200t191.5 -72.5
q90 0 158 55t108 148l137 -64q-31 -62 -66.5 -109.5t-83.5 -89t-112.5 -64t-140.5 -22.5z" />
    <glyph glyph-name="ccaron" unicode="&#x10d;" horiz-adv-x="831" 
d="M573 1139h-143l-170 295h94l148 -217l139 217h96zM496 -25q-186 0 -298 148t-112 373q0 147 49 264t143 185.5t218 68.5q177 0 282 -131l-80 -101q-74 101 -190 101q-127 0 -197.5 -110.5t-70.5 -276.5q0 -108 29.5 -195t91.5 -141t147 -54q114 0 190 101l80 -101
q-102 -131 -282 -131z" />
    <glyph glyph-name="Dcaron" unicode="&#x10e;" horiz-adv-x="1155" 
d="M649 1481h-143l-170 295h94l148 -217l139 217h96zM508 0h-365v1366h365q173 0 298.5 -90t188 -243t62.5 -351t-62.5 -351t-188 -242t-298.5 -89zM508 145q123 0 210 71t129 190.5t42 275.5q0 241 -98.5 391t-282.5 150h-201v-1078h201z" />
    <glyph glyph-name="dcaron" unicode="&#x10f;" horiz-adv-x="1136" 
d="M1147 1257q0 -80 -41.5 -153.5t-104.5 -118.5l-63 51q46 33 79.5 83t37.5 95l-9 -1q-9 -1 -14 -1q-35 0 -59.5 24.5t-24.5 61.5q0 39 27 67t65 28q45 0 76 -37t31 -99zM848 0h-148v141q-43 -76 -113 -121t-147 -45q-164 0 -259 141.5t-95 377.5q0 234 94.5 377t259.5 143
q77 0 147 -43.5t113 -124.5v520h148v-1366zM477 106q69 0 131.5 46.5t91.5 113.5v455q-29 67 -92 114.5t-131 47.5q-116 0 -176.5 -109t-60.5 -280q0 -110 25 -195.5t79.5 -139t132.5 -53.5z" />
    <glyph glyph-name="Dcroat" unicode="&#x110;" horiz-adv-x="1202" 
d="M557 0h-364v616h-160v117h160v633h364q173 0 298.5 -90t188 -243t62.5 -351t-62.5 -351t-188 -242t-298.5 -89zM557 145q123 0 210 71t129 190.5t42 275.5q0 241 -98.5 391t-282.5 150h-201v-490h254v-117h-254v-471h201z" />
    <glyph glyph-name="dcroat" unicode="&#x111;" horiz-adv-x="991" 
d="M848 0h-148v141q-43 -76 -113 -121t-147 -45q-164 0 -259 141.5t-95 377.5q0 234 94.5 377t259.5 143q77 0 147 -43.5t113 -124.5v252h-282v94h282v174h148v-174h123v-94h-123v-1098zM477 106q69 0 131.5 46.5t91.5 113.5v455q-29 67 -92 114.5t-131 47.5
q-116 0 -176.5 -109t-60.5 -280q0 -110 25 -195.5t79.5 -139t132.5 -53.5z" />
    <glyph glyph-name="Emacron" unicode="&#x112;" horiz-adv-x="944" 
d="M846 0h-703v1366h703v-143h-539v-453h524v-143h-524v-482h539v-145zM809 1516h-627v94h627v-94z" />
    <glyph glyph-name="emacron" unicode="&#x113;" horiz-adv-x="958" 
d="M510 -25q-195 0 -309.5 145t-114.5 376q0 144 47.5 261t139.5 187t214 70q126 0 216 -71t133 -187t43 -264v-46h-641q5 -154 80 -251t204 -97q65 0 128 31.5t108 89.5l78 -86q-129 -158 -326 -158zM733 555q-1 61 -15 117.5t-42 107t-77.5 81t-113.5 30.5
q-62 0 -111 -31.5t-77 -82.5t-42.5 -107.5t-16.5 -114.5h495zM801 1174h-627v94h627v-94z" />
    <glyph glyph-name="Ebreve" unicode="&#x114;" horiz-adv-x="944" 
d="M846 0h-703v1366h703v-143h-539v-453h524v-143h-524v-482h539v-145zM801 1610q-54 -71 -132.5 -111.5t-168.5 -40.5q-91 0 -170 41t-133 111l75 61q37 -54 97.5 -85.5t130.5 -31.5q69 0 128.5 31.5t96.5 85.5z" />
    <glyph glyph-name="ebreve" unicode="&#x115;" horiz-adv-x="958" 
d="M510 -25q-195 0 -309.5 145t-114.5 376q0 144 47.5 261t139.5 187t214 70q126 0 216 -71t133 -187t43 -264v-46h-641q5 -154 80 -251t204 -97q65 0 128 31.5t108 89.5l78 -86q-129 -158 -326 -158zM733 555q-1 61 -15 117.5t-42 107t-77.5 81t-113.5 30.5
q-62 0 -111 -31.5t-77 -82.5t-42.5 -107.5t-16.5 -114.5h495zM793 1268q-54 -71 -132.5 -111.5t-168.5 -40.5q-91 0 -170.5 41t-133.5 111l76 61q37 -54 97.5 -85.5t130.5 -31.5q69 0 128.5 31.5t96.5 85.5z" />
    <glyph glyph-name="Edotaccent" unicode="&#x116;" horiz-adv-x="944" 
d="M846 0h-703v1366h703v-143h-539v-453h524v-143h-524v-482h539v-145zM506 1481q-37 0 -65.5 27.5t-28.5 66.5q0 38 28.5 65t65.5 27q38 0 65 -27t27 -65q0 -40 -27 -67t-65 -27z" />
    <glyph glyph-name="edotaccent" unicode="&#x117;" horiz-adv-x="958" 
d="M510 -25q-195 0 -309.5 145t-114.5 376q0 144 47.5 261t139.5 187t214 70q126 0 216 -71t133 -187t43 -264v-46h-641q5 -154 80 -251t204 -97q65 0 128 31.5t108 89.5l78 -86q-129 -158 -326 -158zM733 555q-1 61 -15 117.5t-42 107t-77.5 81t-113.5 30.5
q-62 0 -111 -31.5t-77 -82.5t-42.5 -107.5t-16.5 -114.5h495zM489 1139q-37 0 -65.5 27.5t-28.5 66.5q0 38 28.5 65t65.5 27q38 0 65.5 -27t27.5 -65q0 -39 -27 -66.5t-66 -27.5z" />
    <glyph glyph-name="Eogonek" unicode="&#x118;" horiz-adv-x="944" 
d="M846 0q-146 -85 -146 -211q0 -45 21 -68.5t55 -23.5q64 0 86 78l74 -41q-47 -115 -160 -115q-73 0 -118.5 42t-45.5 124q0 123 107 215h-576v1366h703v-143h-539v-453h524v-143h-524v-482h539v-145z" />
    <glyph glyph-name="eogonek" unicode="&#x119;" horiz-adv-x="958" 
d="M670 -225l73 -41q-47 -115 -159 -115q-73 0 -118.5 42t-45.5 124q0 105 82 190q-192 3 -304 147t-112 374q0 144 47.5 261t139.5 187t214 70q126 0 216 -71t133 -187t43 -264v-46h-641q5 -154 80 -251t204 -97q65 0 128 31.5t108 89.5l78 -86q-74 -92 -183 -133
q-145 -84 -145 -211q0 -45 21 -68.5t55 -23.5q64 0 86 78zM733 555q-1 61 -15 117.5t-42 107t-77.5 81t-113.5 30.5q-62 0 -111 -31.5t-77 -82.5t-42.5 -107.5t-16.5 -114.5h495z" />
    <glyph glyph-name="Ecaron" unicode="&#x11a;" horiz-adv-x="944" 
d="M569 1481h-143l-170 295h94l148 -217l139 217h96zM846 0h-703v1366h703v-143h-539v-453h524v-143h-524v-482h539v-145z" />
    <glyph glyph-name="ecaron" unicode="&#x11b;" horiz-adv-x="958" 
d="M563 1139h-143l-170 295h94l148 -217l139 217h96zM510 -25q-195 0 -309.5 145t-114.5 376q0 144 47.5 261t139.5 187t214 70q126 0 216 -71t133 -187t43 -264v-46h-641q5 -154 80 -251t204 -97q65 0 128 31.5t108 89.5l78 -86q-129 -158 -326 -158zM733 555
q-1 61 -15 117.5t-42 107t-77.5 81t-113.5 30.5q-62 0 -111 -31.5t-77 -82.5t-42.5 -107.5t-16.5 -114.5h495z" />
    <glyph glyph-name="Gcircumflex" unicode="&#x11c;" horiz-adv-x="1150" 
d="M870 1481h-96l-145 215l-142 -215h-94l164 295h143zM627 -27q-158 0 -278.5 89t-186.5 250t-66 370q0 317 146 512t385 195q262 0 405 -259l-131 -67q-45 84 -114.5 132t-159.5 48q-164 0 -263.5 -155t-99.5 -406q0 -250 99.5 -405.5t263.5 -155.5q81 0 148 33t108 82
v319h-326v143h481v-524q-161 -201 -411 -201z" />
    <glyph glyph-name="gcircumflex" unicode="&#x11d;" horiz-adv-x="980" 
d="M733 1139h-96l-145 215l-142 -215h-94l164 295h143zM457 -401q-104 0 -183 28.5t-147 96.5l68 114q99 -114 258 -114q109 0 178 66.5t69 201.5v166q-44 -77 -113.5 -123.5t-146.5 -46.5q-165 0 -259.5 138.5t-94.5 373.5q0 233 94.5 373.5t259.5 140.5q77 0 146 -43.5
t114 -124.5v143h148v-987q0 -89 -21 -159t-56.5 -115t-86.5 -74.5t-106.5 -42t-120.5 -12.5zM477 119q68 0 131 48.5t92 115.5v438q-29 67 -92 114.5t-131 47.5q-116 0 -176.5 -107t-60.5 -276t60.5 -275t176.5 -106z" />
    <glyph glyph-name="Gbreve" unicode="&#x11e;" horiz-adv-x="1150" 
d="M627 -27q-158 0 -278.5 89t-186.5 250t-66 370q0 317 146 512t385 195q262 0 405 -259l-131 -67q-45 84 -114.5 132t-159.5 48q-164 0 -263.5 -155t-99.5 -406q0 -250 99.5 -405.5t263.5 -155.5q81 0 148 33t108 82v319h-326v143h481v-524q-161 -201 -411 -201zM932 1610
q-54 -71 -132.5 -111.5t-168.5 -40.5q-91 0 -170 41t-133 111l75 61q37 -54 97.5 -85.5t130.5 -31.5q69 0 128.5 31.5t96.5 85.5z" />
    <glyph glyph-name="gbreve" unicode="&#x11f;" horiz-adv-x="980" 
d="M457 -401q-104 0 -183 28.5t-147 96.5l68 114q99 -114 258 -114q109 0 178 66.5t69 201.5v166q-44 -77 -113.5 -123.5t-146.5 -46.5q-165 0 -259.5 138.5t-94.5 373.5q0 233 94.5 373.5t259.5 140.5q77 0 146 -43.5t114 -124.5v143h148v-987q0 -89 -21 -159t-56.5 -115
t-86.5 -74.5t-106.5 -42t-120.5 -12.5zM477 119q68 0 131 48.5t92 115.5v438q-29 67 -92 114.5t-131 47.5q-116 0 -176.5 -107t-60.5 -276t60.5 -275t176.5 -106zM795 1268q-54 -71 -132.5 -111.5t-168.5 -40.5q-91 0 -170.5 41t-133.5 111l76 61q37 -54 97.5 -85.5
t130.5 -31.5q69 0 128.5 31.5t96.5 85.5z" />
    <glyph glyph-name="Gdotaccent" unicode="&#x120;" horiz-adv-x="1150" 
d="M627 -27q-158 0 -278.5 89t-186.5 250t-66 370q0 317 146 512t385 195q262 0 405 -259l-131 -67q-45 84 -114.5 132t-159.5 48q-164 0 -263.5 -155t-99.5 -406q0 -250 99.5 -405.5t263.5 -155.5q81 0 148 33t108 82v319h-326v143h481v-524q-161 -201 -411 -201zM629 1481
q-37 0 -65.5 27.5t-28.5 66.5q0 38 28.5 65t65.5 27q38 0 65 -27t27 -65q0 -40 -27 -67t-65 -27z" />
    <glyph glyph-name="gdotaccent" unicode="&#x121;" horiz-adv-x="980" 
d="M457 -401q-104 0 -183 28.5t-147 96.5l68 114q99 -114 258 -114q109 0 178 66.5t69 201.5v166q-44 -77 -113.5 -123.5t-146.5 -46.5q-165 0 -259.5 138.5t-94.5 373.5q0 233 94.5 373.5t259.5 140.5q77 0 146 -43.5t114 -124.5v143h148v-987q0 -89 -21 -159t-56.5 -115
t-86.5 -74.5t-106.5 -42t-120.5 -12.5zM477 119q68 0 131 48.5t92 115.5v438q-29 67 -92 114.5t-131 47.5q-116 0 -176.5 -107t-60.5 -276t60.5 -275t176.5 -106zM492 1139q-38 0 -66.5 27.5t-28.5 66.5q0 38 29 65t66 27q38 0 65 -27t27 -65q0 -40 -27 -67t-65 -27z" />
    <glyph glyph-name="Gcommaaccent" unicode="&#x122;" horiz-adv-x="1150" 
d="M729 -283q0 -80 -41 -153.5t-104 -118.5l-64 51q46 33 79.5 83t37.5 95l-9 -1q-9 -1 -14 -1q-35 0 -59.5 24.5t-24.5 61.5q0 38 27.5 66.5t65.5 28.5q45 0 75.5 -37t30.5 -99zM627 -27q-158 0 -278.5 89t-186.5 250t-66 370q0 317 146 512t385 195q262 0 405 -259
l-131 -67q-45 84 -114.5 132t-159.5 48q-164 0 -263.5 -155t-99.5 -406q0 -250 99.5 -405.5t263.5 -155.5q81 0 148 33t108 82v319h-326v143h481v-524q-161 -201 -411 -201z" />
    <glyph glyph-name="gcommaaccent" unicode="&#x123;" horiz-adv-x="980" 
d="M389 1251q0 87 40.5 166t100.5 121l66 -53q-46 -30 -80 -79.5t-37 -94.5q1 0 4.5 1t5.5 1q35 0 64 -26.5t29 -63.5t-28 -65t-67 -28t-68.5 31t-29.5 90zM457 -401q-104 0 -183 28.5t-147 96.5l68 114q99 -114 258 -114q109 0 178 66.5t69 201.5v166
q-44 -77 -113.5 -123.5t-146.5 -46.5q-165 0 -259.5 138.5t-94.5 373.5q0 233 94.5 373.5t259.5 140.5q77 0 146 -43.5t114 -124.5v143h148v-987q0 -89 -21 -159t-56.5 -115t-86.5 -74.5t-106.5 -42t-120.5 -12.5zM477 119q68 0 131 48.5t92 115.5v438q-29 67 -92 114.5
t-131 47.5q-116 0 -176.5 -107t-60.5 -276t60.5 -275t176.5 -106z" />
    <glyph glyph-name="Hcircumflex" unicode="&#x124;" horiz-adv-x="1175" 
d="M823 1481h-96l-145 215l-142 -215h-94l164 295h143zM1032 0h-164v631h-561v-631h-164v1366h164v-592h561v592h164v-1366z" />
    <glyph glyph-name="hcircumflex" unicode="&#x125;" 
d="M717 1481h-96l-146 215l-141 -215h-94l163 295h144zM817 0h-145v707q0 94 -41 135t-119 41q-68 0 -131.5 -46t-99.5 -112v-725h-146v1366h146v-518q46 69 124.5 117.5t163.5 48.5q126 0 187 -64.5t61 -199.5v-750z" />
    <glyph glyph-name="Hbar" unicode="&#x126;" horiz-adv-x="1239" 
d="M1065 0h-164v631h-561v-631h-164v1024h-143v94h143v248h164v-248h561v248h164v-248h127v-94h-127v-1024zM340 774h561v250h-561v-250z" />
    <glyph glyph-name="hbar" unicode="&#x127;" horiz-adv-x="968" 
d="M584 1098h-287v-250q46 69 125 117.5t164 48.5q126 0 187 -64.5t61 -199.5v-750h-146v707q0 94 -41 135t-119 41q-68 0 -131.5 -46t-99.5 -112v-725h-145v1098h-121v94h121v174h145v-174h287v-94z" />
    <glyph glyph-name="Itilde" unicode="&#x128;" horiz-adv-x="450" 
d="M307 0h-164v1366h164v-1366zM330 1477q-36 0 -64 20t-44.5 48t-31 56t-32 48t-39.5 20q-36 0 -59 -45.5t-23 -134.5h-86q0 122 44.5 198t129.5 76q36 0 64 -19.5t44.5 -47.5t31 -56t32 -47.5t39.5 -19.5q36 0 59 44.5t23 133.5h86q0 -122 -44.5 -198t-129.5 -76z" />
    <glyph glyph-name="itilde" unicode="&#x129;" horiz-adv-x="415" 
d="M281 0h-146v989h146v-989zM311 1135q-36 0 -64 20t-44.5 48t-31 56t-32 48t-39.5 20q-36 0 -59 -45.5t-23 -134.5h-86q0 122 44.5 198t129.5 76q36 0 64 -19.5t44.5 -47.5t31 -56t32 -47.5t39.5 -19.5q36 0 59 44.5t23 133.5h86q0 -122 -44.5 -198t-129.5 -76z" />
    <glyph glyph-name="Imacron" unicode="&#x12a;" horiz-adv-x="450" 
d="M307 0h-164v1366h164v-1366zM539 1516h-627v94h627v-94z" />
    <glyph glyph-name="imacron" unicode="&#x12b;" horiz-adv-x="415" 
d="M281 0h-146v989h146v-989zM522 1174h-626v94h626v-94z" />
    <glyph glyph-name="Ibreve" unicode="&#x12c;" horiz-adv-x="450" 
d="M307 0h-164v1366h164v-1366zM528 1610q-54 -71 -132.5 -111.5t-168.5 -40.5q-91 0 -170 41t-133 111l76 61q37 -54 97 -85.5t130 -31.5q69 0 129 31.5t97 85.5z" />
    <glyph glyph-name="ibreve" unicode="&#x12d;" horiz-adv-x="415" 
d="M281 0h-146v989h146v-989zM510 1268q-54 -71 -132.5 -111.5t-168.5 -40.5q-91 0 -170 41t-133 111l76 61q37 -54 97 -85.5t130 -31.5q69 0 128.5 31.5t96.5 85.5z" />
    <glyph glyph-name="Iogonek" unicode="&#x12e;" horiz-adv-x="450" 
d="M322 -225l73 -41q-47 -115 -159 -115q-73 0 -118.5 42t-45.5 124q0 123 106 215h-35v1366h164v-1366h-2q-145 -84 -145 -211q0 -45 21 -68.5t55 -23.5q64 0 86 78z" />
    <glyph glyph-name="iogonek" unicode="&#x12f;" horiz-adv-x="415" 
d="M297 -225l74 -41q-47 -115 -160 -115q-73 0 -118.5 42t-45.5 124q0 123 107 215h-19v989h146v-989q-146 -85 -146 -211q0 -45 21 -68.5t55 -23.5q64 0 86 78zM207 1133q-40 0 -70.5 29.5t-30.5 70.5t30.5 70.5t70.5 29.5q41 0 70.5 -29.5t29.5 -70.5t-29.5 -70.5
t-70.5 -29.5z" />
    <glyph glyph-name="Idotaccent" unicode="&#x130;" horiz-adv-x="450" 
d="M307 0h-164v1366h164v-1366zM227 1481q-37 0 -65.5 27.5t-28.5 66.5q0 38 28.5 65t65.5 27q38 0 65 -27t27 -65q0 -40 -27 -67t-65 -27z" />
    <glyph glyph-name="dotlessi" unicode="&#x131;" horiz-adv-x="415" 
d="M281 0h-146v989h146v-989z" />
    <glyph glyph-name="IJ" unicode="&#x132;" horiz-adv-x="1265" 
d="M307 0h-164v1366h164v-1366zM756 -25q-176 0 -287 125l74 127q86 -106 200 -106q102 0 160 61t58 172v1012h161v-1016q0 -186 -100 -280.5t-266 -94.5z" />
    <glyph glyph-name="ij" unicode="&#x133;" horiz-adv-x="831" 
d="M207 1133q-40 0 -70.5 29.5t-30.5 70.5t30.5 70.5t70.5 29.5q41 0 70.5 -29.5t29.5 -70.5t-29.5 -70.5t-70.5 -29.5zM281 0h-146v989h146v-989zM623 1133q-40 0 -70.5 29.5t-30.5 70.5t30.5 70.5t70.5 29.5q41 0 70.5 -29.5t29.5 -70.5t-29.5 -70.5t-70.5 -29.5z
M451 -401q-105 0 -168 69l53 109q43 -53 100 -53q115 0 115 155v1110h145v-1110q0 -280 -245 -280z" />
    <glyph glyph-name="Jcircumflex" unicode="&#x134;" horiz-adv-x="815" 
d="M829 1481h-96l-145 215l-142 -215h-94l164 295h143zM305 -25q-176 0 -287 125l74 127q86 -106 201 -106q102 0 159.5 60.5t57.5 172.5v1012h162v-1016q0 -186 -100.5 -280.5t-266.5 -94.5z" />
    <glyph glyph-name="jcircumflex" unicode="&#x135;" horiz-adv-x="415" 
d="M451 1139h-97l-145 215l-141 -215h-95l164 295h144zM35 -401q-105 0 -168 69l53 109q43 -53 100 -53q115 0 115 155v1110h146v-1110q0 -280 -246 -280z" />
    <glyph glyph-name="Kcommaaccent" unicode="&#x136;" horiz-adv-x="1048" 
d="M639 -283q0 -80 -41 -153.5t-104 -118.5l-64 51q46 33 79.5 83t37.5 95l-9 -1q-9 -1 -14 -1q-35 0 -59.5 24.5t-24.5 61.5q0 39 27 67t65 28q45 0 76 -37t31 -99zM1016 0h-197l-399 602l-113 -164v-438h-164v1366h164v-709l477 709h193l-457 -649z" />
    <glyph glyph-name="kcommaaccent" unicode="&#x137;" horiz-adv-x="897" 
d="M563 -283q0 -80 -41 -153.5t-104 -118.5l-64 51q46 33 79.5 83t37.5 95l-9 -1q-8 -1 -13 -1q-35 0 -59.5 24.5t-24.5 61.5q0 39 27 67t65 28q45 0 75.5 -37t30.5 -99zM866 0h-174l-272 446l-139 -178v-268h-146v1366h146v-913l411 536h174l-346 -444z" />
    <glyph glyph-name="kgreenlandic" unicode="&#x138;" horiz-adv-x="897" 
d="M866 0h-174l-272 446l-139 -178v-268h-146v989h146v-536l411 536h174l-346 -444z" />
    <glyph glyph-name="Lacute" unicode="&#x139;" horiz-adv-x="862" 
d="M758 1776l-275 -295h-106l231 295h150zM801 0h-658v1366h164v-1221h494v-145z" />
    <glyph glyph-name="lacute" unicode="&#x13a;" horiz-adv-x="415" 
d="M494 1776l-275 -295h-106l231 295h150zM281 0h-146v1366h146v-1366z" />
    <glyph glyph-name="Lcommaaccent" unicode="&#x13b;" horiz-adv-x="862" 
d="M561 -283q0 -80 -41 -153.5t-104 -118.5l-64 51q46 33 79.5 83t37.5 95l-9 -1q-9 -1 -14 -1q-35 0 -59.5 24.5t-24.5 61.5q0 38 27.5 66.5t65.5 28.5q45 0 75.5 -37t30.5 -99zM801 0h-658v1366h164v-1221h494v-145z" />
    <glyph glyph-name="lcommaaccent" unicode="&#x13c;" horiz-adv-x="415" 
d="M324 -283q0 -80 -41.5 -153.5t-104.5 -118.5l-63 51q46 32 79 82t37 96l-9 -1q-8 -1 -13 -1q-35 0 -59.5 24.5t-24.5 61.5q0 39 27 67t65 28q45 0 76 -37t31 -99zM281 0h-146v1366h146v-1366z" />
    <glyph glyph-name="Lcaron" unicode="&#x13d;" horiz-adv-x="862" 
d="M657 1257q0 -80 -41 -153.5t-104 -118.5l-63 51q46 32 79 82t37 96l-9 -1q-8 -1 -13 -1q-35 0 -59.5 24.5t-24.5 61.5q0 39 27 67t65 28q45 0 75.5 -37t30.5 -99zM801 0h-658v1366h164v-1221h494v-145z" />
    <glyph glyph-name="lcaron" unicode="&#x13e;" horiz-adv-x="565" 
d="M608 1257q0 -80 -41 -153.5t-104 -118.5l-64 51q46 33 79.5 83t37.5 95l-8 -1q-9 -1 -14 -1q-35 0 -59.5 24.5t-24.5 61.5q0 39 27 67t65 28q45 0 75.5 -37t30.5 -99zM281 0h-146v1366h146v-1366z" />
    <glyph glyph-name="Ldot" unicode="&#x13f;" horiz-adv-x="892" 
d="M801 0h-658v1366h164v-1221h494v-145zM776 700q0 -44 -33 -77t-77 -33t-76.5 33t-32.5 77q0 43 32.5 76t76.5 33t77 -33t33 -76z" />
    <glyph glyph-name="ldot" unicode="&#x140;" horiz-adv-x="608" 
d="M281 0h-146v1366h146v-1366zM623 502q0 -44 -33.5 -77.5t-77.5 -33.5t-76.5 33.5t-32.5 77.5q0 43 32.5 75.5t76.5 32.5t77.5 -32.5t33.5 -75.5z" />
    <glyph glyph-name="Lslash" unicode="&#x141;" horiz-adv-x="897" 
d="M33 479v142l143 84v661h164v-567l160 94v-143l-160 -93v-512h494v-145h-658v561z" />
    <glyph glyph-name="lslash" unicode="&#x142;" horiz-adv-x="520" 
d="M33 502v119l155 88v657h146v-573l153 88v-119l-153 -88v-674h-146v590z" />
    <glyph glyph-name="Nacute" unicode="&#x143;" horiz-adv-x="1171" 
d="M879 1776l-275 -295h-106l231 295h150zM1028 0h-158l-563 1018v-1018h-164v1366h164l557 -997v997h164v-1366z" />
    <glyph glyph-name="nacute" unicode="&#x144;" 
d="M760 1434l-275 -295h-106l231 295h150zM817 0h-147v705q0 95 -40.5 136.5t-117.5 41.5q-68 0 -131.5 -46t-99.5 -112v-725h-146v989h146v-141q46 69 123.5 117.5t162.5 48.5q250 0 250 -269v-745z" />
    <glyph glyph-name="Ncommaaccent" unicode="&#x145;" horiz-adv-x="1171" 
d="M700 -283q0 -80 -41 -153.5t-104 -118.5l-63 51q46 32 79 82t37 96l-8 -1q-9 -1 -14 -1q-35 0 -59.5 24.5t-24.5 61.5q0 39 27 67t65 28q45 0 75.5 -37t30.5 -99zM1028 0h-158l-563 1018v-1018h-164v1366h164l557 -997v997h164v-1366z" />
    <glyph glyph-name="ncommaaccent" unicode="&#x146;" 
d="M588 -283q0 -80 -41.5 -153.5t-104.5 -118.5l-63 51q46 33 79.5 83t37.5 95l-9 -1q-9 -1 -14 -1q-35 0 -59.5 24.5t-24.5 61.5q0 39 27 67t65 28q45 0 76 -37t31 -99zM817 0h-147v705q0 95 -40.5 136.5t-117.5 41.5q-68 0 -131.5 -46t-99.5 -112v-725h-146v989h146v-141
q46 69 123.5 117.5t162.5 48.5q250 0 250 -269v-745z" />
    <glyph glyph-name="Ncaron" unicode="&#x147;" horiz-adv-x="1171" 
d="M659 1481h-143l-170 295h94l148 -217l139 217h96zM1028 0h-158l-563 1018v-1018h-164v1366h164l557 -997v997h164v-1366z" />
    <glyph glyph-name="ncaron" unicode="&#x148;" 
d="M551 1139h-143l-170 295h94l147 -217l139 217h97zM817 0h-147v705q0 95 -40.5 136.5t-117.5 41.5q-68 0 -131.5 -46t-99.5 -112v-725h-146v989h146v-141q46 69 123.5 117.5t162.5 48.5q250 0 250 -269v-745z" />
    <glyph glyph-name="napostrophe" unicode="&#x149;" 
d="M309 1384q0 -80 -41 -153.5t-104 -118.5l-64 51q46 33 79.5 83t37.5 95l-9 -1q-8 -1 -13 -1q-35 0 -59.5 24.5t-24.5 61.5q0 39 27 67t65 28q45 0 75.5 -37t30.5 -99zM817 0h-147v705q0 95 -40.5 136.5t-117.5 41.5q-68 0 -131.5 -46t-99.5 -112v-725h-146v989h146v-141
q46 69 123.5 117.5t162.5 48.5q250 0 250 -269v-745z" />
    <glyph glyph-name="Eng" unicode="&#x14a;" horiz-adv-x="1171" 
d="M662 -401q-176 0 -287 125l74 124q82 -106 200 -106q101 0 158 61t57 172v35l-557 1032v-1042h-164v1366h164l557 -1022v1022h164v-1395q0 -186 -100 -279t-266 -93z" />
    <glyph glyph-name="eng" unicode="&#x14b;" 
d="M817 745v-866q0 -280 -246 -280q-57 0 -95 16.5t-73 52.5l54 113q41 -51 100 -51q113 0 113 149v826q0 95 -40.5 136.5t-117.5 41.5q-68 0 -131.5 -46t-99.5 -112v-725h-146v989h146v-141q46 69 123.5 117.5t162.5 48.5q250 0 250 -269z" />
    <glyph glyph-name="Omacron" unicode="&#x14c;" horiz-adv-x="1226" 
d="M926 1516h-627v94h627v-94zM612 -25q-122 0 -220.5 55t-162.5 150.5t-98.5 224t-34.5 277.5t34.5 277.5t98.5 224t162.5 150.5t220.5 55t220.5 -55t163.5 -150.5t99.5 -224t34.5 -277.5t-34.5 -277.5t-99.5 -224t-163.5 -150.5t-220.5 -55zM612 121q110 0 191 76
t120.5 201.5t39.5 283.5q0 160 -39.5 285.5t-120.5 200.5t-191 75q-109 0 -189 -75t-119.5 -200.5t-39.5 -285.5q0 -158 39.5 -283.5t119.5 -201.5t189 -76z" />
    <glyph glyph-name="omacron" unicode="&#x14d;" horiz-adv-x="976" 
d="M803 1174h-627v94h627v-94zM487 -25q-126 0 -219 73t-137.5 189t-44.5 259q0 142 44.5 258t137 188t219.5 72q128 0 221.5 -72t138 -187.5t44.5 -258.5t-44.5 -259t-138 -189t-221.5 -73zM487 106q63 0 112 32.5t78.5 87.5t44.5 123.5t15 146.5q0 77 -15 145t-44.5 123
t-78.5 87t-112 32q-62 0 -110 -32t-77.5 -87t-44.5 -123t-15 -145q0 -105 25.5 -191t83 -142.5t138.5 -56.5z" />
    <glyph glyph-name="Obreve" unicode="&#x14e;" horiz-adv-x="1226" 
d="M612 -25q-122 0 -220.5 55t-162.5 150.5t-98.5 224t-34.5 277.5t34.5 277.5t98.5 224t162.5 150.5t220.5 55t220.5 -55t163.5 -150.5t99.5 -224t34.5 -277.5t-34.5 -277.5t-99.5 -224t-163.5 -150.5t-220.5 -55zM612 121q110 0 191 76t120.5 201.5t39.5 283.5
q0 160 -39.5 285.5t-120.5 200.5t-191 75q-109 0 -189 -75t-119.5 -200.5t-39.5 -285.5q0 -158 39.5 -283.5t119.5 -201.5t189 -76zM915 1610q-54 -71 -132.5 -111.5t-168.5 -40.5q-91 0 -170 41t-133 111l76 61q37 -54 97 -85.5t130 -31.5q69 0 129 31.5t97 85.5z" />
    <glyph glyph-name="obreve" unicode="&#x14f;" horiz-adv-x="976" 
d="M487 -25q-126 0 -219 73t-137.5 189t-44.5 259q0 142 44.5 258t137 188t219.5 72q128 0 221.5 -72t138 -187.5t44.5 -258.5t-44.5 -259t-138 -189t-221.5 -73zM487 106q63 0 112 32.5t78.5 87.5t44.5 123.5t15 146.5q0 77 -15 145t-44.5 123t-78.5 87t-112 32
q-62 0 -110 -32t-77.5 -87t-44.5 -123t-15 -145q0 -105 25.5 -191t83 -142.5t138.5 -56.5zM791 1268q-54 -71 -133 -111.5t-169 -40.5q-91 0 -170 41t-133 111l76 61q37 -54 97 -85.5t130 -31.5q69 0 129 31.5t97 85.5z" />
    <glyph glyph-name="Ohungarumlaut" unicode="&#x150;" horiz-adv-x="1226" 
d="M696 1776l-196 -295h-88l153 295h131zM961 1776l-197 -295h-88l153 295h132zM612 -25q-122 0 -220.5 55t-162.5 150.5t-98.5 224t-34.5 277.5t34.5 277.5t98.5 224t162.5 150.5t220.5 55t220.5 -55t163.5 -150.5t99.5 -224t34.5 -277.5t-34.5 -277.5t-99.5 -224
t-163.5 -150.5t-220.5 -55zM612 121q110 0 191 76t120.5 201.5t39.5 283.5q0 160 -39.5 285.5t-120.5 200.5t-191 75q-109 0 -189 -75t-119.5 -200.5t-39.5 -285.5q0 -158 39.5 -283.5t119.5 -201.5t189 -76z" />
    <glyph glyph-name="ohungarumlaut" unicode="&#x151;" horiz-adv-x="976" 
d="M571 1434l-196 -295h-88l153 295h131zM836 1434l-197 -295h-88l154 295h131zM487 -25q-126 0 -219 73t-137.5 189t-44.5 259q0 142 44.5 258t137 188t219.5 72q128 0 221.5 -72t138 -187.5t44.5 -258.5t-44.5 -259t-138 -189t-221.5 -73zM487 106q63 0 112 32.5
t78.5 87.5t44.5 123.5t15 146.5q0 77 -15 145t-44.5 123t-78.5 87t-112 32q-62 0 -110 -32t-77.5 -87t-44.5 -123t-15 -145q0 -105 25.5 -191t83 -142.5t138.5 -56.5z" />
    <glyph glyph-name="OE" unicode="&#x152;" horiz-adv-x="1740" 
d="M1640 0h-702v190q-54 -109 -147 -162t-197 -53q-156 0 -270.5 95t-171 253.5t-56.5 358.5q0 201 56.5 358.5t170.5 251.5t271 94q104 0 197 -52t147 -160v192h702v-143h-538v-453h524v-143h-524v-482h538v-145zM938 412v542q-41 138 -126 212.5t-196 74.5
q-112 0 -193 -75t-120 -199.5t-39 -284.5q0 -159 39 -284.5t120 -201t193 -75.5q111 0 196 76t126 215z" />
    <glyph glyph-name="oe" unicode="&#x153;" horiz-adv-x="1607" 
d="M1528 446h-639q5 -154 79.5 -251t202.5 -97q67 0 129 31.5t107 89.5l78 -86q-129 -158 -324 -158q-250 0 -348 254q-18 -50 -44.5 -93t-65.5 -80.5t-94.5 -59t-121.5 -21.5q-126 0 -219 73t-137.5 189t-44.5 259q0 142 44.5 258t137 188t219.5 72q66 0 121.5 -21.5
t94.5 -59t65.5 -79t44.5 -90.5q38 106 120 178t204 72q127 0 217 -72t132 -188.5t42 -264.5v-43zM887 555h495q-1 61 -15 117.5t-41.5 107t-77 81t-113.5 30.5q-62 0 -111 -31.5t-77.5 -82.5t-43 -107.5t-16.5 -114.5zM737 496q0 77 -15 145.5t-45 123t-79 86.5t-111 32
q-81 0 -138 -56t-83 -141.5t-26 -189.5q0 -105 26 -192t83.5 -143.5t137.5 -56.5q82 0 140.5 57t84 143t25.5 192z" />
    <glyph glyph-name="Racute" unicode="&#x154;" horiz-adv-x="1042" 
d="M819 1776l-274 -295h-107l232 295h149zM950 0h-184l-262 547h-197v-547h-164v1366h418q166 0 270.5 -111.5t104.5 -296.5q0 -170 -79.5 -268t-192.5 -119zM543 690q104 0 164.5 73.5t60.5 192.5t-60.5 193t-164.5 74h-236v-533h236z" />
    <glyph glyph-name="racute" unicode="&#x155;" horiz-adv-x="595" 
d="M633 1434l-275 -295h-106l231 295h150zM281 0h-146v989h146v-158q50 82 121.5 130.5t158.5 48.5v-152q-24 6 -49 6q-65 0 -132 -49t-99 -113v-702z" />
    <glyph glyph-name="Rcommaaccent" unicode="&#x156;" horiz-adv-x="1042" 
d="M635 -283q0 -80 -41.5 -153.5t-104.5 -118.5l-63 51q46 33 79.5 83t37.5 95l-9 -1q-9 -1 -14 -1q-35 0 -59.5 24.5t-24.5 61.5q0 39 27 67t65 28q45 0 76 -37t31 -99zM950 0h-184l-262 547h-197v-547h-164v1366h418q166 0 270.5 -111.5t104.5 -296.5q0 -170 -79.5 -268
t-192.5 -119zM543 690q104 0 164.5 73.5t60.5 192.5t-60.5 193t-164.5 74h-236v-533h236z" />
    <glyph glyph-name="rcommaaccent" unicode="&#x157;" horiz-adv-x="595" 
d="M412 -283q0 -80 -41.5 -153.5t-104.5 -118.5l-63 51q46 32 79 82t37 96l-9 -1q-8 -1 -13 -1q-35 0 -59.5 24.5t-24.5 61.5q0 39 27 67t65 28q45 0 76 -37t31 -99zM281 0h-146v989h146v-158q50 82 121.5 130.5t158.5 48.5v-152q-24 6 -49 6q-65 0 -132 -49t-99 -113v-702z
" />
    <glyph glyph-name="Rcaron" unicode="&#x158;" horiz-adv-x="1042" 
d="M596 1481h-143l-170 295h94l147 -217l140 217h96zM950 0h-184l-262 547h-197v-547h-164v1366h418q166 0 270.5 -111.5t104.5 -296.5q0 -170 -79.5 -268t-192.5 -119zM543 690q104 0 164.5 73.5t60.5 192.5t-60.5 193t-164.5 74h-236v-533h236z" />
    <glyph glyph-name="rcaron" unicode="&#x159;" horiz-adv-x="595" 
d="M418 1139h-144l-170 295h95l147 -217l139 217h97zM281 0h-146v989h146v-158q50 82 121.5 130.5t158.5 48.5v-152q-24 6 -49 6q-65 0 -132 -49t-99 -113v-702z" />
    <glyph glyph-name="Sacute" unicode="&#x15a;" horiz-adv-x="962" 
d="M770 1776l-274 -295h-107l232 295h149zM467 -25q-256 0 -408 172l91 125q56 -67 139 -109t178 -42q122 0 186 64t64 159q0 53 -21 96t-57 74t-82 57.5t-97 50.5t-102.5 49.5t-97.5 59t-82 73.5t-57 98t-21 128q0 157 111 258t281 101q223 0 364 -144l-86 -123
q-109 121 -283 121q-95 0 -158 -57t-63 -148q0 -58 34 -104t88.5 -78.5t120 -63t131.5 -68t120.5 -84t88.5 -120t34 -166.5q0 -77 -26 -144.5t-75.5 -120.5t-130.5 -83.5t-184 -30.5z" />
    <glyph glyph-name="sacute" unicode="&#x15b;" horiz-adv-x="792" 
d="M680 1434l-274 -295h-107l231 295h150zM389 -25q-212 0 -334 140l74 104q45 -55 113.5 -90t144.5 -35q86 0 138.5 44.5t52.5 115.5q0 47 -27 82t-71 57.5t-96.5 43.5t-105 46t-96.5 57.5t-71 85.5t-27 122q0 114 85.5 190t229.5 76q184 0 301 -127l-69 -101
q-37 50 -98 79.5t-132 29.5q-80 0 -128 -40.5t-48 -102.5q0 -38 21 -67.5t56 -48.5t79.5 -39t90.5 -37.5t90.5 -44.5t79.5 -59t56 -83t21 -115q0 -125 -90 -204t-240 -79z" />
    <glyph glyph-name="Scircumflex" unicode="&#x15c;" horiz-adv-x="962" 
d="M727 1481h-96l-146 215l-141 -215h-94l164 295h143zM467 -25q-256 0 -408 172l91 125q56 -67 139 -109t178 -42q122 0 186 64t64 159q0 53 -21 96t-57 74t-82 57.5t-97 50.5t-102.5 49.5t-97.5 59t-82 73.5t-57 98t-21 128q0 157 111 258t281 101q223 0 364 -144
l-86 -123q-109 121 -283 121q-95 0 -158 -57t-63 -148q0 -58 34 -104t88.5 -78.5t120 -63t131.5 -68t120.5 -84t88.5 -120t34 -166.5q0 -77 -26 -144.5t-75.5 -120.5t-130.5 -83.5t-184 -30.5z" />
    <glyph glyph-name="scircumflex" unicode="&#x15d;" horiz-adv-x="792" 
d="M637 1139h-96l-146 215l-141 -215h-94l164 295h143zM389 -25q-212 0 -334 140l74 104q45 -55 113.5 -90t144.5 -35q86 0 138.5 44.5t52.5 115.5q0 47 -27 82t-71 57.5t-96.5 43.5t-105 46t-96.5 57.5t-71 85.5t-27 122q0 114 85.5 190t229.5 76q184 0 301 -127l-69 -101
q-37 50 -98 79.5t-132 29.5q-80 0 -128 -40.5t-48 -102.5q0 -38 21 -67.5t56 -48.5t79.5 -39t90.5 -37.5t90.5 -44.5t79.5 -59t56 -83t21 -115q0 -125 -90 -204t-240 -79z" />
    <glyph glyph-name="Scedilla" unicode="&#x15e;" horiz-adv-x="962" 
d="M457 -391q-107 0 -183 61l37 76q63 -57 144 -57q45 0 77.5 23.5t32.5 62.5q0 32 -17.5 50.5t-49.5 18.5q-41 0 -68 -30l-65 36l47 127q-220 17 -353 170l91 125q56 -67 139 -109t178 -42q122 0 186 64t64 159q0 53 -21 96t-57 74t-82 57.5t-97 50.5t-102.5 49.5t-97.5 59
t-82 73.5t-57 98t-21 128q0 157 111 258t281 101q223 0 364 -144l-86 -123q-109 121 -283 121q-95 0 -158 -57t-63 -148q0 -58 34 -104t88.5 -78.5t120 -63t131.5 -68t120.5 -84t88.5 -120t34 -166.5q0 -155 -99.5 -261.5t-285.5 -115.5l-35 -92q26 23 67 23q53 0 88 -37
t35 -98q0 -73 -56 -118.5t-140 -45.5z" />
    <glyph glyph-name="scedilla" unicode="&#x15f;" horiz-adv-x="792" 
d="M381 -391q-106 0 -182 61l37 76q63 -57 143 -57q45 0 77.5 23.5t32.5 62.5q0 32 -17.5 50.5t-49.5 18.5q-41 0 -68 -30l-65 36l47 127q-173 15 -281 138l74 104q45 -55 113.5 -90t144.5 -35q86 0 138.5 44.5t52.5 115.5q0 47 -27 82t-71 57.5t-96.5 43.5t-105 46
t-96.5 57.5t-71 85.5t-27 122q0 114 85.5 190t229.5 76q184 0 301 -127l-69 -101q-37 50 -98 79.5t-132 29.5q-80 0 -128 -40.5t-48 -102.5q0 -38 21 -67.5t56 -48.5t79.5 -39t90.5 -37.5t90.5 -44.5t79.5 -59t56 -83t21 -115q0 -118 -80 -195t-217 -86l-35 -92q26 23 68 23
q53 0 88 -37t35 -98q0 -73 -56.5 -118.5t-140.5 -45.5z" />
    <glyph glyph-name="Scaron" unicode="&#x160;" horiz-adv-x="962" 
d="M563 1481h-143l-170 295h94l148 -217l139 217h96zM467 -25q-256 0 -408 172l91 125q56 -67 139 -109t178 -42q122 0 186 64t64 159q0 53 -21 96t-57 74t-82 57.5t-97 50.5t-102.5 49.5t-97.5 59t-82 73.5t-57 98t-21 128q0 157 111 258t281 101q223 0 364 -144l-86 -123
q-109 121 -283 121q-95 0 -158 -57t-63 -148q0 -58 34 -104t88.5 -78.5t120 -63t131.5 -68t120.5 -84t88.5 -120t34 -166.5q0 -77 -26 -144.5t-75.5 -120.5t-130.5 -83.5t-184 -30.5z" />
    <glyph glyph-name="scaron" unicode="&#x161;" horiz-adv-x="792" 
d="M473 1139h-143l-170 295h94l147 -217l140 217h96zM389 -25q-212 0 -334 140l74 104q45 -55 113.5 -90t144.5 -35q86 0 138.5 44.5t52.5 115.5q0 47 -27 82t-71 57.5t-96.5 43.5t-105 46t-96.5 57.5t-71 85.5t-27 122q0 114 85.5 190t229.5 76q184 0 301 -127l-69 -101
q-37 50 -98 79.5t-132 29.5q-80 0 -128 -40.5t-48 -102.5q0 -38 21 -67.5t56 -48.5t79.5 -39t90.5 -37.5t90.5 -44.5t79.5 -59t56 -83t21 -115q0 -125 -90 -204t-240 -79z" />
    <glyph glyph-name="Tcommaaccent" unicode="&#x162;" horiz-adv-x="913" 
d="M569 -283q0 -80 -41 -153.5t-104 -118.5l-64 51q46 33 79.5 83t37.5 95l-9 -1q-8 -1 -13 -1q-35 0 -59.5 24.5t-24.5 61.5q0 39 27 67t65 28q45 0 75.5 -37t30.5 -99zM537 0h-162v1223h-324v143h811v-143h-325v-1223z" />
    <glyph glyph-name="tcommaaccent" unicode="&#x163;" horiz-adv-x="538" 
d="M383 -283q0 -80 -41 -153.5t-104 -118.5l-64 51q46 33 79.5 83t37.5 95l-9 -1q-9 -1 -14 -1q-35 0 -59.5 24.5t-24.5 61.5q0 39 27 67t65 28q45 0 76 -37t31 -99zM362 -25q-198 0 -198 224v661h-131v129h131v271h147v-271h168v-129h-168v-635q0 -119 80 -119q55 0 86 39
l45 -110q-60 -60 -160 -60z" />
    <glyph glyph-name="Tcaron" unicode="&#x164;" horiz-adv-x="913" 
d="M532 1481h-143l-170 295h94l148 -217l139 217h96zM537 0h-162v1223h-324v143h811v-143h-325v-1223z" />
    <glyph glyph-name="tcaron" unicode="&#x165;" horiz-adv-x="559" 
d="M625 1384q0 -80 -41.5 -153.5t-104.5 -118.5l-63 51q46 32 79 82t37 96l-8 -1q-9 -1 -14 -1q-35 0 -59.5 24.5t-24.5 61.5q0 39 27 67t65 28q45 0 76 -37t31 -99zM362 -25q-198 0 -198 224v661h-131v129h131v271h147v-271h168v-129h-168v-635q0 -119 80 -119q55 0 86 39
l45 -110q-60 -60 -160 -60z" />
    <glyph glyph-name="Tbar" unicode="&#x166;" horiz-adv-x="913" 
d="M537 0h-162v606h-232v94h232v523h-324v143h811v-143h-325v-523h221v-94h-221v-606z" />
    <glyph glyph-name="tbar" unicode="&#x167;" horiz-adv-x="538" 
d="M362 -25q-198 0 -198 224v268h-131v94h131v299h-131v129h131v271h147v-271h168v-129h-168v-299h107v-94h-107v-242q0 -119 80 -119q55 0 86 39l45 -110q-60 -60 -160 -60z" />
    <glyph glyph-name="Utilde" unicode="&#x168;" horiz-adv-x="1165" 
d="M582 -25q-207 0 -323 121.5t-116 345.5v924h164v-926q0 -157 71.5 -238t203.5 -81q133 0 204.5 81t71.5 238v926h162v-924q0 -225 -115 -346t-323 -121zM688 1477q-36 0 -64 20t-44.5 48t-31 56t-32 48t-39.5 20q-36 0 -59 -45.5t-23 -134.5h-86q0 122 44.5 198t129.5 76
q36 0 64 -19.5t44.5 -47.5t31 -56t32 -47.5t39.5 -19.5q36 0 59 44.5t23 133.5h86q0 -122 -44.5 -198t-129.5 -76z" />
    <glyph glyph-name="utilde" unicode="&#x169;" 
d="M817 0h-147v137q-48 -70 -124 -116t-163 -46q-126 0 -187 65t-61 200v749h146v-706q0 -94 40.5 -135.5t116.5 -41.5q71 0 134.5 44.5t97.5 109.5v729h147v-989zM578 1135q-36 0 -64 20t-44.5 48t-31 56t-32 48t-39.5 20q-36 0 -59 -45.5t-23 -134.5h-86q0 122 44.5 198
t129.5 76q36 0 64 -19.5t44.5 -47.5t31 -56t32 -47.5t39.5 -19.5q36 0 59 44.5t23 133.5h86q0 -122 -44.5 -198t-129.5 -76z" />
    <glyph glyph-name="Umacron" unicode="&#x16a;" horiz-adv-x="1165" 
d="M582 -25q-207 0 -323 121.5t-116 345.5v924h164v-926q0 -157 71.5 -238t203.5 -81q133 0 204.5 81t71.5 238v926h162v-924q0 -225 -115 -346t-323 -121zM897 1516h-627v94h627v-94z" />
    <glyph glyph-name="umacron" unicode="&#x16b;" 
d="M817 0h-147v137q-48 -70 -124 -116t-163 -46q-126 0 -187 65t-61 200v749h146v-706q0 -94 40.5 -135.5t116.5 -41.5q71 0 134.5 44.5t97.5 109.5v729h147v-989zM788 1174h-626v94h626v-94z" />
    <glyph glyph-name="Ubreve" unicode="&#x16c;" horiz-adv-x="1165" 
d="M582 -25q-207 0 -323 121.5t-116 345.5v924h164v-926q0 -157 71.5 -238t203.5 -81q133 0 204.5 81t71.5 238v926h162v-924q0 -225 -115 -346t-323 -121zM889 1610q-54 -71 -132.5 -111.5t-168.5 -40.5q-91 0 -170 41t-133 111l75 61q37 -54 97.5 -85.5t130.5 -31.5
q69 0 128.5 31.5t96.5 85.5z" />
    <glyph glyph-name="ubreve" unicode="&#x16d;" 
d="M817 0h-147v137q-48 -70 -124 -116t-163 -46q-126 0 -187 65t-61 200v749h146v-706q0 -94 40.5 -135.5t116.5 -41.5q71 0 134.5 44.5t97.5 109.5v729h147v-989zM778 1268q-54 -71 -132.5 -111.5t-168.5 -40.5q-91 0 -170 41t-133 111l76 61q37 -54 97 -85.5t130 -31.5
q69 0 128.5 31.5t96.5 85.5z" />
    <glyph glyph-name="Uring" unicode="&#x16e;" horiz-adv-x="1165" 
d="M584 1448q-77 0 -132 55t-55 131t55.5 131.5t131.5 55.5t130 -55t54 -132t-54 -131.5t-130 -54.5zM584 1526q44 0 75 32t31 76q0 45 -31 77t-75 32t-76.5 -32.5t-32.5 -76.5t32.5 -76t76.5 -32zM582 -25q-207 0 -323 121.5t-116 345.5v924h164v-926q0 -157 71.5 -238
t203.5 -81q133 0 204.5 81t71.5 238v926h162v-924q0 -225 -115 -346t-323 -121z" />
    <glyph glyph-name="uring" unicode="&#x16f;" 
d="M477 1114q-77 0 -131.5 55t-54.5 131q0 77 55 132t131 55t130.5 -55t54.5 -132t-54.5 -131.5t-130.5 -54.5zM477 1192q44 0 75.5 32t31.5 76t-31.5 76.5t-75.5 32.5t-76 -32.5t-32 -76.5t32 -76t76 -32zM817 0h-147v137q-48 -70 -124 -116t-163 -46q-126 0 -187 65
t-61 200v749h146v-706q0 -94 40.5 -135.5t116.5 -41.5q71 0 134.5 44.5t97.5 109.5v729h147v-989z" />
    <glyph glyph-name="Uhungarumlaut" unicode="&#x170;" horiz-adv-x="1165" 
d="M582 -25q-207 0 -323 121.5t-116 345.5v924h164v-926q0 -157 71.5 -238t203.5 -81q133 0 204.5 81t71.5 238v926h162v-924q0 -225 -115 -346t-323 -121zM668 1776l-197 -295h-88l154 295h131zM932 1776l-197 -295h-88l154 295h131z" />
    <glyph glyph-name="uhungarumlaut" unicode="&#x171;" 
d="M817 0h-147v137q-48 -70 -124 -116t-163 -46q-126 0 -187 65t-61 200v749h146v-706q0 -94 40.5 -135.5t116.5 -41.5q71 0 134.5 44.5t97.5 109.5v729h147v-989zM559 1434l-197 -295h-88l154 295h131zM823 1434l-196 -295h-88l153 295h131z" />
    <glyph glyph-name="Uogonek" unicode="&#x172;" horiz-adv-x="1165" 
d="M582 -25q-207 0 -323 121.5t-116 345.5v924h164v-926q0 -157 71.5 -238t203.5 -81q133 0 204.5 81t71.5 238v926h162v-924q0 -174 -70 -287t-200 -155q-146 -85 -146 -211q0 -45 21 -68.5t55 -23.5q64 0 86 78l74 -41q-47 -115 -160 -115q-73 0 -118.5 42t-45.5 124
q0 105 82 190h-16z" />
    <glyph glyph-name="uogonek" unicode="&#x173;" 
d="M817 0q-145 -84 -145 -211q0 -45 21 -68.5t55 -23.5q64 0 86 78l73 -41q-47 -115 -159 -115q-73 0 -118.5 42t-45.5 124q0 123 106 215h-20v137q-48 -70 -124 -116t-163 -46q-126 0 -187 65t-61 200v749h146v-706q0 -94 40.5 -135.5t116.5 -41.5q71 0 134.5 44.5
t97.5 109.5v729h147v-989z" />
    <glyph glyph-name="Wcircumflex" unicode="&#x174;" horiz-adv-x="1464" 
d="M973 1481h-96l-146 215l-141 -215h-94l163 295h144zM1128 0h-174l-223 1077l-221 -1077h-174l-303 1366h174l223 -1114l234 1114h137l233 -1114l223 1114h175z" />
    <glyph glyph-name="wcircumflex" unicode="&#x175;" horiz-adv-x="1306" 
d="M893 1139h-96l-146 215l-141 -215h-94l164 295h143zM1016 0h-152l-211 795l-213 -795h-149l-264 989h153l193 -790l209 790h139l211 -790l194 790h154z" />
    <glyph glyph-name="Ycircumflex" unicode="&#x176;" horiz-adv-x="1021" 
d="M752 1481h-97l-145 215l-141 -215h-95l164 295h144zM592 0h-162v578l-422 788h182l322 -631l322 631h180l-422 -788v-578z" />
    <glyph glyph-name="ycircumflex" unicode="&#x177;" horiz-adv-x="835" 
d="M84 -387l22 131q25 -14 66 -14q44 0 70.5 21.5t46.5 76.5l53 152l-330 1009h160l246 -811l248 811h157l-395 -1198q-36 -104 -95.5 -148t-150.5 -44q-58 0 -98 14zM659 1139h-96l-145 215l-142 -215h-94l164 295h143z" />
    <glyph glyph-name="Ydieresis" unicode="&#x178;" horiz-adv-x="1021" 
d="M786 1577q0 -37 -27.5 -63.5t-64.5 -26.5q-38 0 -65 26.5t-27 63.5q0 38 27 65t65 27q37 0 64.5 -27t27.5 -65zM430 1577q0 -37 -27 -63.5t-65 -26.5q-37 0 -64.5 26.5t-27.5 63.5q0 38 27.5 65t64.5 27q38 0 65 -27t27 -65zM592 0h-162v578l-422 788h182l322 -631
l322 631h180l-422 -788v-578z" />
    <glyph glyph-name="Zacute" unicode="&#x179;" horiz-adv-x="946" 
d="M758 1776l-275 -295h-106l231 295h150zM864 0h-782v137l573 1086h-573v143h768v-135l-576 -1086h590v-145z" />
    <glyph glyph-name="zacute" unicode="&#x17a;" horiz-adv-x="792" 
d="M680 1434l-274 -295h-107l231 295h150zM705 0h-617v115l428 745h-428v129h608v-112l-428 -748h437v-129z" />
    <glyph glyph-name="Zdotaccent" unicode="&#x17b;" horiz-adv-x="946" 
d="M864 0h-782v137l573 1086h-573v143h768v-135l-576 -1086h590v-145zM469 1481q-37 0 -65.5 27.5t-28.5 66.5q0 38 28.5 65t65.5 27q38 0 65 -27t27 -65q0 -40 -27 -67t-65 -27z" />
    <glyph glyph-name="zdotaccent" unicode="&#x17c;" horiz-adv-x="792" 
d="M705 0h-617v115l428 745h-428v129h608v-112l-428 -748h437v-129zM395 1139q-37 0 -65.5 27.5t-28.5 66.5q0 38 28.5 65t65.5 27q38 0 65 -27t27 -65q0 -40 -27 -67t-65 -27z" />
    <glyph glyph-name="Zcaron" unicode="&#x17d;" horiz-adv-x="946" 
d="M547 1481h-144l-170 295h95l147 -217l139 217h97zM864 0h-782v137l573 1086h-573v143h768v-135l-576 -1086h590v-145z" />
    <glyph glyph-name="zcaron" unicode="&#x17e;" horiz-adv-x="792" 
d="M465 1139h-143l-170 295h94l147 -217l139 217h97zM705 0h-617v115l428 745h-428v129h608v-112l-428 -748h437v-129z" />
    <glyph glyph-name="longs" unicode="&#x17f;" horiz-adv-x="520" 
d="M317 0h-147v860h-131v129h131v121q0 129 66 202.5t182 73.5q108 0 176 -65l-57 -109q-40 43 -97 43q-60 0 -91.5 -38t-31.5 -107v-1110z" />
    <glyph glyph-name="florin" unicode="&#x192;" horiz-adv-x="815" 
d="M213 -330h-164l187 852h-117v133h147l103 467q26 120 110 192t197 72q106 0 164 -61l-70 -121q-26 39 -82 39q-60 0 -102.5 -40.5t-57.5 -110.5l-96 -437h234v-133h-265z" />
    <glyph glyph-name="Ohorn" unicode="&#x1a0;" horiz-adv-x="1226" 
d="M612 -25q-122 0 -220.5 55t-162.5 150.5t-98.5 224t-34.5 277.5t34.5 277.5t98.5 224t162.5 150.5t220.5 55q125 0 224.5 -57.5t167.5 -162.5q36 31 59.5 72.5t26.5 79.5q-4 -4 -21 -4q-35 0 -57.5 24t-22.5 60t25 61t61 25q42 0 71.5 -34t29.5 -93q0 -75 -38 -144
t-96 -112q88 -181 88 -422q0 -149 -34.5 -277.5t-99.5 -224t-163.5 -150.5t-220.5 -55zM612 121q110 0 191 76t120.5 201.5t39.5 283.5q0 160 -39.5 285.5t-120.5 200.5t-191 75q-109 0 -189 -75t-119.5 -200.5t-39.5 -285.5q0 -158 39.5 -283.5t119.5 -201.5t189 -76z" />
    <glyph glyph-name="ohorn" unicode="&#x1a1;" horiz-adv-x="976" 
d="M915 1085q0 -69 -32 -133.5t-84 -109.5q92 -139 92 -346q0 -143 -44.5 -259t-138 -189t-221.5 -73q-126 0 -219 73t-137.5 189t-44.5 259q0 142 44.5 258t137 188t219.5 72q158 0 265 -113q32 30 53 70t26 76q-5 -5 -22 -5q-34 0 -56 24t-22 60t25 61t61 25q42 0 70 -34
t28 -93zM487 106q63 0 112 32.5t78.5 87.5t44.5 123.5t15 146.5q0 77 -15 145t-44.5 123t-78.5 87t-112 32q-62 0 -110 -32t-77.5 -87t-44.5 -123t-15 -145q0 -105 25.5 -191t83 -142.5t138.5 -56.5z" />
    <glyph glyph-name="Uhorn" unicode="&#x1af;" horiz-adv-x="1165" 
d="M1233 1493q0 -93 -56 -175.5t-157 -131.5v-744q0 -225 -115 -346t-323 -121q-207 0 -323 121.5t-116 345.5v924h164v-926q0 -157 71.5 -238t203.5 -81q133 0 204.5 81t71.5 238v926h162v-98q51 31 87.5 83.5t41.5 100.5q-1 0 -10 -1t-13 -1q-34 0 -55.5 23.5t-21.5 58.5
q0 36 24 61t60 25q43 0 71.5 -33.5t28.5 -91.5z" />
    <glyph glyph-name="uhorn" unicode="&#x1b0;" 
d="M817 0h-147v137q-48 -70 -124 -116t-163 -46q-126 0 -187 65t-61 200v749h146v-706q0 -94 40.5 -135.5t116.5 -41.5q71 0 134.5 44.5t97.5 109.5v729h147v-84q36 33 59.5 74t26.5 78q-14 -2 -20 -2q-34 0 -57 23.5t-23 58.5q0 36 25 62t61 26q43 0 71.5 -34.5t28.5 -92.5
q0 -83 -45 -158t-127 -127v-813z" />
    <glyph glyph-name="AEacute" unicode="&#x1fc;" horiz-adv-x="1538" 
d="M1104 1776l-275 -295h-106l231 295h150zM1438 0h-701v309h-399l-141 -309h-174l647 1366h768v-143h-539v-453h524v-143h-524v-482h539v-145zM737 453v733l-338 -733h338z" />
    <glyph glyph-name="aeacute" unicode="&#x1fd;" horiz-adv-x="1507" 
d="M1004 1434l-275 -295h-106l231 295h150zM1427 446h-608q5 -154 75 -251t191 -97q62 0 122 32.5t102 90.5l77 -88q-129 -158 -311 -158q-220 0 -325 211q-43 -95 -129.5 -153t-200.5 -58q-149 0 -242.5 88t-93.5 240q0 150 88 239t223 89q83 0 156.5 -31.5t122.5 -93.5
v170q0 101 -56 156t-159 55q-151 0 -266 -121l-66 104q141 144 344 144q112 0 190 -51t99 -146q97 197 295 197q121 0 206.5 -72t125.5 -188.5t40 -264.5v-43zM817 555h465q0 61 -12.5 117.5t-38 107t-72 81t-108.5 30.5q-59 0 -105 -31.5t-72.5 -82.5t-40.5 -107.5
t-16 -114.5zM674 356v39q-37 62 -98 94.5t-132 32.5q-96 0 -153.5 -57.5t-57.5 -155.5q0 -99 57.5 -156t153.5 -57q99 0 164.5 76t65.5 184z" />
    <glyph glyph-name="Oslashacute" unicode="&#x1fe;" horiz-adv-x="1226" 
d="M899 1776l-274 -295h-107l232 295h149zM612 -25q-156 0 -276 93l-37 -68h-121l78 143q-78 96 -119 235.5t-41 303.5q0 149 34.5 277.5t98.5 224t162.5 150.5t220.5 55q155 0 273 -91l37 68h120l-77 -143q80 -97 122.5 -237t42.5 -304q0 -149 -34.5 -277.5t-99.5 -224
t-163.5 -150.5t-220.5 -55zM612 121q110 0 191 76t120.5 201.5t39.5 283.5q0 235 -84 385l-467 -860q83 -86 200 -86zM264 682q0 -229 78 -379l467 858q-85 82 -197 82q-109 0 -189 -75t-119.5 -200.5t-39.5 -285.5z" />
    <glyph glyph-name="oslashacute" unicode="&#x1ff;" horiz-adv-x="976" 
d="M774 1434l-274 -295h-107l232 295h149zM213 0h-100l80 123q-107 147 -107 373q0 142 44.5 258t137 188t219.5 72q136 0 232 -80l35 55h102l-78 -119q113 -144 113 -374q0 -143 -44.5 -259t-138 -189t-221.5 -73q-138 0 -235 84zM487 106q63 0 112 32.5t78.5 87.5
t44.5 123.5t15 146.5q0 136 -47 239l-360 -555q64 -74 157 -74zM240 496q0 -135 43 -236l358 555q-65 68 -154 68q-62 0 -110 -32t-77.5 -87t-44.5 -123t-15 -145z" />
    <glyph glyph-name="Scommaaccent" unicode="&#x218;" horiz-adv-x="962" 
d="M584 -283q0 -80 -41.5 -153.5t-104.5 -118.5l-63 51q46 33 79.5 83t37.5 95l-9 -1q-9 -1 -14 -1q-35 0 -59.5 24.5t-24.5 61.5q0 39 27 67t65 28q45 0 76 -37t31 -99zM467 -25q-256 0 -408 172l91 125q56 -67 139 -109t178 -42q122 0 186 64t64 159q0 53 -21 96t-57 74
t-82 57.5t-97 50.5t-102.5 49.5t-97.5 59t-82 73.5t-57 98t-21 128q0 157 111 258t281 101q223 0 364 -144l-86 -123q-109 121 -283 121q-95 0 -158 -57t-63 -148q0 -58 34 -104t88.5 -78.5t120 -63t131.5 -68t120.5 -84t88.5 -120t34 -166.5q0 -77 -26 -144.5t-75.5 -120.5
t-130.5 -83.5t-184 -30.5z" />
    <glyph glyph-name="scommaaccent" unicode="&#x219;" horiz-adv-x="792" 
d="M512 -283q0 -80 -41 -153.5t-104 -118.5l-64 51q46 33 79.5 83t37.5 95l-9 -1q-9 -1 -14 -1q-35 0 -59.5 24.5t-24.5 61.5q0 38 27.5 66.5t65.5 28.5q45 0 75.5 -37t30.5 -99zM389 -25q-212 0 -334 140l74 104q45 -55 113.5 -90t144.5 -35q86 0 138.5 44.5t52.5 115.5
q0 47 -27 82t-71 57.5t-96.5 43.5t-105 46t-96.5 57.5t-71 85.5t-27 122q0 114 85.5 190t229.5 76q184 0 301 -127l-69 -101q-37 50 -98 79.5t-132 29.5q-80 0 -128 -40.5t-48 -102.5q0 -38 21 -67.5t56 -48.5t79.5 -39t90.5 -37.5t90.5 -44.5t79.5 -59t56 -83t21 -115
q0 -125 -90 -204t-240 -79z" />
    <glyph glyph-name="uni021A" unicode="&#x21a;" horiz-adv-x="913" 
d="M569 -283q0 -80 -41 -153.5t-104 -118.5l-64 51q46 33 79.5 83t37.5 95l-9 -1q-8 -1 -13 -1q-35 0 -59.5 24.5t-24.5 61.5q0 39 27 67t65 28q45 0 75.5 -37t30.5 -99zM537 0h-162v1223h-324v143h811v-143h-325v-1223z" />
    <glyph glyph-name="uni021B" unicode="&#x21b;" horiz-adv-x="538" 
d="M383 -283q0 -80 -41 -153.5t-104 -118.5l-64 51q46 33 79.5 83t37.5 95l-9 -1q-9 -1 -14 -1q-35 0 -59.5 24.5t-24.5 61.5q0 39 27 67t65 28q45 0 76 -37t31 -99zM362 -25q-198 0 -198 224v661h-131v129h131v271h147v-271h168v-129h-168v-635q0 -119 80 -119q55 0 86 39
l45 -110q-60 -60 -160 -60z" />
    <glyph glyph-name="uni0237" unicode="&#x237;" horiz-adv-x="415" 
d="M35 -401q-105 0 -168 69l53 109q43 -53 100 -53q115 0 115 155v1110h146v-1110q0 -280 -246 -280z" />
    <glyph glyph-name="hsuperior" unicode="&#x2b0;" horiz-adv-x="700" 
d="M594 668h-115v446q0 117 -106 117q-44 0 -86 -28.5t-66 -67.5v-467h-112v888h112v-335q30 43 84.5 74.5t112.5 31.5q176 0 176 -184v-475z" />
    <glyph glyph-name="uni02BC" unicode="&#x2bc;" horiz-adv-x="468" 
d="M354 1235q0 -90 -46 -171.5t-118 -133.5l-73 61q50 32 87.5 87t43.5 104q-8 -4 -27 -4q-41 0 -68.5 29t-27.5 73q0 43 30.5 74.5t75.5 31.5q52 0 87.5 -41t35.5 -110z" />
    <glyph glyph-name="circumflex" unicode="&#x2c6;" horiz-adv-x="477" 
d="M477 1139h-96l-145 215l-142 -215h-94l164 295h143z" />
    <glyph glyph-name="caron" unicode="&#x2c7;" horiz-adv-x="477" 
d="M313 1139h-143l-170 295h94l148 -217l139 217h96z" />
    <glyph glyph-name="uni02C9" unicode="&#x2c9;" horiz-adv-x="626" 
d="M627 1210h-627v97h627v-97z" />
    <glyph glyph-name="uni02CB" unicode="&#x2cb;" horiz-adv-x="380" 
d="M381 1139h-107l-274 295h150z" />
    <glyph glyph-name="breve" unicode="&#x2d8;" horiz-adv-x="604" 
d="M604 1268q-54 -71 -132.5 -111.5t-168.5 -40.5q-91 0 -170 41t-133 111l76 61q37 -54 97 -85.5t130 -31.5q69 0 128.5 31.5t96.5 85.5z" />
    <glyph glyph-name="dotaccent" unicode="&#x2d9;" horiz-adv-x="221" 
d="M111 1139q-38 0 -66.5 27.5t-28.5 66.5q0 38 29 65t66 27q38 0 65 -27t27 -65q0 -40 -27 -67t-65 -27z" />
    <glyph glyph-name="ring" unicode="&#x2da;" horiz-adv-x="370" 
d="M186 1114q-76 0 -131 55t-55 131q0 77 55 132t131 55t130.5 -55t54.5 -132t-54.5 -131.5t-130.5 -54.5zM186 1192q44 0 75.5 32t31.5 76t-31.5 76.5t-75.5 32.5t-76 -32.5t-32 -76.5t32 -76t76 -32z" />
    <glyph glyph-name="ogonek" unicode="&#x2db;" horiz-adv-x="323" 
d="M250 -225l74 -41q-47 -115 -160 -115q-73 0 -118.5 42t-45.5 124q0 76 46 144.5t122 115.5l65 -45q-145 -84 -145 -211q0 -45 21 -68.5t55 -23.5q64 0 86 78z" />
    <glyph glyph-name="tilde" unicode="&#x2dc;" horiz-adv-x="552" 
d="M379 1135q-36 0 -64 20t-44.5 48t-31 56t-32 48t-39.5 20q-36 0 -59 -45.5t-23 -134.5h-86q0 122 44.5 198t129.5 76q36 0 64 -19.5t44.5 -47.5t31 -56t32 -47.5t39.5 -19.5q36 0 59 44.5t23 133.5h86q0 -122 -44.5 -198t-129.5 -76z" />
    <glyph glyph-name="hungarumlaut" unicode="&#x2dd;" horiz-adv-x="548" 
d="M285 1434l-197 -295h-88l154 295h131zM549 1434l-197 -295h-88l154 295h131z" />
    <glyph glyph-name="hookabovecomb" unicode="&#x309;" horiz-adv-x="323" 
d="M94 1497l-65 16q13 47 47 76t86 29q57 0 93 -33.5t36 -99.5q0 -61 -39 -119h-76q47 56 47 117q0 35 -16.5 53t-44.5 18q-53 0 -68 -57z" />
    <glyph glyph-name="uni037E" unicode="&#x37e;" horiz-adv-x="466" 
d="M233 786q-44 0 -76 33t-32 76q0 44 32 76.5t76 32.5t77.5 -32.5t33.5 -76.5q0 -43 -33.5 -76t-77.5 -33zM354 49q0 -90 -46 -171.5t-118 -133.5l-73 61q50 32 87.5 87t43.5 104q-8 -4 -27 -4q-41 0 -68.5 29t-27.5 73t30.5 75.5t75.5 31.5q52 0 87.5 -41t35.5 -111z" />
    <glyph glyph-name="tonos" unicode="&#x384;" horiz-adv-x="403" 
d="M281 1159h-74l37 408h153z" />
    <glyph glyph-name="dieresistonos" unicode="&#x385;" 
d="M489 1159h-73l37 408h153zM823 1235q0 -37 -27 -63.5t-65 -26.5t-65 26.5t-27 63.5q0 38 27 65t65 27t65 -27t27 -65zM311 1235q0 -37 -27 -63.5t-65 -26.5q-37 0 -64.5 26.5t-27.5 63.5q0 38 27.5 65t64.5 27q38 0 65 -27t27 -65z" />
    <glyph glyph-name="Alphatonos" unicode="&#x386;" horiz-adv-x="1046" 
d="M258 1159h-74l37 408h154zM1030 0h-176l-88 309h-485l-88 -309h-177l410 1366h195zM731 453l-209 733l-207 -733h416z" />
    <glyph glyph-name="Epsilontonos" unicode="&#x388;" horiz-adv-x="985" 
d="M53 1159h-73l36 408h154zM887 0h-703v1366h703v-143h-539v-453h524v-143h-524v-482h539v-145z" />
    <glyph glyph-name="Etatonos" unicode="&#x389;" horiz-adv-x="1216" 
d="M53 1159h-73l36 408h154zM1073 0h-164v631h-561v-631h-164v1366h164v-592h561v592h164v-1366z" />
    <glyph glyph-name="Iotatonos" unicode="&#x38a;" horiz-adv-x="491" 
d="M53 1159h-73l36 408h154zM348 0h-164v1366h164v-1366z" />
    <glyph glyph-name="Omicrontonos" unicode="&#x38c;" horiz-adv-x="1239" 
d="M109 1159h-74l37 408h153zM623 -25q-161 0 -280 95t-178 253.5t-59 358.5t59 358.5t178 253.5t280 95q122 0 220.5 -55t163.5 -150.5t99.5 -224t34.5 -277.5t-34.5 -277.5t-99.5 -224t-163.5 -150.5t-220.5 -55zM623 121q110 0 190.5 76t120 201.5t39.5 283.5
q0 160 -39.5 285.5t-120 200.5t-190.5 75q-109 0 -189.5 -75t-120 -201t-39.5 -285q0 -158 39.5 -283.5t120 -201.5t189.5 -76z" />
    <glyph glyph-name="Upsilontonos" unicode="&#x38e;" horiz-adv-x="1146" 
d="M45 1159h-74l37 408h154zM717 0h-162v578l-422 788h182l322 -631l321 631h181l-422 -788v-578z" />
    <glyph glyph-name="Omegatonos" unicode="&#x38f;" horiz-adv-x="1228" 
d="M109 1159h-74l37 408h153zM135 145h213q-107 80 -174.5 221.5t-67.5 344.5q0 305 139 491.5t380 186.5q240 0 379 -186t139 -492q0 -203 -67.5 -344.5t-174.5 -221.5h213v-145h-381v145q98 41 169 181t71 356q0 167 -38.5 291.5t-118 196t-191.5 71.5
q-168 0 -259.5 -152.5t-91.5 -406.5q0 -216 72 -356t170 -181v-145h-381v145z" />
    <glyph glyph-name="iotadieresistonos" unicode="&#x390;" horiz-adv-x="440" 
d="M233 1159h-73l37 408h153zM567 1235q0 -37 -27 -63.5t-65 -26.5t-65 26.5t-27 63.5q0 38 27 65t65 27t65 -27t27 -65zM55 1235q0 -37 -27 -63.5t-65 -26.5q-37 0 -64.5 26.5t-27.5 63.5q0 38 27.5 65t64.5 27q38 0 65 -27t27 -65zM332 -25q-197 0 -197 224v790h146v-772
q0 -111 79 -111q20 0 35 3l11 -125q-40 -9 -74 -9z" />
    <glyph glyph-name="Alpha" unicode="&#x391;" horiz-adv-x="1046" 
d="M1030 0h-176l-88 309h-485l-88 -309h-177l410 1366h195zM731 453l-209 733l-207 -733h416z" />
    <glyph glyph-name="Beta" unicode="&#x392;" horiz-adv-x="1056" 
d="M608 0h-465v1366h453q159 0 248.5 -95t89.5 -253q0 -124 -58 -205.5t-151 -107.5q99 -15 165 -113t66 -223q0 -170 -90 -269.5t-258 -99.5zM565 770q100 0 150.5 62t50.5 163t-50.5 164.5t-150.5 63.5h-258v-453h258zM575 145q104 0 158.5 63t54.5 177q0 104 -55 173
t-158 69h-268v-482h268z" />
    <glyph glyph-name="Gamma" unicode="&#x393;" horiz-adv-x="923" 
d="M307 0h-164v1366h703v-143h-539v-1223z" />
    <glyph glyph-name="uni0394" unicode="&#x394;" horiz-adv-x="1077" 
d="M1061 0h-1045l424 1366h195zM850 145l-311 1041l-312 -1041h623z" />
    <glyph glyph-name="Epsilon" unicode="&#x395;" horiz-adv-x="944" 
d="M846 0h-703v1366h703v-143h-539v-453h524v-143h-524v-482h539v-145z" />
    <glyph glyph-name="Zeta" unicode="&#x396;" horiz-adv-x="946" 
d="M864 0h-782v137l573 1086h-573v143h768v-135l-576 -1086h590v-145z" />
    <glyph glyph-name="Eta" unicode="&#x397;" horiz-adv-x="1175" 
d="M1032 0h-164v631h-561v-631h-164v1366h164v-592h561v592h164v-1366z" />
    <glyph glyph-name="Theta" unicode="&#x398;" horiz-adv-x="1226" 
d="M877 627h-525v143h525v-143zM612 -25q-122 0 -220.5 55t-162.5 150.5t-98.5 224t-34.5 277.5t34.5 277.5t98.5 224t162.5 150.5t220.5 55t220.5 -55t163.5 -150.5t99.5 -224t34.5 -277.5t-34.5 -277.5t-99.5 -224t-163.5 -150.5t-220.5 -55zM612 121q110 0 191 76
t120.5 201.5t39.5 283.5q0 160 -39.5 285.5t-120.5 200.5t-191 75q-109 0 -189 -75t-119.5 -200.5t-39.5 -285.5q0 -158 39.5 -283.5t119.5 -201.5t189 -76z" />
    <glyph glyph-name="Iota" unicode="&#x399;" horiz-adv-x="450" 
d="M307 0h-164v1366h164v-1366z" />
    <glyph glyph-name="Kappa" unicode="&#x39a;" horiz-adv-x="1042" 
d="M1016 0h-197l-399 602l-113 -164v-438h-164v1366h164v-709l477 709h193l-457 -649z" />
    <glyph glyph-name="Lambda" unicode="&#x39b;" horiz-adv-x="1046" 
d="M1030 0h-176l-332 1186l-329 -1186h-177l410 1366h195z" />
    <glyph glyph-name="Mu" unicode="&#x39c;" horiz-adv-x="1398" 
d="M1255 0h-159v1073l-365 -1073h-63l-361 1073v-1073h-164v1366h228l329 -971l332 971h223v-1366z" />
    <glyph glyph-name="Nu" unicode="&#x39d;" horiz-adv-x="1171" 
d="M1028 0h-158l-563 1018v-1018h-164v1366h164l557 -997v997h164v-1366z" />
    <glyph glyph-name="Xi" unicode="&#x39e;" horiz-adv-x="1009" 
d="M911 1223h-811v143h811v-143zM911 0h-813v145h813v-145zM897 627h-782v143h782v-143z" />
    <glyph glyph-name="Omicron" unicode="&#x39f;" horiz-adv-x="1226" 
d="M612 -25q-122 0 -220.5 55t-162.5 150.5t-98.5 224t-34.5 277.5t34.5 277.5t98.5 224t162.5 150.5t220.5 55t220.5 -55t163.5 -150.5t99.5 -224t34.5 -277.5t-34.5 -277.5t-99.5 -224t-163.5 -150.5t-220.5 -55zM612 121q110 0 191 76t120.5 201.5t39.5 283.5
q0 160 -39.5 285.5t-120.5 200.5t-191 75q-109 0 -189 -75t-119.5 -200.5t-39.5 -285.5q0 -158 39.5 -283.5t119.5 -201.5t189 -76z" />
    <glyph glyph-name="Pi" unicode="&#x3a0;" horiz-adv-x="1175" 
d="M1032 0h-164v1223h-561v-1223h-164v1366h889v-1366z" />
    <glyph glyph-name="Rho" unicode="&#x3a1;" horiz-adv-x="997" 
d="M307 0h-164v1366h416q179 0 278 -117.5t99 -292.5t-99.5 -292t-277.5 -117h-252v-547zM543 690q104 0 164.5 73.5t60.5 192.5t-60.5 193t-164.5 74h-236v-533h236z" />
    <glyph glyph-name="Sigma" unicode="&#x3a3;" horiz-adv-x="923" 
d="M285 1223l352 -518l-358 -560h555v-145h-736v147l355 555l-353 521v143h734v-143h-549z" />
    <glyph glyph-name="Tau" unicode="&#x3a4;" horiz-adv-x="913" 
d="M537 0h-162v1223h-324v143h811v-143h-325v-1223z" />
    <glyph glyph-name="Upsilon" unicode="&#x3a5;" horiz-adv-x="1021" 
d="M592 0h-162v578l-422 788h182l322 -631l322 631h180l-422 -788v-578z" />
    <glyph glyph-name="Phi" unicode="&#x3a6;" horiz-adv-x="1423" 
d="M793 0h-162v135q-259 21 -397 171t-138 376q0 225 138 374.5t397 172.5v137h162v-137q257 -21 396.5 -171.5t139.5 -375.5q0 -226 -139 -376t-397 -173v-133zM1159 682q0 163 -93.5 271.5t-272.5 129.5v-802q179 21 272.5 129.5t93.5 271.5zM264 682q0 -163 93.5 -270.5
t273.5 -130.5v800q-180 -21 -273.5 -128.5t-93.5 -270.5z" />
    <glyph glyph-name="Chi" unicode="&#x3a7;" horiz-adv-x="1044" 
d="M1028 0h-188l-318 565l-317 -565h-189l408 698l-385 668h190l293 -537l293 537h191l-385 -668z" />
    <glyph glyph-name="Psi" unicode="&#x3a8;" horiz-adv-x="1421" 
d="M793 0h-162v256q-231 20 -359.5 149t-128.5 351v610h164v-606q0 -321 324 -357v963h162v-963q155 18 238 107t83 250v606h164v-608q0 -225 -126.5 -353.5t-358.5 -148.5v-256z" />
    <glyph glyph-name="uni03A9" unicode="&#x3a9;" horiz-adv-x="1212" 
d="M117 145h213q-107 80 -174.5 221.5t-67.5 344.5q0 305 138.5 491.5t379.5 186.5q240 0 379 -186t139 -492q0 -203 -67 -344.5t-174 -221.5h213v-145h-381v145q98 41 168.5 181t70.5 356q0 167 -38.5 291.5t-118 196t-191.5 71.5q-168 0 -259 -152.5t-91 -406.5
q0 -216 72 -356t170 -181v-145h-381v145z" />
    <glyph glyph-name="Iotadieresis" unicode="&#x3aa;" horiz-adv-x="450" 
d="M307 0h-164v1366h164v-1366zM496 1612q0 -36 -28 -63t-65 -27q-38 0 -65 26.5t-27 63.5q0 38 27 65t65 27q37 0 65 -27t28 -65zM139 1612q0 -37 -27 -63.5t-65 -26.5q-37 0 -64.5 26.5t-27.5 63.5q0 38 27.5 65t64.5 27q38 0 65 -27t27 -65z" />
    <glyph glyph-name="Upsilondieresis" unicode="&#x3ab;" horiz-adv-x="1021" 
d="M592 0h-162v578l-422 788h182l322 -631l322 631h180l-422 -788v-578zM780 1612q0 -37 -27.5 -63.5t-64.5 -26.5q-38 0 -65 26.5t-27 63.5q0 38 27 65t65 27q37 0 64.5 -27t27.5 -65zM424 1612q0 -37 -27 -63.5t-65 -26.5q-37 0 -64.5 26.5t-27.5 63.5q0 38 27.5 65
t64.5 27q38 0 65 -27t27 -65z" />
    <glyph glyph-name="alphatonos" unicode="&#x3ac;" horiz-adv-x="1005" 
d="M522 1159h-73l36 408h154zM961 109l12 -125q-41 -9 -74 -9q-170 0 -192 175q-41 -77 -113.5 -126t-153.5 -49q-164 0 -259 141.5t-95 377.5q0 234 94.5 377t259.5 143q77 0 147 -43.5t113 -124.5v143h148v-772q0 -111 78 -111q20 0 35 3zM477 106q69 0 131.5 46.5
t91.5 113.5v453q-29 67 -92 115.5t-131 48.5q-116 0 -176.5 -109t-60.5 -280q0 -110 25 -195.5t79.5 -139t132.5 -53.5z" />
    <glyph glyph-name="epsilontonos" unicode="&#x3ad;" horiz-adv-x="884" 
d="M463 1159h-74l37 408h154zM465 -25q-176 0 -277.5 81.5t-101.5 207.5q0 102 73.5 166t166.5 74q-91 18 -157.5 86t-66.5 158q0 123 106.5 194.5t276.5 71.5q214 0 338 -160l-82 -86q-92 125 -258 125q-101 0 -166 -44t-65 -118q0 -81 63.5 -125.5t163.5 -44.5h185v-121
h-185q-241 0 -241 -166q0 -80 62 -129t167 -49q181 0 291 129l78 -88q-132 -162 -371 -162z" />
    <glyph glyph-name="etatonos" unicode="&#x3ae;" 
d="M496 1159h-74l37 408h153zM817 -377h-147v1082q0 95 -40.5 136.5t-117.5 41.5q-68 0 -131.5 -46t-99.5 -112v-725h-146v989h146v-141q46 69 123.5 117.5t162.5 48.5q250 0 250 -269v-1122z" />
    <glyph glyph-name="iotatonos" unicode="&#x3af;" horiz-adv-x="440" 
d="M242 1159h-74l37 408h153zM332 -25q-197 0 -197 224v790h146v-772q0 -111 79 -111q20 0 35 3l11 -125q-40 -9 -74 -9z" />
    <glyph glyph-name="upsilondieresistonos" unicode="&#x3b0;" horiz-adv-x="964" 
d="M496 1159h-74l37 408h153zM829 1235q0 -37 -27 -63.5t-65 -26.5t-65 26.5t-27 63.5q0 38 27 65t65 27t65 -27t27 -65zM317 1235q0 -37 -27 -63.5t-65 -26.5q-37 0 -64.5 26.5t-27.5 63.5q0 38 27.5 65t64.5 27q38 0 65 -27t27 -65zM475 -25q-168 0 -254 106.5t-86 293.5
v614h146v-612q0 -131 49 -201t145 -70q63 0 111.5 32.5t78 89t44 128t14.5 154.5q0 250 -127 442l133 62q150 -230 150 -504q0 -150 -44.5 -269.5t-137.5 -192.5t-222 -73z" />
    <glyph glyph-name="alpha" unicode="&#x3b1;" horiz-adv-x="1005" 
d="M961 109l12 -125q-41 -9 -74 -9q-170 0 -192 175q-41 -77 -113.5 -126t-153.5 -49q-164 0 -259 141.5t-95 377.5q0 234 94.5 377t259.5 143q77 0 147 -43.5t113 -124.5v143h148v-772q0 -111 78 -111q20 0 35 3zM477 106q69 0 131.5 46.5t91.5 113.5v453q-29 67 -92 115.5
t-131 48.5q-116 0 -176.5 -109t-60.5 -280q0 -110 25 -195.5t79.5 -139t132.5 -53.5z" />
    <glyph glyph-name="beta" unicode="&#x3b2;" horiz-adv-x="983" 
d="M281 936v-670q32 -68 95.5 -114t135.5 -46q110 0 169.5 74.5t59.5 188.5q0 131 -69 198.5t-174 67.5h-56v131h52q98 0 159.5 63.5t61.5 180.5q0 115 -55.5 180t-143.5 65q-104 0 -169.5 -78t-65.5 -241zM281 141v-518h-146v1313q0 120 32 209.5t87 140.5t121 75.5
t143 24.5q158 0 254 -93.5t96 -268.5q0 -122 -65 -207.5t-162 -109.5q99 -17 176.5 -112.5t77.5 -246.5q0 -164 -95 -268.5t-247 -104.5q-86 0 -157 44.5t-115 121.5z" />
    <glyph glyph-name="gamma" unicode="&#x3b3;" horiz-adv-x="835" 
d="M492 -377h-148v289q0 305 -96 588t-256 489h168q113 -162 191 -372.5t93 -415.5q86 157 140.5 372t54.5 416h145q0 -240 -79.5 -502t-212.5 -477v-387z" />
    <glyph glyph-name="delta" unicode="&#x3b4;" horiz-adv-x="976" 
d="M494 -25q-97 0 -176 38t-129 101.5t-76.5 142.5t-26.5 165q0 155 68 272.5t180 188.5q-74 46 -114 102t-40 139q0 114 85 190.5t229 76.5q184 0 301 -127l-68 -101q-39 50 -99.5 79.5t-131.5 29.5q-80 0 -128.5 -41t-48.5 -103q0 -45 31.5 -81t82 -64t111.5 -58
t122 -72.5t111.5 -96.5t82 -140t31.5 -194q0 -87 -25 -166t-73 -142.5t-125.5 -101t-173.5 -37.5zM750 422q0 64 -17 118.5t-41.5 91.5t-67 72.5t-76 56t-85.5 48.5q-105 -54 -164 -153.5t-59 -233.5q0 -57 15.5 -111.5t45.5 -101t79.5 -75t111.5 -28.5q63 0 114 28.5
t81.5 75t46.5 101t16 111.5z" />
    <glyph glyph-name="epsilon" unicode="&#x3b5;" horiz-adv-x="884" 
d="M465 -25q-176 0 -277.5 81.5t-101.5 207.5q0 102 73.5 166t166.5 74q-91 18 -157.5 86t-66.5 158q0 123 106.5 194.5t276.5 71.5q214 0 338 -160l-82 -86q-92 125 -258 125q-101 0 -166 -44t-65 -118q0 -81 63.5 -125.5t163.5 -44.5h185v-121h-185q-241 0 -241 -166
q0 -80 62 -129t167 -49q181 0 291 129l78 -88q-132 -162 -371 -162z" />
    <glyph glyph-name="zeta" unicode="&#x3b6;" horiz-adv-x="825" 
d="M610 -96q0 39 -21 55t-71 16q-195 0 -313.5 121.5t-118.5 306.5q0 470 492 834h-467v129h637v-113q-508 -395 -508 -833q0 -135 80.5 -224.5t224.5 -89.5q110 0 160.5 -42t50.5 -130q0 -99 -88 -256h-150q92 143 92 226z" />
    <glyph glyph-name="eta" unicode="&#x3b7;" 
d="M817 -377h-147v1082q0 95 -40.5 136.5t-117.5 41.5q-68 0 -131.5 -46t-99.5 -112v-725h-146v989h146v-141q46 69 123.5 117.5t162.5 48.5q250 0 250 -269v-1122z" />
    <glyph glyph-name="theta" unicode="&#x3b8;" horiz-adv-x="976" 
d="M487 -25q-135 0 -227 94t-133 250t-41 365q0 210 41 365.5t133 248.5t227 93q104 0 182.5 -52.5t126.5 -148.5t71.5 -223t23.5 -283t-24 -283t-71.5 -223.5t-126 -149.5t-182.5 -53zM487 106q237 0 250 517h-497q10 -517 247 -517zM487 1260q-234 0 -247 -508h495
q-3 118 -17.5 208t-43 159t-76 105t-111.5 36z" />
    <glyph glyph-name="iota" unicode="&#x3b9;" horiz-adv-x="440" 
d="M332 -25q-197 0 -197 224v790h146v-772q0 -111 79 -111q20 0 35 3l11 -125q-40 -9 -74 -9z" />
    <glyph glyph-name="kappa" unicode="&#x3ba;" horiz-adv-x="897" 
d="M866 0h-174l-272 446l-139 -178v-268h-146v989h146v-536l411 536h174l-346 -444z" />
    <glyph glyph-name="lambda" unicode="&#x3bb;" horiz-adv-x="835" 
d="M106 1245l-22 131q43 15 98 15q92 -2 151.5 -45.5t94.5 -147.5l395 -1198h-157l-248 811l-246 -811h-160l330 1010l-53 151q-20 56 -46.5 77.5t-70.5 21.5q-39 0 -66 -15z" />
    <glyph glyph-name="uni03BC" unicode="&#x3bc;" horiz-adv-x="974" 
d="M281 45v-422h-146v1366h146v-706q0 -91 42.5 -136t118.5 -45q69 0 131.5 46t96.5 112v729h147v-772q0 -111 80 -111q18 0 33 3l12 -125q-40 -9 -74 -9q-88 0 -134 44t-58 131q-42 -77 -107 -126t-139 -49q-105 0 -149 70z" />
    <glyph glyph-name="nu" unicode="&#x3bd;" horiz-adv-x="835" 
d="M485 0h-149l-324 989h160l252 -831q100 184 157.5 405t57.5 426h145q0 -242 -82 -506.5t-217 -482.5z" />
    <glyph glyph-name="xi" unicode="&#x3be;" horiz-adv-x="825" 
d="M518 -25q-203 0 -317.5 106t-114.5 273q0 130 71.5 218t166.5 112q-92 22 -156 97t-64 182q0 85 50 159.5t133 114.5h-170v129h612v-129h-305q-74 -29 -121 -96.5t-47 -143.5q0 -110 69.5 -170.5t174.5 -60.5h217v-129h-217q-115 0 -187.5 -65.5t-72.5 -196.5
q0 -111 79 -190t226 -79q110 0 160.5 -42t50.5 -130q0 -99 -88 -256h-150q92 143 92 226q0 39 -21 55t-71 16z" />
    <glyph glyph-name="omicron" unicode="&#x3bf;" horiz-adv-x="976" 
d="M487 -25q-126 0 -219 73t-137.5 189t-44.5 259q0 142 44.5 258t137 188t219.5 72q128 0 221.5 -72t138 -187.5t44.5 -258.5t-44.5 -259t-138 -189t-221.5 -73zM487 106q63 0 112 32.5t78.5 87.5t44.5 123.5t15 146.5q0 77 -15 145t-44.5 123t-78.5 87t-112 32
q-62 0 -110 -32t-77.5 -87t-44.5 -123t-15 -145q0 -105 25.5 -191t83 -142.5t138.5 -56.5z" />
    <glyph glyph-name="pi" unicode="&#x3c0;" horiz-adv-x="1011" 
d="M848 0h-148v860h-389v-860h-147v860h-131v129h948v-129h-133v-860z" />
    <glyph glyph-name="rho" unicode="&#x3c1;" horiz-adv-x="978" 
d="M541 -25q-77 0 -146 43.5t-114 124.5v-520h-146v873q0 143 41.5 258.5t128.5 187.5t207 72q121 0 209.5 -70.5t131 -186t42.5 -261.5q0 -235 -94.5 -378t-259.5 -143zM504 106q116 0 176.5 109.5t60.5 280.5q0 166 -58 276.5t-171 110.5q-76 0 -130 -56.5t-77.5 -141.5
t-23.5 -189v-226q31 -67 93.5 -115.5t129.5 -48.5z" />
    <glyph glyph-name="sigma1" unicode="&#x3c2;" horiz-adv-x="811" 
d="M518 -25q-196 0 -314 144.5t-118 376.5q0 147 49 264t143 185.5t218 68.5q177 0 282 -131l-80 -101q-74 101 -190 101q-127 0 -197.5 -110.5t-70.5 -276.5q0 -175 80 -282.5t217 -107.5q113 0 165 -42t52 -130q0 -99 -88 -256h-144q94 146 94 226q0 39 -23 55t-75 16z
" />
    <glyph glyph-name="sigma" unicode="&#x3c3;" horiz-adv-x="976" 
d="M883 461q0 -77 -15.5 -147.5t-47.5 -132.5t-78.5 -107.5t-111.5 -72t-143 -26.5q-125 0 -217.5 72t-138 188.5t-45.5 260.5q0 100 27 188t78.5 156.5t136 108.5t190.5 40h418v-131h-205q152 -152 152 -397zM737 477q0 128 -42.5 227.5t-119.5 153.5h-57q-72 0 -127.5 -31
t-87.5 -83.5t-47.5 -115t-15.5 -132.5q0 -105 25.5 -191t83 -142.5t138.5 -56.5q63 0 112 32t78.5 85.5t44.5 118t15 135.5z" />
    <glyph glyph-name="tau" unicode="&#x3c4;" horiz-adv-x="755" 
d="M500 -25q-197 0 -197 224v661h-260v129h670v-129h-262v-635q0 -119 79 -119q55 0 86 39l46 -110q-63 -60 -162 -60z" />
    <glyph glyph-name="upsilon" unicode="&#x3c5;" horiz-adv-x="964" 
d="M475 -25q-168 0 -254 106.5t-86 293.5v614h146v-612q0 -131 49 -201t145 -70q63 0 111.5 32.5t78 89t44 128t14.5 154.5q0 250 -127 442l133 62q150 -230 150 -504q0 -150 -44.5 -269.5t-137.5 -192.5t-222 -73z" />
    <glyph glyph-name="phi" unicode="&#x3c6;" horiz-adv-x="1304" 
d="M1219 496q0 -103 -29.5 -191t-88.5 -158t-154.5 -113.5t-219.5 -53.5v-357h-147v357q-125 10 -221 54t-155 115t-88.5 161.5t-29.5 199.5q0 178 84 304.5t231 199.5l66 -115q-227 -116 -227 -389q0 -78 18 -143t57 -120t106 -90.5t159 -45.5v903h71q144 0 254.5 -40
t178 -111.5t101.5 -164t34 -202.5zM1065 496q0 103 -34 184.5t-111.5 136t-192.5 62.5v-768q91 10 158.5 45t105.5 88.5t56 116t18 135.5z" />
    <glyph glyph-name="chi" unicode="&#x3c7;" horiz-adv-x="831" 
d="M807 -377h-158l-233 553l-234 -553h-157l301 696l-285 670h158l217 -524l215 524h160l-285 -670z" />
    <glyph glyph-name="psi" unicode="&#x3c8;" horiz-adv-x="1306" 
d="M727 -377h-147v357q-219 15 -332 134t-113 335v540h146v-540q0 -310 299 -338v1255h147v-1255q297 32 297 338v540h147v-540q0 -216 -113.5 -335t-330.5 -134v-357z" />
    <glyph glyph-name="omega" unicode="&#x3c9;" horiz-adv-x="1417" 
d="M1329 496q0 -144 -37 -260.5t-113.5 -188.5t-181.5 -72q-112 0 -185 75t-103 194q-30 -119 -103.5 -194t-185.5 -75q-105 0 -182 72t-114.5 188.5t-37.5 260.5q0 163 55.5 306t157.5 212l102 -90q-86 -63 -123.5 -180t-37.5 -250q0 -104 19.5 -189.5t65.5 -142t111 -56.5
q67 0 113.5 57t66 142t19.5 191v252h147v-252q0 -78 11.5 -146t34.5 -123.5t62 -88t89 -32.5t88.5 32.5t61.5 87.5t35 123.5t12 146.5q0 132 -38 248.5t-124 179.5l104 90q102 -69 156.5 -212t54.5 -306z" />
    <glyph glyph-name="iotadieresis" unicode="&#x3ca;" horiz-adv-x="440" 
d="M492 1235q0 -36 -28 -63t-65 -27q-38 0 -65 26.5t-27 63.5q0 38 27 65t65 27q37 0 65 -27t28 -65zM135 1235q0 -37 -27 -63.5t-65 -26.5q-37 0 -64.5 26.5t-27.5 63.5q0 38 27.5 65t64.5 27q38 0 65 -27t27 -65zM332 -25q-197 0 -197 224v790h146v-772q0 -111 79 -111
q20 0 35 3l11 -125q-40 -9 -74 -9z" />
    <glyph glyph-name="upsilondieresis" unicode="&#x3cb;" horiz-adv-x="964" 
d="M752 1235q0 -36 -28 -63t-65 -27q-38 0 -65 26.5t-27 63.5q0 38 27 65t65 27q37 0 65 -27t28 -65zM395 1235q0 -37 -27 -63.5t-65 -26.5q-37 0 -64.5 26.5t-27.5 63.5q0 38 27.5 65t64.5 27q38 0 65 -27t27 -65zM475 -25q-168 0 -254 106.5t-86 293.5v614h146v-612
q0 -131 49 -201t145 -70q63 0 111.5 32.5t78 89t44 128t14.5 154.5q0 250 -127 442l133 62q150 -230 150 -504q0 -150 -44.5 -269.5t-137.5 -192.5t-222 -73z" />
    <glyph glyph-name="omicrontonos" unicode="&#x3cc;" horiz-adv-x="976" 
d="M508 1159h-74l37 408h154zM487 -25q-126 0 -219 73t-137.5 189t-44.5 259q0 142 44.5 258t137 188t219.5 72q128 0 221.5 -72t138 -187.5t44.5 -258.5t-44.5 -259t-138 -189t-221.5 -73zM487 106q63 0 112 32.5t78.5 87.5t44.5 123.5t15 146.5q0 77 -15 145t-44.5 123
t-78.5 87t-112 32q-62 0 -110 -32t-77.5 -87t-44.5 -123t-15 -145q0 -105 25.5 -191t83 -142.5t138.5 -56.5z" />
    <glyph glyph-name="upsilontonos" unicode="&#x3cd;" horiz-adv-x="964" 
d="M504 1159h-74l37 408h154zM475 -25q-168 0 -254 106.5t-86 293.5v614h146v-612q0 -131 49 -201t145 -70q63 0 111.5 32.5t78 89t44 128t14.5 154.5q0 250 -127 442l133 62q150 -230 150 -504q0 -150 -44.5 -269.5t-137.5 -192.5t-222 -73z" />
    <glyph glyph-name="omegatonos" unicode="&#x3ce;" horiz-adv-x="1417" 
d="M729 1159h-74l37 408h154zM1329 496q0 -144 -37 -260.5t-113.5 -188.5t-181.5 -72q-112 0 -185 75t-103 194q-30 -119 -103.5 -194t-185.5 -75q-105 0 -182 72t-114.5 188.5t-37.5 260.5q0 163 55.5 306t157.5 212l102 -90q-86 -63 -123.5 -180t-37.5 -250
q0 -104 19.5 -189.5t65.5 -142t111 -56.5q67 0 113.5 57t66 142t19.5 191v252h147v-252q0 -78 11.5 -146t34.5 -123.5t62 -88t89 -32.5t88.5 32.5t61.5 87.5t35 123.5t12 146.5q0 132 -38 248.5t-124 179.5l104 90q102 -69 156.5 -212t54.5 -306z" />
    <glyph glyph-name="afii10023" unicode="&#x401;" horiz-adv-x="944" 
d="M766 1577q0 -37 -27.5 -63.5t-64.5 -26.5q-38 0 -65 26.5t-27 63.5q0 38 27 65t65 27q37 0 64.5 -27t27.5 -65zM410 1577q0 -37 -27.5 -63.5t-65.5 -26.5q-37 0 -64.5 26.5t-27.5 63.5q0 38 27.5 65t64.5 27q38 0 65.5 -27t27.5 -65zM846 0h-703v1366h703v-143h-539v-453
h524v-143h-524v-482h539v-145z" />
    <glyph glyph-name="afii10051" unicode="&#x402;" horiz-adv-x="1275" 
d="M795 -25v146q105 0 164 65t59 195v63q0 134 -68.5 210.5t-195.5 76.5q-112 0 -217 -31l2 -700h-164v1223h-324v143h811v-143h-325v-379q124 30 233 30q133 0 228 -58.5t139.5 -154t44.5 -217.5v-63q0 -105 -30.5 -185t-84.5 -127t-122 -70.5t-150 -23.5z" />
    <glyph glyph-name="afii10052" unicode="&#x403;" horiz-adv-x="923" 
d="M770 1776l-274 -295h-107l232 295h149zM307 0h-164v1366h703v-143h-539v-1223z" />
    <glyph glyph-name="afii10053" unicode="&#x404;" horiz-adv-x="1091" 
d="M627 -25q-160 0 -281.5 91.5t-185.5 251.5t-64 364q0 205 64 365t185.5 251t281.5 91q259 0 399 -267l-135 -63q-43 86 -110 135t-154 49q-148 0 -245 -131t-116 -342h563v-143h-565q12 -225 110.5 -365.5t252.5 -140.5q90 0 158 55t108 148l137 -64
q-31 -62 -66.5 -109.5t-83.5 -89t-112.5 -64t-140.5 -22.5z" />
    <glyph glyph-name="afii10054" unicode="&#x405;" horiz-adv-x="962" 
d="M467 -25q-256 0 -408 172l91 125q56 -67 139 -109t178 -42q122 0 186 64t64 159q0 53 -21 96t-57 74t-82 57.5t-97 50.5t-102.5 49.5t-97.5 59t-82 73.5t-57 98t-21 128q0 157 111 258t281 101q223 0 364 -144l-86 -123q-109 121 -283 121q-95 0 -158 -57t-63 -148
q0 -58 34 -104t88.5 -78.5t120 -63t131.5 -68t120.5 -84t88.5 -120t34 -166.5q0 -77 -26 -144.5t-75.5 -120.5t-130.5 -83.5t-184 -30.5z" />
    <glyph glyph-name="afii10055" unicode="&#x406;" horiz-adv-x="450" 
d="M307 0h-164v1366h164v-1366z" />
    <glyph glyph-name="afii10056" unicode="&#x407;" horiz-adv-x="450" 
d="M307 0h-164v1366h164v-1366zM496 1577q0 -36 -28 -63t-65 -27q-38 0 -65 26.5t-27 63.5q0 38 27 65t65 27q37 0 65 -27t28 -65zM139 1577q0 -37 -27 -63.5t-65 -26.5q-37 0 -64.5 26.5t-27.5 63.5q0 38 27.5 65t64.5 27q38 0 65 -27t27 -65z" />
    <glyph glyph-name="afii10057" unicode="&#x408;" horiz-adv-x="815" 
d="M305 -25q-176 0 -287 125l74 127q86 -106 201 -106q102 0 159.5 60.5t57.5 172.5v1012h162v-1016q0 -186 -100.5 -280.5t-266.5 -94.5z" />
    <glyph glyph-name="afii10058" unicode="&#x409;" horiz-adv-x="1722" 
d="M51 -25v146q54 0 90 19t68.5 74.5t54.5 161.5t39 275l66 715h663v-547h252q121 0 208 -57t128 -148t41 -204q0 -175 -99 -292.5t-278 -117.5h-414v1223h-354l-53 -584q-16 -171 -44 -292t-62.5 -192.5t-85 -112.5t-100.5 -54t-120 -13zM1268 676h-236v-531h236
q104 0 164.5 73t60.5 192t-60.5 192.5t-164.5 73.5z" />
    <glyph glyph-name="afii10059" unicode="&#x40a;" horiz-adv-x="1722" 
d="M143 0v1366h164v-592h563v592h162v-592h264q117 0 201 -54t124 -140t40 -193t-39.5 -193t-123.5 -140t-202 -54h-426v631h-563v-631h-164zM1032 145h248q98 0 155.5 66.5t57.5 175.5t-57.5 176.5t-155.5 67.5h-248v-486z" />
    <glyph glyph-name="afii10060" unicode="&#x40b;" horiz-adv-x="1290" 
d="M1012 0v436q0 140 -65.5 217.5t-192.5 77.5q-112 0 -217 -31l2 -700h-164v1223h-324v143h811v-143h-325v-379q124 30 233 30q199 0 301.5 -120.5t102.5 -317.5v-436h-162z" />
    <glyph glyph-name="afii10061" unicode="&#x40c;" horiz-adv-x="1042" 
d="M811 1776l-274 -295h-107l232 295h149zM1016 0h-197l-399 602l-113 -164v-438h-164v1366h164v-709l477 709h193l-457 -649z" />
    <glyph glyph-name="afii10062" unicode="&#x40e;" horiz-adv-x="1021" 
d="M229 -25q-65 0 -122.5 21t-94.5 57l58 133q63 -63 147 -63q60 0 96 32t72 111l39 101l-416 999h180l322 -807l326 807h178l-482 -1163q-49 -117 -119.5 -172.5t-183.5 -55.5zM813 1610q-54 -71 -132.5 -111.5t-168.5 -40.5q-91 0 -170 41t-133 111l76 61q37 -54 97 -85.5
t130 -31.5q69 0 128.5 31.5t96.5 85.5z" />
    <glyph glyph-name="afii10145" unicode="&#x40f;" horiz-adv-x="1175" 
d="M143 0v1366h164v-1221h563v1221h162v-1366h-362v-262h-162v262h-365z" />
    <glyph glyph-name="afii10017" unicode="&#x410;" horiz-adv-x="1046" 
d="M1030 0h-176l-88 309h-485l-88 -309h-177l410 1366h195zM731 453l-209 733l-207 -733h416z" />
    <glyph glyph-name="afii10018" unicode="&#x411;" horiz-adv-x="997" 
d="M143 1366h713v-143h-549v-404h252q178 0 277.5 -117t99.5 -292t-99 -292.5t-278 -117.5h-416v1366zM543 676h-236v-531h236q104 0 164.5 73t60.5 192t-60.5 192.5t-164.5 73.5z" />
    <glyph glyph-name="afii10019" unicode="&#x412;" horiz-adv-x="1056" 
d="M608 0h-465v1366h453q159 0 248.5 -95t89.5 -253q0 -124 -58 -205.5t-151 -107.5q99 -15 165 -113t66 -223q0 -170 -90 -269.5t-258 -99.5zM565 770q100 0 150.5 62t50.5 163t-50.5 164.5t-150.5 63.5h-258v-453h258zM575 145q104 0 158.5 63t54.5 177q0 104 -55 173
t-158 69h-268v-482h268z" />
    <glyph glyph-name="afii10020" unicode="&#x413;" horiz-adv-x="923" 
d="M307 0h-164v1366h703v-143h-539v-1223z" />
    <glyph glyph-name="afii10021" unicode="&#x414;" horiz-adv-x="1206" 
d="M51 -252v383q37 3 61.5 11t51.5 28t45.5 56t37 93.5t32 143t24.5 201.5l66 702h663v-1221h123v-397h-162v252h-780v-252h-162zM463 651q-37 -382 -170 -506h577v1078h-354z" />
    <glyph glyph-name="afii10022" unicode="&#x415;" horiz-adv-x="944" 
d="M846 0h-703v1366h703v-143h-539v-453h524v-143h-524v-482h539v-145z" />
    <glyph glyph-name="afii10024" unicode="&#x416;" horiz-adv-x="1519" 
d="M219 0h-194l495 717l-459 649h195l422 -633v633h162v-635l424 635h194l-459 -649l496 -717h-195l-399 602l-61 -92v-510h-162v514l-60 88z" />
    <glyph glyph-name="afii10025" unicode="&#x417;" horiz-adv-x="997" 
d="M479 -25q-141 0 -252 64t-168 164l107 96q49 -80 130 -129t177 -49q128 0 194 69t66 191q0 127 -74.5 187.5t-195.5 60.5h-215v143h209q114 0 185 58.5t71 170.5q0 118 -67 179t-179 61q-169 0 -285 -162l-104 92q64 100 169.5 157.5t233.5 57.5q114 0 203 -39
t143 -122.5t54 -200.5q0 -122 -73.5 -208t-180.5 -111q108 -15 190 -106t82 -230q0 -174 -113 -284t-307 -110z" />
    <glyph glyph-name="afii10026" unicode="&#x418;" horiz-adv-x="1171" 
d="M301 0h-158v1366h164v-1016l557 1016h164v-1366h-162v1036z" />
    <glyph glyph-name="afii10027" unicode="&#x419;" horiz-adv-x="1171" 
d="M301 0h-158v1366h164v-1016l557 1016h164v-1366h-162v1036zM887 1610q-54 -71 -132.5 -111.5t-168.5 -40.5q-91 0 -170 41t-133 111l75 61q37 -54 97.5 -85.5t130.5 -31.5q69 0 128.5 31.5t96.5 85.5z" />
    <glyph glyph-name="afii10028" unicode="&#x41a;" horiz-adv-x="1042" 
d="M1016 0h-197l-399 602l-113 -164v-438h-164v1366h164v-709l477 709h193l-457 -649z" />
    <glyph glyph-name="afii10029" unicode="&#x41b;" horiz-adv-x="1175" 
d="M51 -25v146q54 0 90 19t68.5 74.5t54.5 161.5t39 275l66 715h663v-1366h-164v1223h-352l-53 -584q-16 -171 -44 -292t-62.5 -192.5t-85 -112.5t-100.5 -54t-120 -13z" />
    <glyph glyph-name="afii10030" unicode="&#x41c;" horiz-adv-x="1398" 
d="M1255 0h-159v1073l-365 -1073h-63l-361 1073v-1073h-164v1366h228l329 -971l332 971h223v-1366z" />
    <glyph glyph-name="afii10031" unicode="&#x41d;" horiz-adv-x="1175" 
d="M1032 0h-164v631h-561v-631h-164v1366h164v-592h561v592h164v-1366z" />
    <glyph glyph-name="afii10032" unicode="&#x41e;" horiz-adv-x="1226" 
d="M612 -25q-122 0 -220.5 55t-162.5 150.5t-98.5 224t-34.5 277.5t34.5 277.5t98.5 224t162.5 150.5t220.5 55t220.5 -55t163.5 -150.5t99.5 -224t34.5 -277.5t-34.5 -277.5t-99.5 -224t-163.5 -150.5t-220.5 -55zM612 121q110 0 191 76t120.5 201.5t39.5 283.5
q0 160 -39.5 285.5t-120.5 200.5t-191 75q-109 0 -189 -75t-119.5 -200.5t-39.5 -285.5q0 -158 39.5 -283.5t119.5 -201.5t189 -76z" />
    <glyph glyph-name="afii10033" unicode="&#x41f;" horiz-adv-x="1175" 
d="M1032 0h-164v1223h-561v-1223h-164v1366h889v-1366z" />
    <glyph glyph-name="afii10034" unicode="&#x420;" horiz-adv-x="997" 
d="M307 0h-164v1366h416q179 0 278 -117.5t99 -292.5t-99.5 -292t-277.5 -117h-252v-547zM543 690q104 0 164.5 73.5t60.5 192.5t-60.5 193t-164.5 74h-236v-533h236z" />
    <glyph glyph-name="afii10035" unicode="&#x421;" horiz-adv-x="1091" 
d="M627 -25q-160 0 -281.5 91.5t-185.5 251.5t-64 364q0 205 64 365t185.5 251t281.5 91q259 0 399 -267l-135 -63q-43 86 -110 135t-154 49q-108 0 -191.5 -72.5t-127.5 -200t-44 -288.5t44 -288.5t127.5 -200t191.5 -72.5q90 0 158 55t108 148l137 -64
q-31 -62 -66.5 -109.5t-83.5 -89t-112.5 -64t-140.5 -22.5z" />
    <glyph glyph-name="afii10036" unicode="&#x422;" horiz-adv-x="913" 
d="M537 0h-162v1223h-324v143h811v-143h-325v-1223z" />
    <glyph glyph-name="afii10037" unicode="&#x423;" horiz-adv-x="1021" 
d="M229 -25q-65 0 -122.5 21t-94.5 57l58 133q63 -63 147 -63q60 0 96 32t72 111l39 101l-416 999h180l322 -807l326 807h178l-482 -1163q-49 -117 -119.5 -172.5t-183.5 -55.5z" />
    <glyph glyph-name="afii10038" unicode="&#x424;" horiz-adv-x="1423" 
d="M793 0h-162v135q-259 21 -397 171t-138 376q0 225 138 374.5t397 172.5v137h162v-137q257 -21 396.5 -171.5t139.5 -375.5q0 -226 -139 -376t-397 -173v-133zM1159 682q0 163 -93.5 271.5t-272.5 129.5v-802q179 21 272.5 129.5t93.5 271.5zM264 682q0 -163 93.5 -270.5
t273.5 -130.5v800q-180 -21 -273.5 -128.5t-93.5 -270.5z" />
    <glyph glyph-name="afii10039" unicode="&#x425;" horiz-adv-x="1044" 
d="M1028 0h-188l-318 565l-317 -565h-189l408 698l-385 668h190l293 -537l293 537h191l-385 -668z" />
    <glyph glyph-name="afii10040" unicode="&#x426;" horiz-adv-x="1206" 
d="M993 -252v252h-850v1366h164v-1221h563v1221h162v-1221h123v-397h-162z" />
    <glyph glyph-name="afii10041" unicode="&#x427;" horiz-adv-x="1050" 
d="M270 1366v-381q0 -140 65.5 -217.5t192.5 -77.5q110 0 215 31v645h164v-1366h-164v578q-128 -31 -231 -31q-199 0 -301 120.5t-102 317.5v381h161z" />
    <glyph glyph-name="afii10042" unicode="&#x428;" horiz-adv-x="1626" 
d="M1319 1366h162v-1366h-1336v1366h162v-1221h426v1221h162v-1221h424v1221z" />
    <glyph glyph-name="afii10043" unicode="&#x429;" horiz-adv-x="1660" 
d="M1325 1366h162v-1221h123v-397h-162v252h-1298v1366h161v-1221h426v1221h162v-1221h426v1221z" />
    <glyph glyph-name="afii10044" unicode="&#x42a;" horiz-adv-x="1228" 
d="M791 0h-416v1223h-324v143h486v-547h254q178 0 277 -117t99 -292t-98.5 -292.5t-277.5 -117.5zM774 676h-237v-531h237q104 0 164.5 73t60.5 192t-60.5 192.5t-164.5 73.5z" />
    <glyph glyph-name="afii10045" unicode="&#x42b;" horiz-adv-x="1384" 
d="M143 1366h164v-547h252q178 0 277.5 -117t99.5 -292t-99 -292.5t-278 -117.5h-416v1366zM543 676h-236v-531h236q104 0 164.5 73t60.5 192t-60.5 192.5t-164.5 73.5zM1239 0h-162v1366h162v-1366z" />
    <glyph glyph-name="afii10046" unicode="&#x42c;" horiz-adv-x="997" 
d="M143 1366h164v-547h252q178 0 277.5 -117t99.5 -292t-99 -292.5t-278 -117.5h-416v1366zM543 676h-236v-531h236q104 0 164.5 73t60.5 192t-60.5 192.5t-164.5 73.5z" />
    <glyph glyph-name="afii10047" unicode="&#x42d;" horiz-adv-x="1091" 
d="M467 -25q-263 0 -406 285l138 64q40 -93 108.5 -148t159.5 -55q154 0 250.5 140.5t107.5 365.5h-563v143h561q-18 211 -113 342t-243 131q-88 0 -155.5 -49t-110.5 -135l-135 63q140 267 401 267q159 0 279.5 -91t184.5 -251t64 -365q0 -204 -63.5 -364t-184.5 -251.5
t-280 -91.5z" />
    <glyph glyph-name="afii10048" unicode="&#x42e;" horiz-adv-x="1644" 
d="M1030 -25q-155 0 -271 87.5t-177.5 234t-69.5 334.5h-205v-631h-164v1366h164v-592h207q14 178 76.5 315t176.5 218.5t263 81.5q122 0 220.5 -55t163.5 -150.5t99.5 -224t34.5 -277.5t-34.5 -277.5t-99.5 -224t-163.5 -150.5t-220.5 -55zM1030 121q109 0 189 76
t119.5 201.5t39.5 283.5q0 160 -39.5 285.5t-119.5 200.5t-189 75q-110 0 -190.5 -75t-120 -200.5t-39.5 -285.5q0 -158 39.5 -283.5t120 -201.5t190.5 -76z" />
    <glyph glyph-name="afii10049" unicode="&#x42f;" horiz-adv-x="1042" 
d="M276 0h-184l287 571q-53 10 -100 37.5t-86.5 73t-63 117t-23.5 159.5q0 185 104.5 296.5t270.5 111.5h416v-1366h-162v547h-196zM500 690h235v533h-235q-104 0 -165 -74t-61 -193t61 -192.5t165 -73.5z" />
    <glyph glyph-name="afii10065" unicode="&#x430;" horiz-adv-x="923" 
d="M791 0h-148v106q-46 -65 -114 -98t-146 -33q-125 0 -212 90t-87 240t86 238t213 88q79 0 147.5 -31.5t112.5 -95.5v172q0 101 -53 156t-150 55q-140 0 -247 -121l-66 104q138 144 336 144q154 0 241 -79.5t87 -242.5v-692zM430 82q66 0 123 32.5t90 92.5v188
q-33 61 -90 94t-123 33q-90 0 -143.5 -62t-53.5 -157t53.5 -158t143.5 -63z" />
    <glyph glyph-name="afii10066" unicode="&#x431;" horiz-adv-x="983" 
d="M487 106q62 0 111 32t78 87.5t44 124.5t15 148q0 104 -25 188.5t-83 140.5t-140 56q-62 0 -110 -32t-77.5 -86.5t-44.5 -122t-15 -144.5q0 -79 15 -148t44.5 -124.5t77.5 -87.5t110 -32zM487 -25q-191 0 -296 156t-105 410q0 189 21 315t72.5 212t130 131t200.5 67
q115 21 160 44t45 56h145q0 -44 -19.5 -80t-48 -58t-74 -40.5t-83.5 -27.5t-90 -19q-165 -31 -237.5 -105.5t-92.5 -210.5q41 81 116.5 135t178.5 54q119 0 206.5 -72t130 -187.5t42.5 -256.5q0 -143 -44.5 -259.5t-137.5 -190t-220 -73.5z" />
    <glyph glyph-name="afii10067" unicode="&#x432;" horiz-adv-x="950" 
d="M553 0h-418v989h410q130 0 202 -69t72 -185q0 -86 -42 -143t-113 -80q76 -20 125 -89.5t49 -154.5q0 -124 -73 -196t-212 -72zM526 125q78 0 119 41.5t41 116.5q0 69 -41 116t-119 47h-245v-321h245zM518 569q74 0 112 41.5t38 106.5q0 66 -37.5 107.5t-112.5 41.5h-237
v-297h237z" />
    <glyph glyph-name="afii10068" unicode="&#x433;" horiz-adv-x="745" 
d="M698 989v-129h-417v-860h-146v989h563z" />
    <glyph glyph-name="afii10069" unicode="&#x434;" horiz-adv-x="980" 
d="M37 -252v369q48 8 77 33t54 104t39 223l49 512h561v-860h113v-381h-146v252h-600v-252h-147zM391 860l-37 -397q-25 -251 -121 -334h439v731h-281z" />
    <glyph glyph-name="afii10070" unicode="&#x435;" horiz-adv-x="958" 
d="M510 -25q-195 0 -309.5 145t-114.5 376q0 144 47.5 261t139.5 187t214 70q126 0 216 -71t133 -187t43 -264v-46h-641q5 -154 80 -251t204 -97q65 0 128 31.5t108 89.5l78 -86q-129 -158 -326 -158zM733 555q-1 61 -15 117.5t-42 107t-77.5 81t-113.5 30.5
q-62 0 -111 -31.5t-77 -82.5t-42.5 -107.5t-16.5 -114.5h495z" />
    <glyph glyph-name="afii10072" unicode="&#x436;" horiz-adv-x="1212" 
d="M205 0h-174l344 545l-344 444h172l329 -432v432h148v-430l328 430h174l-346 -444l346 -545h-174l-271 446l-57 -73v-373h-148v373l-57 73z" />
    <glyph glyph-name="afii10073" unicode="&#x437;" horiz-adv-x="884" 
d="M420 -25q-239 0 -371 162l80 88q106 -129 289 -129q105 0 168 49t63 129q0 166 -241 166h-185v121h183q101 0 164 44.5t63 125.5q0 74 -64.5 118t-165.5 44q-166 0 -258 -125l-82 86q124 160 336 160q171 0 277 -71.5t106 -194.5q0 -90 -66 -158t-157 -86
q93 -10 166.5 -74t73.5 -166q0 -126 -100.5 -207.5t-278.5 -81.5z" />
    <glyph glyph-name="afii10074" unicode="&#x438;" 
d="M281 0h-146v989h146v-719l385 719h151v-989h-145v735z" />
    <glyph glyph-name="afii10075" unicode="&#x439;" 
d="M281 0h-146v989h146v-719l385 719h151v-989h-145v735zM778 1268q-54 -71 -132.5 -111.5t-168.5 -40.5q-91 0 -170 41t-133 111l76 61q37 -54 97 -85.5t130 -31.5q69 0 128.5 31.5t96.5 85.5z" />
    <glyph glyph-name="afii10076" unicode="&#x43a;" horiz-adv-x="897" 
d="M866 0h-174l-272 446l-139 -178v-268h-146v989h146v-536l411 536h174l-346 -444z" />
    <glyph glyph-name="afii10077" unicode="&#x43b;" 
d="M37 -25v127q46 0 76.5 30.5t55 114.5t38.5 230l49 512h561v-989h-145v860h-281l-37 -397q-17 -184 -60 -293.5t-104.5 -152t-152.5 -42.5z" />
    <glyph glyph-name="afii10078" unicode="&#x43c;" horiz-adv-x="1148" 
d="M1016 0h-146v745l-264 -745h-61l-264 745v-745h-146v989h193l247 -696l248 696h193v-989z" />
    <glyph glyph-name="afii10079" unicode="&#x43d;" 
d="M281 0h-146v989h146v-411h391v411h145v-989h-145v449h-391v-449z" />
    <glyph glyph-name="afii10080" unicode="&#x43e;" horiz-adv-x="976" 
d="M487 -25q-126 0 -219 73t-137.5 189t-44.5 259q0 142 44.5 258t137 188t219.5 72q128 0 221.5 -72t138 -187.5t44.5 -258.5t-44.5 -259t-138 -189t-221.5 -73zM487 106q63 0 112 32.5t78.5 87.5t44.5 123.5t15 146.5q0 77 -15 145t-44.5 123t-78.5 87t-112 32
q-62 0 -110 -32t-77.5 -87t-44.5 -123t-15 -145q0 -105 25.5 -191t83 -142.5t138.5 -56.5z" />
    <glyph glyph-name="afii10081" unicode="&#x43f;" 
d="M817 0h-145v860h-391v-860h-146v989h682v-989z" />
    <glyph glyph-name="afii10082" unicode="&#x440;" horiz-adv-x="978" 
d="M541 -25q-77 0 -146 43.5t-114 124.5v-520h-146v1366h146v-141q43 76 113 121t147 45q165 0 259.5 -141t94.5 -377q0 -235 -94.5 -378t-259.5 -143zM504 106q116 0 176.5 109.5t60.5 280.5q0 110 -25 195.5t-79.5 138.5t-132.5 53q-67 0 -130 -46.5t-93 -113.5v-453
q31 -67 93.5 -115.5t129.5 -48.5z" />
    <glyph glyph-name="afii10083" unicode="&#x441;" horiz-adv-x="831" 
d="M496 -25q-186 0 -298 148t-112 373q0 147 49 264t143 185.5t218 68.5q177 0 282 -131l-80 -101q-74 101 -190 101q-127 0 -197.5 -110.5t-70.5 -276.5q0 -108 29.5 -195t91.5 -141t147 -54q114 0 190 101l80 -101q-102 -131 -282 -131z" />
    <glyph glyph-name="afii10084" unicode="&#x442;" horiz-adv-x="696" 
d="M422 0h-148v860h-227v129h602v-129h-227v-860z" />
    <glyph glyph-name="afii10085" unicode="&#x443;" horiz-adv-x="835" 
d="M84 -387l22 131q25 -14 66 -14q44 0 70.5 21.5t46.5 76.5l53 152l-330 1009h160l246 -811l248 811h157l-395 -1198q-36 -104 -95.5 -148t-150.5 -44q-58 0 -98 14z" />
    <glyph glyph-name="afii10086" unicode="&#x444;" horiz-adv-x="1390" 
d="M401 1014q66 0 124.5 -43t97.5 -123v518h145v-516q37 75 96 119.5t125 44.5q139 0 219 -141t80 -377q0 -235 -80 -378t-219 -143q-67 0 -125.5 42.5t-95.5 123.5v-518h-145v516q-35 -76 -95 -120t-127 -44q-139 0 -219 142t-80 377q0 236 80 378t219 142zM442 883
q-63 0 -107 -53.5t-63.5 -139t-19.5 -196.5q0 -109 20.5 -195t65 -139.5t106.5 -53.5q54 0 104.5 47.5t74.5 114.5v453q-24 67 -75 114.5t-106 47.5zM946 106q62 0 106.5 53.5t65.5 140t21 196.5t-20 195.5t-64 138.5t-107 53q-55 0 -105.5 -46.5t-74.5 -113.5v-453
q24 -67 74 -115.5t104 -48.5z" />
    <glyph glyph-name="afii10087" unicode="&#x445;" horiz-adv-x="831" 
d="M807 0h-164l-227 397l-228 -397h-163l301 504l-285 485h164l211 -377l211 377h164l-285 -485z" />
    <glyph glyph-name="afii10088" unicode="&#x446;" horiz-adv-x="980" 
d="M784 -252v252h-649v989h146v-860h391v860h145v-860h113v-381h-146z" />
    <glyph glyph-name="afii10089" unicode="&#x447;" horiz-adv-x="929" 
d="M113 989h147v-313q0 -100 44 -141t142 -41q55 0 112 14.5t91 36.5v444h148v-989h-148v428q-44 -28 -111.5 -47t-131.5 -19q-156 0 -224.5 65.5t-68.5 205.5v356z" />
    <glyph glyph-name="afii10090" unicode="&#x448;" horiz-adv-x="1363" 
d="M1081 989h148v-989h-1094v989h146v-860h327v860h148v-860h325v860z" />
    <glyph glyph-name="afii10091" unicode="&#x449;" horiz-adv-x="1396" 
d="M1081 989h148v-860h119v-381h-148v252h-1065v989h146v-860h327v860h148v-860h325v860z" />
    <glyph glyph-name="afii10092" unicode="&#x44a;" horiz-adv-x="1042" 
d="M664 0h-390v860h-227v129h375v-387h242q147 0 225 -86t78 -215t-79 -215t-224 -86zM647 477h-225v-352h225q81 0 124.5 48.5t43.5 127.5q0 80 -43 128t-125 48z" />
    <glyph glyph-name="afii10093" unicode="&#x44b;" horiz-adv-x="1253" 
d="M135 989h146v-387h241q147 0 226 -86t79 -215t-79 -215t-226 -86h-387v989zM508 477h-227v-352h227q81 0 124.5 48.5t43.5 127.5q0 80 -43 128t-125 48zM1118 0h-145v989h145v-989z" />
    <glyph glyph-name="afii10094" unicode="&#x44c;" horiz-adv-x="901" 
d="M135 989h146v-387h241q147 0 226 -86t79 -215t-79 -215t-226 -86h-387v989zM508 477h-227v-352h227q81 0 124.5 48.5t43.5 127.5q0 80 -43 128t-125 48z" />
    <glyph glyph-name="afii10095" unicode="&#x44d;" horiz-adv-x="831" 
d="M336 -25q-181 0 -283 131l78 95q78 -103 193 -103q116 0 184.5 94.5t79.5 243.5h-398v129h398q-13 144 -82 235t-182 91q-115 0 -193 -103l-78 95q105 131 283 131q125 0 219 -68.5t142 -185.5t48 -264q0 -226 -111 -373.5t-298 -147.5z" />
    <glyph glyph-name="afii10096" unicode="&#x44e;" horiz-adv-x="1341" 
d="M852 -25q-120 0 -210 65.5t-137 171t-54 237.5h-170v-449h-146v989h146v-411h174q20 191 123.5 313.5t273.5 122.5q97 0 174.5 -41.5t126.5 -113t74.5 -164.5t25.5 -199t-25.5 -199.5t-74.5 -165.5t-126.5 -114t-174.5 -42zM852 106q63 0 112 32.5t78 87.5t43.5 123.5
t14.5 146.5q0 77 -14.5 145t-43.5 123t-78 87t-112 32q-82 0 -140 -56.5t-83 -141.5t-25 -189q0 -105 25 -191t83 -142.5t140 -56.5z" />
    <glyph glyph-name="afii10097" unicode="&#x44f;" horiz-adv-x="948" 
d="M270 0h-168l220 403q-90 18 -149.5 93.5t-59.5 191.5q0 131 81 216t224 85h395v-989h-147v387h-197zM432 512h234v352h-234q-80 0 -124 -48.5t-44 -127.5q0 -80 43 -128t125 -48z" />
    <glyph glyph-name="afii10071" unicode="&#x451;" horiz-adv-x="958" 
d="M758 1235q0 -37 -27.5 -63.5t-64.5 -26.5q-38 0 -65.5 26.5t-27.5 63.5q0 38 27.5 65t65.5 27q37 0 64.5 -27t27.5 -65zM401 1235q0 -37 -27 -63.5t-65 -26.5q-37 0 -64.5 26.5t-27.5 63.5q0 38 27.5 65t64.5 27q38 0 65 -27t27 -65zM510 -25q-195 0 -309.5 145
t-114.5 376q0 144 47.5 261t139.5 187t214 70q126 0 216 -71t133 -187t43 -264v-46h-641q5 -154 80 -251t204 -97q65 0 128 31.5t108 89.5l78 -86q-129 -158 -326 -158zM733 555q-1 61 -15 117.5t-42 107t-77.5 81t-113.5 30.5q-62 0 -111 -31.5t-77 -82.5t-42.5 -107.5
t-16.5 -114.5h495z" />
    <glyph glyph-name="afii10099" unicode="&#x452;" horiz-adv-x="968" 
d="M578 1098h-281v-250q46 69 125 117.5t164 48.5q126 0 187 -65.5t61 -200.5v-869q0 -280 -246 -280q-57 0 -95 16.5t-73 52.5l53 109q43 -53 100 -53q115 0 115 155v828q0 94 -41 135t-119 41q-68 0 -131.5 -46t-99.5 -112v-725h-145v1098h-121v94h121v174h145v-174h281
v-94z" />
    <glyph glyph-name="afii10100" unicode="&#x453;" horiz-adv-x="745" 
d="M702 1434l-274 -295h-106l231 295h149zM698 989v-129h-417v-860h-146v989h563z" />
    <glyph glyph-name="afii10101" unicode="&#x454;" horiz-adv-x="831" 
d="M496 -25q-186 0 -298 148t-112 373q0 147 49 264t143 185.5t218 68.5q177 0 282 -131l-78 -95q-78 103 -192 103t-183 -90.5t-83 -235.5h399v-129h-399q13 -150 82 -244t184 -94q114 0 192 103l78 -95q-102 -131 -282 -131z" />
    <glyph glyph-name="afii10102" unicode="&#x455;" horiz-adv-x="792" 
d="M389 -25q-212 0 -334 140l74 104q45 -55 113.5 -90t144.5 -35q86 0 138.5 44.5t52.5 115.5q0 47 -27 82t-71 57.5t-96.5 43.5t-105 46t-96.5 57.5t-71 85.5t-27 122q0 114 85.5 190t229.5 76q184 0 301 -127l-69 -101q-37 50 -98 79.5t-132 29.5q-80 0 -128 -40.5
t-48 -102.5q0 -38 21 -67.5t56 -48.5t79.5 -39t90.5 -37.5t90.5 -44.5t79.5 -59t56 -83t21 -115q0 -125 -90 -204t-240 -79z" />
    <glyph glyph-name="afii10103" unicode="&#x456;" horiz-adv-x="415" 
d="M207 1133q-40 0 -70.5 29.5t-30.5 70.5t30.5 70.5t70.5 29.5q41 0 70.5 -29.5t29.5 -70.5t-29.5 -70.5t-70.5 -29.5zM281 0h-146v989h146v-989z" />
    <glyph glyph-name="afii10104" unicode="&#x457;" horiz-adv-x="415" 
d="M477 1235q0 -37 -27.5 -63.5t-64.5 -26.5q-38 0 -65 26.5t-27 63.5q0 38 27 65t65 27q37 0 64.5 -27t27.5 -65zM121 1235q0 -37 -27 -63.5t-65 -26.5q-37 0 -64.5 26.5t-27.5 63.5q0 38 27.5 65t64.5 27q38 0 65 -27t27 -65zM281 0h-146v989h146v-989z" />
    <glyph glyph-name="afii10105" unicode="&#x458;" horiz-adv-x="415" 
d="M207 1133q-40 0 -70.5 29.5t-30.5 70.5t30.5 70.5t70.5 29.5q41 0 70.5 -29.5t29.5 -70.5t-29.5 -70.5t-70.5 -29.5zM35 -401q-105 0 -168 69l53 109q43 -53 100 -53q115 0 115 155v1110h146v-1110q0 -280 -246 -280z" />
    <glyph glyph-name="afii10106" unicode="&#x459;" horiz-adv-x="1439" 
d="M37 -25v127q46 0 76.5 30.5t55 114.5t38.5 230l49 512h561v-387h242q147 0 226 -86t79 -215t-79 -215t-226 -86h-387v860h-281l-37 -397q-17 -184 -60 -293.5t-104.5 -152t-152.5 -42.5zM1044 477h-227v-352h227q81 0 124.5 48.5t43.5 127.5q0 80 -43 128t-125 48z" />
    <glyph glyph-name="afii10107" unicode="&#x45a;" horiz-adv-x="1439" 
d="M281 0h-146v989h146v-411h391v411h145v-411h250q144 0 220.5 -82t76.5 -209q0 -123 -77.5 -205t-219.5 -82h-395v449h-391v-449zM1053 453h-236v-328h236q76 0 117.5 45t41.5 119q0 75 -41 119.5t-118 44.5z" />
    <glyph glyph-name="afii10108" unicode="&#x45b;" horiz-adv-x="968" 
d="M584 1098h-287v-250q46 69 125 117.5t164 48.5q126 0 187 -64.5t61 -199.5v-750h-146v707q0 94 -41 135t-119 41q-68 0 -131.5 -46t-99.5 -112v-725h-145v1098h-121v94h121v174h145v-174h287v-94z" />
    <glyph glyph-name="afii10109" unicode="&#x45c;" horiz-adv-x="897" 
d="M735 1434l-274 -295h-107l232 295h149zM866 0h-174l-272 446l-139 -178v-268h-146v989h146v-536l411 536h174l-346 -444z" />
    <glyph glyph-name="afii10110" unicode="&#x45e;" horiz-adv-x="835" 
d="M84 -387l22 131q25 -14 66 -14q44 0 70.5 21.5t46.5 76.5l53 152l-330 1009h160l246 -811l248 811h157l-395 -1198q-36 -104 -95.5 -148t-150.5 -44q-58 0 -98 14zM719 1268q-54 -71 -132.5 -111.5t-168.5 -40.5q-91 0 -170 41t-133 111l75 61q37 -54 97.5 -85.5
t130.5 -31.5q69 0 128.5 31.5t96.5 85.5z" />
    <glyph glyph-name="afii10193" unicode="&#x45f;" 
d="M403 -256v256h-268v989h146v-860h391v860h145v-989h-266v-256h-148z" />
    <glyph glyph-name="afii10050" unicode="&#x490;" horiz-adv-x="923" 
d="M307 1223v-1223h-164v1366h541v252h162v-395h-539z" />
    <glyph glyph-name="afii10098" unicode="&#x491;" horiz-adv-x="745" 
d="M281 860v-860h-146v989h416v256h147v-385h-417z" />
    <glyph glyph-name="uni1E02" unicode="&#x1e02;" horiz-adv-x="1056" 
d="M608 0h-465v1366h453q159 0 248.5 -95t89.5 -253q0 -124 -58 -205.5t-151 -107.5q99 -15 165 -113t66 -223q0 -170 -90 -269.5t-258 -99.5zM565 770q100 0 150.5 62t50.5 163t-50.5 164.5t-150.5 63.5h-258v-453h258zM575 145q104 0 158.5 63t54.5 177q0 104 -55 173
t-158 69h-268v-482h268zM528 1481q-37 0 -65.5 27.5t-28.5 66.5q0 38 28.5 65t65.5 27q38 0 65.5 -27t27.5 -65q0 -39 -27.5 -66.5t-65.5 -27.5z" />
    <glyph glyph-name="uni1E03" unicode="&#x1e03;" horiz-adv-x="983" 
d="M281 266q30 -67 93 -113.5t130 -46.5q78 0 132.5 53.5t79.5 139t25 195.5q0 171 -60.5 280t-176.5 109q-67 0 -129.5 -48.5t-93.5 -115.5v-453zM281 0h-146v1366h146v-520q45 81 114 124.5t146 43.5q165 0 259.5 -143t94.5 -377q0 -236 -94.5 -377.5t-259.5 -141.5
q-77 0 -147 45t-113 121v-141zM506 1481q-37 0 -65.5 27.5t-28.5 66.5q0 38 28.5 65t65.5 27q38 0 65 -27t27 -65q0 -40 -27 -67t-65 -27z" />
    <glyph glyph-name="uni1E0A" unicode="&#x1e0a;" horiz-adv-x="1155" 
d="M508 0h-365v1366h365q173 0 298.5 -90t188 -243t62.5 -351t-62.5 -351t-188 -242t-298.5 -89zM508 145q123 0 210 71t129 190.5t42 275.5q0 241 -98.5 391t-282.5 150h-201v-1078h201zM578 1481q-38 0 -66.5 27.5t-28.5 66.5q0 38 29 65t66 27q38 0 65 -27t27 -65
q0 -40 -27 -67t-65 -27z" />
    <glyph glyph-name="uni1E0B" unicode="&#x1e0b;" horiz-adv-x="983" 
d="M848 0h-148v141q-43 -76 -113 -121t-147 -45q-164 0 -259 141.5t-95 377.5q0 234 94.5 377t259.5 143q77 0 147 -43.5t113 -124.5v520h148v-1366zM477 106q69 0 131.5 46.5t91.5 113.5v455q-29 67 -92 114.5t-131 47.5q-116 0 -176.5 -109t-60.5 -280q0 -110 25 -195.5
t79.5 -139t132.5 -53.5zM479 1481q-37 0 -65.5 27.5t-28.5 66.5q0 38 28.5 65t65.5 27q38 0 65 -27t27 -65q0 -40 -27 -67t-65 -27z" />
    <glyph glyph-name="uni1E1E" unicode="&#x1e1e;" horiz-adv-x="923" 
d="M500 1481q-37 0 -65.5 27.5t-28.5 66.5q0 38 28.5 65t65.5 27q38 0 65 -27t27 -65q0 -40 -27 -67t-65 -27zM307 0h-164v1366h703v-143h-539v-453h524v-143h-524v-627z" />
    <glyph glyph-name="uni1E1F" unicode="&#x1e1f;" horiz-adv-x="520" 
d="M418 1481q-37 0 -65.5 27.5t-28.5 66.5q0 38 28.5 65t65.5 27q38 0 65 -27t27 -65q0 -40 -27 -67t-65 -27zM317 0h-147v860h-131v129h131v121q0 129 66 202.5t182 73.5q108 0 176 -65l-57 -104q-42 45 -97 45q-61 0 -92 -39.5t-31 -112.5v-121h168v-129h-168v-860z" />
    <glyph glyph-name="uni1E22" unicode="&#x1e22;" horiz-adv-x="1175" 
d="M1032 0h-164v631h-561v-631h-164v1366h164v-592h561v592h164v-1366zM588 1481q-37 0 -65.5 27.5t-28.5 66.5q0 38 28.5 65t65.5 27q38 0 65 -27t27 -65q0 -40 -27 -67t-65 -27z" />
    <glyph glyph-name="uni1E23" unicode="&#x1e23;" 
d="M817 0h-145v707q0 94 -41 135t-119 41q-68 0 -131.5 -46t-99.5 -112v-725h-146v1366h146v-518q46 69 124.5 117.5t163.5 48.5q126 0 187 -64.5t61 -199.5v-750zM477 1481q-37 0 -65.5 27.5t-28.5 66.5q0 38 28.5 65t65.5 27q38 0 65 -27t27 -65q0 -40 -27 -67t-65 -27z
" />
    <glyph glyph-name="uni1E56" unicode="&#x1e56;" horiz-adv-x="997" 
d="M307 0h-164v1366h416q179 0 278 -117.5t99 -292.5t-99.5 -292t-277.5 -117h-252v-547zM543 690q104 0 164.5 73.5t60.5 192.5t-60.5 193t-164.5 74h-236v-533h236zM498 1481q-38 0 -66.5 27.5t-28.5 66.5q0 38 29 65t66 27q38 0 65 -27t27 -65q0 -40 -27 -67t-65 -27z
" />
    <glyph glyph-name="uni1E57" unicode="&#x1e57;" horiz-adv-x="978" 
d="M541 -25q-77 0 -146 43.5t-114 124.5v-520h-146v1366h146v-141q43 76 113 121t147 45q165 0 259.5 -141t94.5 -377q0 -235 -94.5 -378t-259.5 -143zM504 106q116 0 176.5 109.5t60.5 280.5q0 110 -25 195.5t-79.5 138.5t-132.5 53q-67 0 -130 -46.5t-93 -113.5v-453
q31 -67 93.5 -115.5t129.5 -48.5zM506 1139q-37 0 -65.5 27.5t-28.5 66.5q0 38 28.5 65t65.5 27q38 0 65 -27t27 -65q0 -40 -27 -67t-65 -27z" />
    <glyph glyph-name="uni1E60" unicode="&#x1e60;" horiz-adv-x="962" 
d="M467 -25q-256 0 -408 172l91 125q56 -67 139 -109t178 -42q122 0 186 64t64 159q0 53 -21 96t-57 74t-82 57.5t-97 50.5t-102.5 49.5t-97.5 59t-82 73.5t-57 98t-21 128q0 157 111 258t281 101q223 0 364 -144l-86 -123q-109 121 -283 121q-95 0 -158 -57t-63 -148
q0 -58 34 -104t88.5 -78.5t120 -63t131.5 -68t120.5 -84t88.5 -120t34 -166.5q0 -77 -26 -144.5t-75.5 -120.5t-130.5 -83.5t-184 -30.5zM481 1481q-37 0 -65.5 27.5t-28.5 66.5q0 38 28.5 65t65.5 27q38 0 65 -27t27 -65q0 -40 -27 -67t-65 -27z" />
    <glyph glyph-name="uni1E61" unicode="&#x1e61;" horiz-adv-x="792" 
d="M389 -25q-212 0 -334 140l74 104q45 -55 113.5 -90t144.5 -35q86 0 138.5 44.5t52.5 115.5q0 47 -27 82t-71 57.5t-96.5 43.5t-105 46t-96.5 57.5t-71 85.5t-27 122q0 114 85.5 190t229.5 76q184 0 301 -127l-69 -101q-37 50 -98 79.5t-132 29.5q-80 0 -128 -40.5
t-48 -102.5q0 -38 21 -67.5t56 -48.5t79.5 -39t90.5 -37.5t90.5 -44.5t79.5 -59t56 -83t21 -115q0 -125 -90 -204t-240 -79zM397 1139q-37 0 -65.5 27.5t-28.5 66.5q0 38 28.5 65t65.5 27q38 0 65 -27t27 -65q0 -40 -27 -67t-65 -27z" />
    <glyph glyph-name="uni1E6A" unicode="&#x1e6a;" horiz-adv-x="913" 
d="M537 0h-162v1223h-324v143h811v-143h-325v-1223zM457 1481q-38 0 -66.5 27.5t-28.5 66.5q0 38 29 65t66 27q38 0 65 -27t27 -65q0 -40 -27 -67t-65 -27z" />
    <glyph glyph-name="uni1E6B" unicode="&#x1e6b;" horiz-adv-x="538" 
d="M362 -25q-198 0 -198 224v661h-131v129h131v271h147v-271h168v-129h-168v-635q0 -119 80 -119q55 0 86 39l45 -110q-60 -60 -160 -60zM246 1481q-37 0 -65.5 27.5t-28.5 66.5q0 38 28.5 65t65.5 27q38 0 65 -27t27 -65q0 -40 -27 -67t-65 -27z" />
    <glyph glyph-name="Wgrave" unicode="&#x1e80;" horiz-adv-x="1464" 
d="M1128 0h-174l-223 1077l-221 -1077h-174l-303 1366h174l223 -1114l234 1114h137l233 -1114l223 1114h175zM827 1481h-106l-275 295h150z" />
    <glyph glyph-name="wgrave" unicode="&#x1e81;" horiz-adv-x="1306" 
d="M1016 0h-152l-211 795l-213 -795h-149l-264 989h153l193 -790l209 790h139l211 -790l194 790h154zM750 1139h-107l-274 295h149z" />
    <glyph glyph-name="Wacute" unicode="&#x1e82;" horiz-adv-x="1464" 
d="M1022 1776l-274 -295h-107l231 295h150zM1128 0h-174l-223 1077l-221 -1077h-174l-303 1366h174l223 -1114l234 1114h137l233 -1114l223 1114h175z" />
    <glyph glyph-name="wacute" unicode="&#x1e83;" horiz-adv-x="1306" 
d="M938 1434l-274 -295h-107l231 295h150zM1016 0h-152l-211 795l-213 -795h-149l-264 989h153l193 -790l209 790h139l211 -790l194 790h154z" />
    <glyph glyph-name="Wdieresis" unicode="&#x1e84;" horiz-adv-x="1464" 
d="M1004 1577q0 -36 -28 -63t-65 -27q-38 0 -65 26.5t-27 63.5q0 38 27 65t65 27q37 0 65 -27t28 -65zM647 1577q0 -37 -27 -63.5t-65 -26.5q-37 0 -64.5 26.5t-27.5 63.5q0 38 27.5 65t64.5 27q38 0 65 -27t27 -65zM1128 0h-174l-223 1077l-221 -1077h-174l-303 1366h174
l223 -1114l234 1114h137l233 -1114l223 1114h175z" />
    <glyph glyph-name="wdieresis" unicode="&#x1e85;" horiz-adv-x="1306" 
d="M924 1235q0 -36 -28 -63t-65 -27q-38 0 -65 26.5t-27 63.5q0 38 27 65t65 27q37 0 65 -27t28 -65zM567 1235q0 -37 -27 -63.5t-65 -26.5q-37 0 -64.5 26.5t-27.5 63.5q0 38 27.5 65t64.5 27q38 0 65 -27t27 -65zM1016 0h-152l-211 795l-213 -795h-149l-264 989h153
l193 -790l209 790h139l211 -790l194 790h154z" />
    <glyph glyph-name="uni1EA0" unicode="&#x1ea0;" horiz-adv-x="1046" 
d="M1030 0h-176l-88 309h-485l-88 -309h-177l410 1366h195zM731 453l-209 733l-207 -733h416zM524 -375q-37 0 -65.5 27.5t-28.5 66.5q0 38 28.5 65.5t65.5 27.5q38 0 65 -27.5t27 -65.5q0 -40 -27 -67t-65 -27z" />
    <glyph glyph-name="uni1EA1" unicode="&#x1ea1;" horiz-adv-x="923" 
d="M791 0h-148v106q-46 -65 -114 -98t-146 -33q-125 0 -212 90t-87 240t86 238t213 88q79 0 147.5 -31.5t112.5 -95.5v172q0 101 -53 156t-150 55q-140 0 -247 -121l-66 104q138 144 336 144q154 0 241 -79.5t87 -242.5v-692zM430 82q66 0 123 32.5t90 92.5v188
q-33 61 -90 94t-123 33q-90 0 -143.5 -62t-53.5 -157t53.5 -158t143.5 -63zM463 -375q-37 0 -65.5 27.5t-28.5 66.5q0 38 28.5 65.5t65.5 27.5q38 0 65 -27.5t27 -65.5q0 -40 -27 -67t-65 -27z" />
    <glyph glyph-name="uni1EA2" unicode="&#x1ea2;" horiz-adv-x="1046" 
d="M1030 0h-176l-88 309h-485l-88 -309h-177l410 1366h195zM731 453l-209 733l-207 -733h416zM457 1559l-66 16q13 47 47 75.5t86 28.5q57 0 93 -33.5t36 -99.5q0 -61 -39 -119h-75q47 56 47 117q0 35 -17 53.5t-45 18.5q-52 0 -67 -57z" />
    <glyph glyph-name="uni1EA3" unicode="&#x1ea3;" horiz-adv-x="923" 
d="M791 0h-148v106q-46 -65 -114 -98t-146 -33q-125 0 -212 90t-87 240t86 238t213 88q79 0 147.5 -31.5t112.5 -95.5v172q0 101 -53 156t-150 55q-140 0 -247 -121l-66 104q138 144 336 144q154 0 241 -79.5t87 -242.5v-692zM430 82q66 0 123 32.5t90 92.5v188
q-33 61 -90 94t-123 33q-90 0 -143.5 -62t-53.5 -157t53.5 -158t143.5 -63zM395 1210l-65 17q13 47 47 75.5t86 28.5q57 0 93 -33.5t36 -99.5q0 -61 -39 -119h-76q47 56 47 117q0 35 -17 53.5t-44 18.5q-52 0 -68 -58z" />
    <glyph glyph-name="uni1EA4" unicode="&#x1ea4;" horiz-adv-x="1046" 
d="M764 1397h-96l-146 162l-141 -162h-94l164 221h143zM1030 0h-176l-88 309h-485l-88 -309h-177l410 1366h195zM731 453l-209 733l-207 -733h416zM1087 1729l-274 -222h-106l231 222h149z" />
    <glyph glyph-name="uni1EA5" unicode="&#x1ea5;" horiz-adv-x="923" 
d="M791 0h-148v106q-46 -65 -114 -98t-146 -33q-125 0 -212 90t-87 240t86 238t213 88q79 0 147.5 -31.5t112.5 -95.5v172q0 101 -53 156t-150 55q-140 0 -247 -121l-66 104q138 144 336 144q154 0 241 -79.5t87 -242.5v-692zM430 82q66 0 123 32.5t90 92.5v188
q-33 61 -90 94t-123 33q-90 0 -143.5 -62t-53.5 -157t53.5 -158t143.5 -63zM707 1139h-97l-145 215l-141 -215h-95l164 295h144zM1020 1579l-275 -295h-106l231 295h150z" />
    <glyph glyph-name="uni1EA6" unicode="&#x1ea6;" horiz-adv-x="1046" 
d="M764 1397h-96l-146 162l-141 -162h-94l164 221h143zM1030 0h-176l-88 309h-485l-88 -309h-177l410 1366h195zM731 453l-209 733l-207 -733h416zM342 1507h-106l-275 222h150z" />
    <glyph glyph-name="uni1EA7" unicode="&#x1ea7;" horiz-adv-x="923" 
d="M791 0h-148v106q-46 -65 -114 -98t-146 -33q-125 0 -212 90t-87 240t86 238t213 88q79 0 147.5 -31.5t112.5 -95.5v172q0 101 -53 156t-150 55q-140 0 -247 -121l-66 104q138 144 336 144q154 0 241 -79.5t87 -242.5v-692zM430 82q66 0 123 32.5t90 92.5v188
q-33 61 -90 94t-123 33q-90 0 -143.5 -62t-53.5 -157t53.5 -158t143.5 -63zM707 1139h-97l-145 215l-141 -215h-95l164 295h144zM289 1284h-107l-274 295h149z" />
    <glyph glyph-name="uni1EA8" unicode="&#x1ea8;" horiz-adv-x="1046" 
d="M764 1397h-96l-146 162l-141 -162h-94l164 221h143zM1030 0h-176l-88 309h-485l-88 -309h-177l410 1366h195zM731 453l-209 733l-207 -733h416zM705 1620l-66 12q13 35 47 56.5t86 21.5q57 0 93 -24.5t36 -73.5q0 -45 -39 -90h-76q48 42 48 88q0 53 -62 53q-52 0 -67 -43
z" />
    <glyph glyph-name="uni1EA9" unicode="&#x1ea9;" horiz-adv-x="923" 
d="M791 0h-148v106q-46 -65 -114 -98t-146 -33q-125 0 -212 90t-87 240t86 238t213 88q79 0 147.5 -31.5t112.5 -95.5v172q0 101 -53 156t-150 55q-140 0 -247 -121l-66 104q138 144 336 144q154 0 241 -79.5t87 -242.5v-692zM430 82q66 0 123 32.5t90 92.5v188
q-33 61 -90 94t-123 33q-90 0 -143.5 -62t-53.5 -157t53.5 -158t143.5 -63zM707 1139h-97l-145 215l-141 -215h-95l164 295h144zM561 1497l-65 16q13 47 47 76t86 29q57 0 93 -33.5t36 -99.5q0 -61 -39 -119h-76q47 56 47 117q0 35 -16.5 53t-44.5 18q-53 0 -68 -57z" />
    <glyph glyph-name="uni1EAA" unicode="&#x1eaa;" horiz-adv-x="1046" 
d="M764 1389h-96l-146 106l-141 -106h-94l164 147h143zM1030 0h-176l-88 309h-485l-88 -309h-177l410 1366h195zM731 453l-209 733l-207 -733h416zM625 1550q-36 0 -64 10t-44.5 24t-31 28.5t-32 24.5t-39.5 10q-36 0 -59 -23.5t-23 -67.5h-86q0 61 44.5 99.5t129.5 38.5
q36 0 64 -10t44.5 -24t31 -28.5t32 -24.5t39.5 -10q36 0 59 23t23 68h86q0 -61 -44.5 -99.5t-129.5 -38.5z" />
    <glyph glyph-name="uni1EAB" unicode="&#x1eab;" horiz-adv-x="923" 
d="M791 0h-148v106q-46 -65 -114 -98t-146 -33q-125 0 -212 90t-87 240t86 238t213 88q79 0 147.5 -31.5t112.5 -95.5v172q0 101 -53 156t-150 55q-140 0 -247 -121l-66 104q138 144 336 144q154 0 241 -79.5t87 -242.5v-692zM430 82q66 0 123 32.5t90 92.5v188
q-33 61 -90 94t-123 33q-90 0 -143.5 -62t-53.5 -157t53.5 -158t143.5 -63zM707 1071h-97l-145 215l-141 -215h-95l164 295h144zM563 1397q-36 0 -64 20t-44.5 48t-31 56t-32 48t-39.5 20q-36 0 -59 -45.5t-23 -134.5h-86q0 122 44.5 198t129.5 76q36 0 64 -19.5t44.5 -47.5
t31 -56t32 -47.5t39.5 -19.5q36 0 59 44.5t23 133.5h86q0 -122 -44.5 -198t-129.5 -76z" />
    <glyph glyph-name="uni1EAC" unicode="&#x1eac;" horiz-adv-x="1046" 
d="M1030 0h-176l-88 309h-485l-88 -309h-177l410 1366h195zM731 453l-209 733l-207 -733h416zM764 1481h-96l-146 215l-141 -215h-94l164 295h143zM524 -375q-37 0 -65.5 27.5t-28.5 66.5q0 38 28.5 65.5t65.5 27.5q38 0 65 -27.5t27 -65.5q0 -40 -27 -67t-65 -27z" />
    <glyph glyph-name="uni1EAD" unicode="&#x1ead;" horiz-adv-x="923" 
d="M791 0h-148v106q-46 -65 -114 -98t-146 -33q-125 0 -212 90t-87 240t86 238t213 88q79 0 147.5 -31.5t112.5 -95.5v172q0 101 -53 156t-150 55q-140 0 -247 -121l-66 104q138 144 336 144q154 0 241 -79.5t87 -242.5v-692zM430 82q66 0 123 32.5t90 92.5v188
q-33 61 -90 94t-123 33q-90 0 -143.5 -62t-53.5 -157t53.5 -158t143.5 -63zM700 1139h-96l-145 215l-142 -215h-94l164 295h143zM463 -375q-37 0 -65.5 27.5t-28.5 66.5q0 38 28.5 65.5t65.5 27.5q38 0 65 -27.5t27 -65.5q0 -40 -27 -67t-65 -27z" />
    <glyph glyph-name="uni1EAE" unicode="&#x1eae;" horiz-adv-x="1046" 
d="M1030 0h-176l-88 309h-485l-88 -309h-177l410 1366h195zM731 453l-209 733l-207 -733h416zM805 1716l-275 -200h-106l231 200h150zM825 1534q-54 -61 -132 -96t-169 -35t-170.5 35t-132.5 96l76 53q37 -46 97 -73t130 -27q68 0 128.5 27t97.5 73z" />
    <glyph glyph-name="uni1EAF" unicode="&#x1eaf;" horiz-adv-x="923" 
d="M791 0h-148v106q-46 -65 -114 -98t-146 -33q-125 0 -212 90t-87 240t86 238t213 88q79 0 147.5 -31.5t112.5 -95.5v172q0 101 -53 156t-150 55q-140 0 -247 -121l-66 104q138 144 336 144q154 0 241 -79.5t87 -242.5v-692zM430 82q66 0 123 32.5t90 92.5v188
q-33 61 -90 94t-123 33q-90 0 -143.5 -62t-53.5 -157t53.5 -158t143.5 -63zM750 1569l-275 -295h-106l231 295h150zM766 1223q-54 -71 -132.5 -111.5t-168.5 -40.5q-91 0 -170 41t-133 111l76 61q37 -54 97 -85.5t130 -31.5q69 0 128.5 31.5t96.5 85.5z" />
    <glyph glyph-name="uni1EB0" unicode="&#x1eb0;" horiz-adv-x="1046" 
d="M1030 0h-176l-88 309h-485l-88 -309h-177l410 1366h195zM731 453l-209 733l-207 -733h416zM625 1516h-107l-274 200h149zM825 1530q-54 -61 -132 -96t-169 -35t-170.5 35t-132.5 96l76 53q37 -46 97 -73t130 -27q68 0 128.5 27t97.5 73z" />
    <glyph glyph-name="uni1EB1" unicode="&#x1eb1;" horiz-adv-x="923" 
d="M791 0h-148v106q-46 -65 -114 -98t-146 -33q-125 0 -212 90t-87 240t86 238t213 88q79 0 147.5 -31.5t112.5 -95.5v172q0 101 -53 156t-150 55q-140 0 -247 -121l-66 104q138 144 336 144q154 0 241 -79.5t87 -242.5v-692zM430 82q66 0 123 32.5t90 92.5v188
q-33 61 -90 94t-123 33q-90 0 -143.5 -62t-53.5 -157t53.5 -158t143.5 -63zM557 1274h-106l-275 295h150zM766 1227q-54 -71 -132.5 -111.5t-168.5 -40.5q-91 0 -170 41t-133 111l76 61q37 -54 97 -85.5t130 -31.5q69 0 128.5 31.5t96.5 85.5z" />
    <glyph glyph-name="uni1EB2" unicode="&#x1eb2;" horiz-adv-x="1046" 
d="M1030 0h-176l-88 309h-485l-88 -309h-177l410 1366h195zM731 453l-209 733l-207 -733h416zM457 1614l-66 10q13 32 47 52t86 20q57 0 93 -23.5t36 -68.5q0 -41 -39 -80h-75q47 38 47 80q0 24 -17 36.5t-45 12.5q-51 0 -67 -39zM825 1532q-54 -61 -132 -96t-169 -35
t-170.5 35t-132.5 96l76 53q37 -46 97 -73t130 -27q68 0 128.5 27t97.5 73z" />
    <glyph glyph-name="uni1EB3" unicode="&#x1eb3;" horiz-adv-x="923" 
d="M791 0h-148v106q-46 -65 -114 -98t-146 -33q-125 0 -212 90t-87 240t86 238t213 88q79 0 147.5 -31.5t112.5 -95.5v172q0 101 -53 156t-150 55q-140 0 -247 -121l-66 104q138 144 336 144q154 0 241 -79.5t87 -242.5v-692zM430 82q66 0 123 32.5t90 92.5v188
q-33 61 -90 94t-123 33q-90 0 -143.5 -62t-53.5 -157t53.5 -158t143.5 -63zM399 1399l-65 16q13 47 47 76t86 29q57 0 93 -34t36 -100q0 -60 -39 -118h-76q47 56 47 116q0 35 -17 53.5t-44 18.5q-53 0 -68 -57zM766 1227q-54 -71 -132.5 -111.5t-168.5 -40.5q-91 0 -170 41
t-133 111l76 61q37 -54 97 -85.5t130 -31.5q69 0 128.5 31.5t96.5 85.5z" />
    <glyph glyph-name="uni1EB4" unicode="&#x1eb4;" horiz-adv-x="1046" 
d="M1030 0h-176l-88 309h-485l-88 -309h-177l410 1366h195zM731 453l-209 733l-207 -733h416zM825 1495q-54 -45 -132.5 -71.5t-168.5 -26.5t-169.5 26.5t-133.5 71.5l76 39q38 -35 98 -55.5t129 -20.5q68 0 128 21t98 55zM625 1550q-36 0 -64 10t-44.5 24t-31 28.5
t-32 24.5t-39.5 10q-36 0 -59 -23.5t-23 -67.5h-86q0 61 44.5 99.5t129.5 38.5q36 0 64 -10t44.5 -24t31 -28.5t32 -24.5t39.5 -10q36 0 59 23t23 68h86q0 -61 -44.5 -99.5t-129.5 -38.5z" />
    <glyph glyph-name="uni1EB5" unicode="&#x1eb5;" horiz-adv-x="923" 
d="M791 0h-148v106q-46 -65 -114 -98t-146 -33q-125 0 -212 90t-87 240t86 238t213 88q79 0 147.5 -31.5t112.5 -95.5v172q0 101 -53 156t-150 55q-140 0 -247 -121l-66 104q138 144 336 144q154 0 241 -79.5t87 -242.5v-692zM430 82q66 0 123 32.5t90 92.5v188
q-33 61 -90 94t-123 33q-90 0 -143.5 -62t-53.5 -157t53.5 -158t143.5 -63zM766 1227q-54 -71 -132.5 -111.5t-168.5 -40.5q-91 0 -170 41t-133 111l76 61q37 -54 97 -85.5t130 -31.5q69 0 128.5 31.5t96.5 85.5zM561 1331q-36 0 -64 20t-44.5 48.5t-31 56.5t-32 48
t-39.5 20q-36 0 -59 -46t-23 -135h-86q0 122 44.5 198.5t129.5 76.5q44 0 76.5 -30t48 -65.5t38 -65.5t48.5 -30q36 0 59 45t23 134h86q0 -122 -44.5 -198.5t-129.5 -76.5z" />
    <glyph glyph-name="uni1EB6" unicode="&#x1eb6;" horiz-adv-x="1046" 
d="M1030 0h-176l-88 309h-485l-88 -309h-177l410 1366h195zM731 453l-209 733l-207 -733h416zM524 -375q-37 0 -65.5 27.5t-28.5 66.5q0 38 28.5 65.5t65.5 27.5q38 0 65 -27.5t27 -65.5q0 -40 -27 -67t-65 -27zM825 1610q-54 -71 -132.5 -111.5t-168.5 -40.5q-91 0 -170 41
t-133 111l76 61q37 -54 97 -85.5t130 -31.5q69 0 129 31.5t97 85.5z" />
    <glyph glyph-name="uni1EB7" unicode="&#x1eb7;" horiz-adv-x="923" 
d="M791 0h-148v106q-46 -65 -114 -98t-146 -33q-125 0 -212 90t-87 240t86 238t213 88q79 0 147.5 -31.5t112.5 -95.5v172q0 101 -53 156t-150 55q-140 0 -247 -121l-66 104q138 144 336 144q154 0 241 -79.5t87 -242.5v-692zM430 82q66 0 123 32.5t90 92.5v188
q-33 61 -90 94t-123 33q-90 0 -143.5 -62t-53.5 -157t53.5 -158t143.5 -63zM463 -375q-37 0 -65.5 27.5t-28.5 66.5q0 38 28.5 65.5t65.5 27.5q38 0 65 -27.5t27 -65.5q0 -40 -27 -67t-65 -27zM764 1268q-54 -71 -132.5 -111.5t-168.5 -40.5q-91 0 -170 41t-133 111l76 61
q37 -54 97 -85.5t130 -31.5q69 0 128.5 31.5t96.5 85.5z" />
    <glyph glyph-name="uni1EB8" unicode="&#x1eb8;" horiz-adv-x="944" 
d="M846 0h-703v1366h703v-143h-539v-453h524v-143h-524v-482h539v-145zM506 -375q-37 0 -65.5 27.5t-28.5 66.5q0 38 28.5 65.5t65.5 27.5q38 0 65 -27.5t27 -65.5q0 -40 -27 -67t-65 -27z" />
    <glyph glyph-name="uni1EB9" unicode="&#x1eb9;" horiz-adv-x="958" 
d="M510 -25q-195 0 -309.5 145t-114.5 376q0 144 47.5 261t139.5 187t214 70q126 0 216 -71t133 -187t43 -264v-46h-641q5 -154 80 -251t204 -97q65 0 128 31.5t108 89.5l78 -86q-129 -158 -326 -158zM733 555q-1 61 -15 117.5t-42 107t-77.5 81t-113.5 30.5
q-62 0 -111 -31.5t-77 -82.5t-42.5 -107.5t-16.5 -114.5h495zM489 -375q-37 0 -65.5 27.5t-28.5 66.5q0 38 28.5 65.5t65.5 27.5q38 0 65.5 -27.5t27.5 -65.5q0 -39 -27 -66.5t-66 -27.5z" />
    <glyph glyph-name="uni1EBA" unicode="&#x1eba;" horiz-adv-x="944" 
d="M846 0h-703v1366h703v-143h-539v-453h524v-143h-524v-482h539v-145zM412 1559l-66 16q13 47 47 75.5t86 28.5q57 0 93 -33.5t36 -99.5q0 -61 -39 -119h-75q47 56 47 117q0 35 -17 53.5t-45 18.5q-52 0 -67 -57z" />
    <glyph glyph-name="uni1EBB" unicode="&#x1ebb;" horiz-adv-x="958" 
d="M510 -25q-195 0 -309.5 145t-114.5 376q0 144 47.5 261t139.5 187t214 70q126 0 216 -71t133 -187t43 -264v-46h-641q5 -154 80 -251t204 -97q65 0 128 31.5t108 89.5l78 -86q-129 -158 -326 -158zM733 555q-1 61 -15 117.5t-42 107t-77.5 81t-113.5 30.5
q-62 0 -111 -31.5t-77 -82.5t-42.5 -107.5t-16.5 -114.5h495zM420 1210l-66 17q13 47 47 75.5t86 28.5q57 0 93 -33.5t36 -99.5q0 -63 -38 -119h-76q47 56 47 117q0 35 -17 53.5t-45 18.5q-51 0 -67 -58z" />
    <glyph glyph-name="uni1EBC" unicode="&#x1ebc;" horiz-adv-x="944" 
d="M846 0h-703v1366h703v-143h-539v-453h524v-143h-524v-482h539v-145zM596 1477q-36 0 -64 20t-44.5 48t-31 56t-32 48t-39.5 20q-36 0 -59 -45.5t-23 -134.5h-86q0 122 44.5 198t129.5 76q36 0 64 -19.5t44.5 -47.5t31 -56t32 -47.5t39.5 -19.5q36 0 59 44.5t23 133.5h86
q0 -122 -44.5 -198t-129.5 -76z" />
    <glyph glyph-name="uni1EBD" unicode="&#x1ebd;" horiz-adv-x="958" 
d="M510 -25q-195 0 -309.5 145t-114.5 376q0 144 47.5 261t139.5 187t214 70q126 0 216 -71t133 -187t43 -264v-46h-641q5 -154 80 -251t204 -97q65 0 128 31.5t108 89.5l78 -86q-129 -158 -326 -158zM733 555q-1 61 -15 117.5t-42 107t-77.5 81t-113.5 30.5
q-62 0 -111 -31.5t-77 -82.5t-42.5 -107.5t-16.5 -114.5h495zM592 1135q-36 0 -64 20t-44.5 48t-31 56t-32 48t-39.5 20q-36 0 -59 -45.5t-23 -134.5h-86q0 122 44.5 198t129.5 76q36 0 64 -19.5t44.5 -47.5t31 -56t32 -47.5t39.5 -19.5q36 0 59 44.5t23 133.5h86
q0 -122 -44.5 -198t-129.5 -76z" />
    <glyph glyph-name="uni1EBE" unicode="&#x1ebe;" horiz-adv-x="944" 
d="M741 1397h-96l-145 162l-142 -162h-94l164 221h143zM1063 1729l-275 -222h-106l231 222h150zM846 0h-703v1366h703v-143h-539v-453h524v-143h-524v-482h539v-145z" />
    <glyph glyph-name="uni1EBF" unicode="&#x1ebf;" horiz-adv-x="958" 
d="M727 1139h-96l-146 215l-141 -215h-94l164 295h143zM1038 1579l-274 -295h-107l232 295h149zM510 -25q-195 0 -309.5 145t-114.5 376q0 144 47.5 261t139.5 187t214 70q126 0 216 -71t133 -187t43 -264v-46h-641q5 -154 80 -251t204 -97q65 0 128 31.5t108 89.5l78 -86
q-129 -158 -326 -158zM733 555q-1 61 -15 117.5t-42 107t-77.5 81t-113.5 30.5q-62 0 -111 -31.5t-77 -82.5t-42.5 -107.5t-16.5 -114.5h495z" />
    <glyph glyph-name="uni1EC0" unicode="&#x1ec0;" horiz-adv-x="944" 
d="M737 1397h-96l-145 162l-142 -162h-94l164 221h143zM846 0h-703v1366h703v-143h-539v-453h524v-143h-524v-482h539v-145zM315 1507h-106l-275 222h150z" />
    <glyph glyph-name="uni1EC1" unicode="&#x1ec1;" horiz-adv-x="958" 
d="M725 1139h-96l-146 215l-141 -215h-94l164 295h143zM510 -25q-195 0 -309.5 145t-114.5 376q0 144 47.5 261t139.5 187t214 70q126 0 216 -71t133 -187t43 -264v-46h-641q5 -154 80 -251t204 -97q65 0 128 31.5t108 89.5l78 -86q-129 -158 -326 -158zM733 555
q-1 61 -15 117.5t-42 107t-77.5 81t-113.5 30.5q-62 0 -111 -31.5t-77 -82.5t-42.5 -107.5t-16.5 -114.5h495zM307 1284h-106l-275 295h150z" />
    <glyph glyph-name="uni1EC2" unicode="&#x1ec2;" horiz-adv-x="944" 
d="M739 1397h-96l-145 162l-142 -162h-94l164 221h143zM846 0h-703v1366h703v-143h-539v-453h524v-143h-524v-482h539v-145zM680 1620l-66 12q13 35 47.5 56.5t86.5 21.5q57 0 93 -24.5t36 -73.5q0 -45 -39 -90h-76q47 41 47 88q0 53 -61 53q-53 0 -68 -43z" />
    <glyph glyph-name="uni1EC3" unicode="&#x1ec3;" horiz-adv-x="958" 
d="M725 1139h-96l-146 215l-141 -215h-94l164 295h143zM510 -25q-195 0 -309.5 145t-114.5 376q0 144 47.5 261t139.5 187t214 70q126 0 216 -71t133 -187t43 -264v-46h-641q5 -154 80 -251t204 -97q65 0 128 31.5t108 89.5l78 -86q-129 -158 -326 -158zM733 555
q-1 61 -15 117.5t-42 107t-77.5 81t-113.5 30.5q-62 0 -111 -31.5t-77 -82.5t-42.5 -107.5t-16.5 -114.5h495zM580 1497l-66 16q13 47 47 76t86 29q57 0 93 -33.5t36 -99.5q0 -61 -39 -119h-75q47 56 47 117q0 35 -17 53t-45 18q-52 0 -67 -57z" />
    <glyph glyph-name="uni1EC4" unicode="&#x1ec4;" horiz-adv-x="944" 
d="M737 1389h-96l-145 106l-142 -106h-94l164 147h143zM846 0h-703v1366h703v-143h-539v-453h524v-143h-524v-482h539v-145zM598 1550q-36 0 -64 10t-44.5 24t-31 28.5t-32 24.5t-39.5 10q-36 0 -59 -23.5t-23 -67.5h-86q0 61 45 99.5t129 38.5q36 0 64 -10t44.5 -24
t31 -28.5t32 -24.5t39.5 -10q36 0 59 23t23 68h86q0 -61 -45 -99.5t-129 -38.5z" />
    <glyph glyph-name="uni1EC5" unicode="&#x1ec5;" horiz-adv-x="958" 
d="M723 1071h-96l-146 215l-141 -215h-94l164 295h143zM510 -25q-195 0 -309.5 145t-114.5 376q0 144 47.5 261t139.5 187t214 70q126 0 216 -71t133 -187t43 -264v-46h-641q5 -154 80 -251t204 -97q65 0 128 31.5t108 89.5l78 -86q-129 -158 -326 -158zM733 555
q-1 61 -15 117.5t-42 107t-77.5 81t-113.5 30.5q-62 0 -111 -31.5t-77 -82.5t-42.5 -107.5t-16.5 -114.5h495zM584 1397q-36 0 -64 20t-44.5 48t-31 56t-32 48t-39.5 20q-36 0 -59 -45.5t-23 -134.5h-86q0 122 44.5 198t129.5 76q36 0 64 -19.5t44.5 -47.5t31 -56t32 -47.5
t39.5 -19.5q36 0 59 44.5t23 133.5h86q0 -122 -44.5 -198t-129.5 -76z" />
    <glyph glyph-name="uni1EC6" unicode="&#x1ec6;" horiz-adv-x="944" 
d="M735 1481h-96l-145 215l-142 -215h-94l164 295h143zM846 0h-703v1366h703v-143h-539v-453h524v-143h-524v-482h539v-145zM506 -375q-37 0 -65.5 27.5t-28.5 66.5q0 38 28.5 65.5t65.5 27.5q38 0 65 -27.5t27 -65.5q0 -40 -27 -67t-65 -27z" />
    <glyph glyph-name="uni1EC7" unicode="&#x1ec7;" horiz-adv-x="958" 
d="M729 1139h-96l-146 215l-141 -215h-94l164 295h143zM510 -25q-195 0 -309.5 145t-114.5 376q0 144 47.5 261t139.5 187t214 70q126 0 216 -71t133 -187t43 -264v-46h-641q5 -154 80 -251t204 -97q65 0 128 31.5t108 89.5l78 -86q-129 -158 -326 -158zM733 555
q-1 61 -15 117.5t-42 107t-77.5 81t-113.5 30.5q-62 0 -111 -31.5t-77 -82.5t-42.5 -107.5t-16.5 -114.5h495zM489 -375q-37 0 -65.5 27.5t-28.5 66.5q0 38 28.5 65.5t65.5 27.5q38 0 65.5 -27.5t27.5 -65.5q0 -39 -27 -66.5t-66 -27.5z" />
    <glyph glyph-name="uni1EC8" unicode="&#x1ec8;" horiz-adv-x="450" 
d="M307 0h-164v1366h164v-1366zM160 1559l-66 16q13 47 47 75.5t86 28.5q57 0 93 -33.5t36 -99.5q0 -61 -39 -119h-75q47 56 47 117q0 35 -17 53.5t-45 18.5q-52 0 -67 -57z" />
    <glyph glyph-name="uni1EC9" unicode="&#x1ec9;" horiz-adv-x="415" 
d="M281 0h-146v989h146v-989zM141 1210l-65 17q13 47 47 75.5t86 28.5q57 0 93 -33.5t36 -99.5q0 -61 -39 -119h-76q47 56 47 117q0 35 -17 53.5t-44 18.5q-52 0 -68 -58z" />
    <glyph glyph-name="uni1ECA" unicode="&#x1eca;" horiz-adv-x="450" 
d="M307 0h-164v1366h164v-1366zM225 -375q-37 0 -65.5 27.5t-28.5 66.5q0 38 28.5 65.5t65.5 27.5q38 0 65 -27.5t27 -65.5q0 -40 -27 -67t-65 -27z" />
    <glyph glyph-name="uni1ECB" unicode="&#x1ecb;" horiz-adv-x="415" 
d="M207 1133q-40 0 -70.5 29.5t-30.5 70.5t30.5 70.5t70.5 29.5q41 0 70.5 -29.5t29.5 -70.5t-29.5 -70.5t-70.5 -29.5zM281 0h-146v989h146v-989zM209 -375q-37 0 -65.5 27.5t-28.5 66.5q0 38 28.5 65.5t65.5 27.5q38 0 65 -27.5t27 -65.5q0 -40 -27 -67t-65 -27z" />
    <glyph glyph-name="uni1ECC" unicode="&#x1ecc;" horiz-adv-x="1226" 
d="M612 -25q-122 0 -220.5 55t-162.5 150.5t-98.5 224t-34.5 277.5t34.5 277.5t98.5 224t162.5 150.5t220.5 55t220.5 -55t163.5 -150.5t99.5 -224t34.5 -277.5t-34.5 -277.5t-99.5 -224t-163.5 -150.5t-220.5 -55zM612 121q110 0 191 76t120.5 201.5t39.5 283.5
q0 160 -39.5 285.5t-120.5 200.5t-191 75q-109 0 -189 -75t-119.5 -200.5t-39.5 -285.5q0 -158 39.5 -283.5t119.5 -201.5t189 -76zM618 -375q-37 0 -65.5 27.5t-28.5 66.5q0 38 28.5 65.5t65.5 27.5q38 0 65.5 -27.5t27.5 -65.5q0 -39 -27.5 -66.5t-65.5 -27.5z" />
    <glyph glyph-name="uni1ECD" unicode="&#x1ecd;" horiz-adv-x="976" 
d="M487 -25q-126 0 -219 73t-137.5 189t-44.5 259q0 142 44.5 258t137 188t219.5 72q128 0 221.5 -72t138 -187.5t44.5 -258.5t-44.5 -259t-138 -189t-221.5 -73zM487 106q63 0 112 32.5t78.5 87.5t44.5 123.5t15 146.5q0 77 -15 145t-44.5 123t-78.5 87t-112 32
q-62 0 -110 -32t-77.5 -87t-44.5 -123t-15 -145q0 -105 25.5 -191t83 -142.5t138.5 -56.5zM489 -375q-37 0 -65.5 27.5t-28.5 66.5q0 38 28.5 65.5t65.5 27.5q38 0 65.5 -27.5t27.5 -65.5q0 -39 -27 -66.5t-66 -27.5z" />
    <glyph glyph-name="uni1ECE" unicode="&#x1ece;" horiz-adv-x="1226" 
d="M612 -25q-122 0 -220.5 55t-162.5 150.5t-98.5 224t-34.5 277.5t34.5 277.5t98.5 224t162.5 150.5t220.5 55t220.5 -55t163.5 -150.5t99.5 -224t34.5 -277.5t-34.5 -277.5t-99.5 -224t-163.5 -150.5t-220.5 -55zM612 121q110 0 191 76t120.5 201.5t39.5 283.5
q0 160 -39.5 285.5t-120.5 200.5t-191 75q-109 0 -189 -75t-119.5 -200.5t-39.5 -285.5q0 -158 39.5 -283.5t119.5 -201.5t189 -76zM547 1559l-66 16q13 47 47 75.5t86 28.5q57 0 93 -33.5t36 -99.5q0 -63 -38 -119h-76q47 56 47 117q0 35 -17 53.5t-45 18.5q-52 0 -67 -57z
" />
    <glyph glyph-name="uni1ECF" unicode="&#x1ecf;" horiz-adv-x="976" 
d="M487 -25q-126 0 -219 73t-137.5 189t-44.5 259q0 142 44.5 258t137 188t219.5 72q128 0 221.5 -72t138 -187.5t44.5 -258.5t-44.5 -259t-138 -189t-221.5 -73zM487 106q63 0 112 32.5t78.5 87.5t44.5 123.5t15 146.5q0 77 -15 145t-44.5 123t-78.5 87t-112 32
q-62 0 -110 -32t-77.5 -87t-44.5 -123t-15 -145q0 -105 25.5 -191t83 -142.5t138.5 -56.5zM422 1210l-66 17q13 47 47 75.5t86 28.5q57 0 93 -33.5t36 -99.5q0 -63 -38 -119h-76q47 56 47 117q0 35 -17 53.5t-45 18.5q-51 0 -67 -58z" />
    <glyph glyph-name="uni1ED0" unicode="&#x1ed0;" horiz-adv-x="1226" 
d="M848 1397h-96l-146 162l-141 -162h-94l164 221h143zM1171 1729l-274 -222h-106l231 222h149zM612 -25q-122 0 -220.5 55t-162.5 150.5t-98.5 224t-34.5 277.5t34.5 277.5t98.5 224t162.5 150.5t220.5 55t220.5 -55t163.5 -150.5t99.5 -224t34.5 -277.5t-34.5 -277.5
t-99.5 -224t-163.5 -150.5t-220.5 -55zM612 121q110 0 191 76t120.5 201.5t39.5 283.5q0 160 -39.5 285.5t-120.5 200.5t-191 75q-109 0 -189 -75t-119.5 -200.5t-39.5 -285.5q0 -158 39.5 -283.5t119.5 -201.5t189 -76z" />
    <glyph glyph-name="uni1ED1" unicode="&#x1ed1;" horiz-adv-x="976" 
d="M727 1139h-96l-146 215l-141 -215h-94l164 295h143zM1040 1579l-274 -295h-107l232 295h149zM487 -25q-126 0 -219 73t-137.5 189t-44.5 259q0 142 44.5 258t137 188t219.5 72q128 0 221.5 -72t138 -187.5t44.5 -258.5t-44.5 -259t-138 -189t-221.5 -73zM487 106
q63 0 112 32.5t78.5 87.5t44.5 123.5t15 146.5q0 77 -15 145t-44.5 123t-78.5 87t-112 32q-62 0 -110 -32t-77.5 -87t-44.5 -123t-15 -145q0 -105 25.5 -191t83 -142.5t138.5 -56.5z" />
    <glyph glyph-name="uni1ED2" unicode="&#x1ed2;" horiz-adv-x="1226" 
d="M846 1397h-96l-146 162l-141 -162h-94l163 221h144zM612 -25q-122 0 -220.5 55t-162.5 150.5t-98.5 224t-34.5 277.5t34.5 277.5t98.5 224t162.5 150.5t220.5 55t220.5 -55t163.5 -150.5t99.5 -224t34.5 -277.5t-34.5 -277.5t-99.5 -224t-163.5 -150.5t-220.5 -55z
M612 121q110 0 191 76t120.5 201.5t39.5 283.5q0 160 -39.5 285.5t-120.5 200.5t-191 75q-109 0 -189 -75t-119.5 -200.5t-39.5 -285.5q0 -158 39.5 -283.5t119.5 -201.5t189 -76zM424 1507h-107l-274 222h150z" />
    <glyph glyph-name="uni1ED3" unicode="&#x1ed3;" horiz-adv-x="976" 
d="M727 1139h-96l-146 215l-141 -215h-94l164 295h143zM487 -25q-126 0 -219 73t-137.5 189t-44.5 259q0 142 44.5 258t137 188t219.5 72q128 0 221.5 -72t138 -187.5t44.5 -258.5t-44.5 -259t-138 -189t-221.5 -73zM487 106q63 0 112 32.5t78.5 87.5t44.5 123.5t15 146.5
q0 77 -15 145t-44.5 123t-78.5 87t-112 32q-62 0 -110 -32t-77.5 -87t-44.5 -123t-15 -145q0 -105 25.5 -191t83 -142.5t138.5 -56.5zM309 1284h-106l-275 295h150z" />
    <glyph glyph-name="uni1ED4" unicode="&#x1ed4;" horiz-adv-x="1226" 
d="M846 1397h-96l-146 162l-141 -162h-94l163 221h144zM612 -25q-122 0 -220.5 55t-162.5 150.5t-98.5 224t-34.5 277.5t34.5 277.5t98.5 224t162.5 150.5t220.5 55t220.5 -55t163.5 -150.5t99.5 -224t34.5 -277.5t-34.5 -277.5t-99.5 -224t-163.5 -150.5t-220.5 -55z
M612 121q110 0 191 76t120.5 201.5t39.5 283.5q0 160 -39.5 285.5t-120.5 200.5t-191 75q-109 0 -189 -75t-119.5 -200.5t-39.5 -285.5q0 -158 39.5 -283.5t119.5 -201.5t189 -76zM786 1620l-65 12q13 35 47 56.5t86 21.5q57 0 93 -24.5t36 -73.5q0 -45 -39 -90h-76
q47 41 47 88q0 53 -61 53q-53 0 -68 -43z" />
    <glyph glyph-name="uni1ED5" unicode="&#x1ed5;" horiz-adv-x="976" 
d="M727 1139h-96l-146 215l-141 -215h-94l164 295h143zM487 -25q-126 0 -219 73t-137.5 189t-44.5 259q0 142 44.5 258t137 188t219.5 72q128 0 221.5 -72t138 -187.5t44.5 -258.5t-44.5 -259t-138 -189t-221.5 -73zM487 106q63 0 112 32.5t78.5 87.5t44.5 123.5t15 146.5
q0 77 -15 145t-44.5 123t-78.5 87t-112 32q-62 0 -110 -32t-77.5 -87t-44.5 -123t-15 -145q0 -105 25.5 -191t83 -142.5t138.5 -56.5zM582 1497l-66 16q13 47 47 76t86 29q57 0 93 -33.5t36 -99.5q0 -61 -39 -119h-75q47 56 47 117q0 35 -17 53t-45 18q-52 0 -67 -57z" />
    <glyph glyph-name="uni1ED6" unicode="&#x1ed6;" horiz-adv-x="1226" 
d="M852 1389h-96l-146 106l-141 -106h-94l164 147h143zM612 -25q-122 0 -220.5 55t-162.5 150.5t-98.5 224t-34.5 277.5t34.5 277.5t98.5 224t162.5 150.5t220.5 55t220.5 -55t163.5 -150.5t99.5 -224t34.5 -277.5t-34.5 -277.5t-99.5 -224t-163.5 -150.5t-220.5 -55z
M612 121q110 0 191 76t120.5 201.5t39.5 283.5q0 160 -39.5 285.5t-120.5 200.5t-191 75q-109 0 -189 -75t-119.5 -200.5t-39.5 -285.5q0 -158 39.5 -283.5t119.5 -201.5t189 -76zM713 1550q-36 0 -64 10t-44.5 24t-31 28.5t-32 24.5t-39.5 10q-36 0 -59 -23.5t-23 -67.5
h-86q0 61 45 99.5t129 38.5q36 0 64 -10t44.5 -24t31 -28.5t32 -24.5t39.5 -10q36 0 59 23t23 68h86q0 -61 -44.5 -99.5t-129.5 -38.5z" />
    <glyph glyph-name="uni1ED7" unicode="&#x1ed7;" horiz-adv-x="976" 
d="M727 1071h-96l-146 215l-141 -215h-94l164 295h143zM487 -25q-126 0 -219 73t-137.5 189t-44.5 259q0 142 44.5 258t137 188t219.5 72q128 0 221.5 -72t138 -187.5t44.5 -258.5t-44.5 -259t-138 -189t-221.5 -73zM487 106q63 0 112 32.5t78.5 87.5t44.5 123.5t15 146.5
q0 77 -15 145t-44.5 123t-78.5 87t-112 32q-62 0 -110 -32t-77.5 -87t-44.5 -123t-15 -145q0 -105 25.5 -191t83 -142.5t138.5 -56.5zM588 1397q-36 0 -64 20t-44.5 48t-31 56t-32 48t-39.5 20q-36 0 -59 -45.5t-23 -134.5h-86q0 122 44.5 198t129.5 76q36 0 64 -19.5
t44.5 -47.5t31 -56t32 -47.5t39.5 -19.5q36 0 59 44.5t23 133.5h86q0 -122 -44.5 -198t-129.5 -76z" />
    <glyph glyph-name="uni1ED8" unicode="&#x1ed8;" horiz-adv-x="1226" 
d="M856 1481h-96l-146 215l-141 -215h-94l164 295h143zM612 -25q-122 0 -220.5 55t-162.5 150.5t-98.5 224t-34.5 277.5t34.5 277.5t98.5 224t162.5 150.5t220.5 55t220.5 -55t163.5 -150.5t99.5 -224t34.5 -277.5t-34.5 -277.5t-99.5 -224t-163.5 -150.5t-220.5 -55z
M612 121q110 0 191 76t120.5 201.5t39.5 283.5q0 160 -39.5 285.5t-120.5 200.5t-191 75q-109 0 -189 -75t-119.5 -200.5t-39.5 -285.5q0 -158 39.5 -283.5t119.5 -201.5t189 -76zM618 -375q-37 0 -65.5 27.5t-28.5 66.5q0 38 28.5 65.5t65.5 27.5q38 0 65.5 -27.5
t27.5 -65.5q0 -39 -27.5 -66.5t-65.5 -27.5z" />
    <glyph glyph-name="uni1ED9" unicode="&#x1ed9;" horiz-adv-x="976" 
d="M727 1139h-96l-146 215l-141 -215h-94l164 295h143zM487 -25q-126 0 -219 73t-137.5 189t-44.5 259q0 142 44.5 258t137 188t219.5 72q128 0 221.5 -72t138 -187.5t44.5 -258.5t-44.5 -259t-138 -189t-221.5 -73zM487 106q63 0 112 32.5t78.5 87.5t44.5 123.5t15 146.5
q0 77 -15 145t-44.5 123t-78.5 87t-112 32q-62 0 -110 -32t-77.5 -87t-44.5 -123t-15 -145q0 -105 25.5 -191t83 -142.5t138.5 -56.5zM489 -375q-37 0 -65.5 27.5t-28.5 66.5q0 38 28.5 65.5t65.5 27.5q38 0 65.5 -27.5t27.5 -65.5q0 -39 -27 -66.5t-66 -27.5z" />
    <glyph glyph-name="uni1EDA" unicode="&#x1eda;" horiz-adv-x="1226" 
d="M899 1776l-274 -295h-107l232 295h149zM612 -25q-122 0 -220.5 55t-162.5 150.5t-98.5 224t-34.5 277.5t34.5 277.5t98.5 224t162.5 150.5t220.5 55q125 0 224.5 -57.5t167.5 -162.5q36 31 59.5 72.5t26.5 79.5q-4 -4 -21 -4q-35 0 -57.5 24t-22.5 60t25 61t61 25
q42 0 71.5 -34t29.5 -93q0 -75 -38 -144t-96 -112q88 -181 88 -422q0 -149 -34.5 -277.5t-99.5 -224t-163.5 -150.5t-220.5 -55zM612 121q110 0 191 76t120.5 201.5t39.5 283.5q0 160 -39.5 285.5t-120.5 200.5t-191 75q-109 0 -189 -75t-119.5 -200.5t-39.5 -285.5
q0 -158 39.5 -283.5t119.5 -201.5t189 -76z" />
    <glyph glyph-name="uni1EDB" unicode="&#x1edb;" horiz-adv-x="976" 
d="M774 1434l-274 -295h-107l232 295h149zM915 1085q0 -69 -32 -133.5t-84 -109.5q92 -139 92 -346q0 -143 -44.5 -259t-138 -189t-221.5 -73q-126 0 -219 73t-137.5 189t-44.5 259q0 142 44.5 258t137 188t219.5 72q158 0 265 -113q32 30 53 70t26 76q-5 -5 -22 -5
q-34 0 -56 24t-22 60t25 61t61 25q42 0 70 -34t28 -93zM487 106q63 0 112 32.5t78.5 87.5t44.5 123.5t15 146.5q0 77 -15 145t-44.5 123t-78.5 87t-112 32q-62 0 -110 -32t-77.5 -87t-44.5 -123t-15 -145q0 -105 25.5 -191t83 -142.5t138.5 -56.5z" />
    <glyph glyph-name="uni1EDC" unicode="&#x1edc;" horiz-adv-x="1226" 
d="M612 -25q-122 0 -220.5 55t-162.5 150.5t-98.5 224t-34.5 277.5t34.5 277.5t98.5 224t162.5 150.5t220.5 55q125 0 224.5 -57.5t167.5 -162.5q36 31 59.5 72.5t26.5 79.5q-4 -4 -21 -4q-35 0 -57.5 24t-22.5 60t25 61t61 25q42 0 71.5 -34t29.5 -93q0 -75 -38 -144
t-96 -112q88 -181 88 -422q0 -149 -34.5 -277.5t-99.5 -224t-163.5 -150.5t-220.5 -55zM612 121q110 0 191 76t120.5 201.5t39.5 283.5q0 160 -39.5 285.5t-120.5 200.5t-191 75q-109 0 -189 -75t-119.5 -200.5t-39.5 -285.5q0 -158 39.5 -283.5t119.5 -201.5t189 -76z
M709 1481h-107l-274 295h149z" />
    <glyph glyph-name="uni1EDD" unicode="&#x1edd;" horiz-adv-x="976" 
d="M915 1085q0 -69 -32 -133.5t-84 -109.5q92 -139 92 -346q0 -143 -44.5 -259t-138 -189t-221.5 -73q-126 0 -219 73t-137.5 189t-44.5 259q0 142 44.5 258t137 188t219.5 72q158 0 265 -113q32 30 53 70t26 76q-5 -5 -22 -5q-34 0 -56 24t-22 60t25 61t61 25q42 0 70 -34
t28 -93zM487 106q63 0 112 32.5t78.5 87.5t44.5 123.5t15 146.5q0 77 -15 145t-44.5 123t-78.5 87t-112 32q-62 0 -110 -32t-77.5 -87t-44.5 -123t-15 -145q0 -105 25.5 -191t83 -142.5t138.5 -56.5zM586 1139h-107l-274 295h149z" />
    <glyph glyph-name="uni1EDE" unicode="&#x1ede;" horiz-adv-x="1226" 
d="M612 -25q-122 0 -220.5 55t-162.5 150.5t-98.5 224t-34.5 277.5t34.5 277.5t98.5 224t162.5 150.5t220.5 55q125 0 224.5 -57.5t167.5 -162.5q36 31 59.5 72.5t26.5 79.5q-4 -4 -21 -4q-35 0 -57.5 24t-22.5 60t25 61t61 25q42 0 71.5 -34t29.5 -93q0 -75 -38 -144
t-96 -112q88 -181 88 -422q0 -149 -34.5 -277.5t-99.5 -224t-163.5 -150.5t-220.5 -55zM612 121q110 0 191 76t120.5 201.5t39.5 283.5q0 160 -39.5 285.5t-120.5 200.5t-191 75q-109 0 -189 -75t-119.5 -200.5t-39.5 -285.5q0 -158 39.5 -283.5t119.5 -201.5t189 -76z
M547 1559l-66 16q13 47 47 75.5t86 28.5q57 0 93 -33.5t36 -99.5q0 -63 -38 -119h-76q47 56 47 117q0 35 -17 53.5t-45 18.5q-52 0 -67 -57z" />
    <glyph glyph-name="uni1EDF" unicode="&#x1edf;" horiz-adv-x="976" 
d="M915 1085q0 -69 -32 -133.5t-84 -109.5q92 -139 92 -346q0 -143 -44.5 -259t-138 -189t-221.5 -73q-126 0 -219 73t-137.5 189t-44.5 259q0 142 44.5 258t137 188t219.5 72q158 0 265 -113q32 30 53 70t26 76q-5 -5 -22 -5q-34 0 -56 24t-22 60t25 61t61 25q42 0 70 -34
t28 -93zM487 106q63 0 112 32.5t78.5 87.5t44.5 123.5t15 146.5q0 77 -15 145t-44.5 123t-78.5 87t-112 32q-62 0 -110 -32t-77.5 -87t-44.5 -123t-15 -145q0 -105 25.5 -191t83 -142.5t138.5 -56.5zM422 1210l-66 17q13 47 47 75.5t86 28.5q57 0 93 -33.5t36 -99.5
q0 -63 -38 -119h-76q47 56 47 117q0 35 -17 53.5t-45 18.5q-51 0 -67 -58z" />
    <glyph glyph-name="uni1EE0" unicode="&#x1ee0;" horiz-adv-x="1226" 
d="M612 -25q-122 0 -220.5 55t-162.5 150.5t-98.5 224t-34.5 277.5t34.5 277.5t98.5 224t162.5 150.5t220.5 55q125 0 224.5 -57.5t167.5 -162.5q36 31 59.5 72.5t26.5 79.5q-4 -4 -21 -4q-35 0 -57.5 24t-22.5 60t25 61t61 25q42 0 71.5 -34t29.5 -93q0 -75 -38 -144
t-96 -112q88 -181 88 -422q0 -149 -34.5 -277.5t-99.5 -224t-163.5 -150.5t-220.5 -55zM612 121q110 0 191 76t120.5 201.5t39.5 283.5q0 160 -39.5 285.5t-120.5 200.5t-191 75q-109 0 -189 -75t-119.5 -200.5t-39.5 -285.5q0 -158 39.5 -283.5t119.5 -201.5t189 -76z
M717 1477q-36 0 -64 20t-44.5 48t-31 56t-32 48t-39.5 20q-36 0 -59 -45.5t-23 -134.5h-86q0 122 44.5 198t129.5 76q36 0 64 -19.5t44.5 -47.5t31 -56t32 -47.5t39.5 -19.5q36 0 59 44.5t23 133.5h86q0 -122 -44.5 -198t-129.5 -76z" />
    <glyph glyph-name="uni1EE1" unicode="&#x1ee1;" horiz-adv-x="976" 
d="M915 1085q0 -69 -32 -133.5t-84 -109.5q92 -139 92 -346q0 -143 -44.5 -259t-138 -189t-221.5 -73q-126 0 -219 73t-137.5 189t-44.5 259q0 142 44.5 258t137 188t219.5 72q158 0 265 -113q32 30 53 70t26 76q-5 -5 -22 -5q-34 0 -56 24t-22 60t25 61t61 25q42 0 70 -34
t28 -93zM487 106q63 0 112 32.5t78.5 87.5t44.5 123.5t15 146.5q0 77 -15 145t-44.5 123t-78.5 87t-112 32q-62 0 -110 -32t-77.5 -87t-44.5 -123t-15 -145q0 -105 25.5 -191t83 -142.5t138.5 -56.5zM582 1135q-36 0 -64 20t-44.5 48t-31 56t-32 48t-39.5 20
q-36 0 -59 -45.5t-23 -134.5h-86q0 122 44.5 198t129.5 76q36 0 64 -19.5t44.5 -47.5t31 -56t32 -47.5t39.5 -19.5q36 0 59 44.5t23 133.5h86q0 -122 -44.5 -198t-129.5 -76z" />
    <glyph glyph-name="uni1EE2" unicode="&#x1ee2;" horiz-adv-x="1226" 
d="M612 -25q-122 0 -220.5 55t-162.5 150.5t-98.5 224t-34.5 277.5t34.5 277.5t98.5 224t162.5 150.5t220.5 55q125 0 224.5 -57.5t167.5 -162.5q36 31 59.5 72.5t26.5 79.5q-4 -4 -21 -4q-35 0 -57.5 24t-22.5 60t25 61t61 25q42 0 71.5 -34t29.5 -93q0 -75 -38 -144
t-96 -112q88 -181 88 -422q0 -149 -34.5 -277.5t-99.5 -224t-163.5 -150.5t-220.5 -55zM612 121q110 0 191 76t120.5 201.5t39.5 283.5q0 160 -39.5 285.5t-120.5 200.5t-191 75q-109 0 -189 -75t-119.5 -200.5t-39.5 -285.5q0 -158 39.5 -283.5t119.5 -201.5t189 -76z
M618 -375q-37 0 -65.5 27.5t-28.5 66.5q0 38 28.5 65.5t65.5 27.5q38 0 65.5 -27.5t27.5 -65.5q0 -39 -27.5 -66.5t-65.5 -27.5z" />
    <glyph glyph-name="uni1EE3" unicode="&#x1ee3;" horiz-adv-x="976" 
d="M915 1085q0 -69 -32 -133.5t-84 -109.5q92 -139 92 -346q0 -143 -44.5 -259t-138 -189t-221.5 -73q-126 0 -219 73t-137.5 189t-44.5 259q0 142 44.5 258t137 188t219.5 72q158 0 265 -113q32 30 53 70t26 76q-5 -5 -22 -5q-34 0 -56 24t-22 60t25 61t61 25q42 0 70 -34
t28 -93zM487 106q63 0 112 32.5t78.5 87.5t44.5 123.5t15 146.5q0 77 -15 145t-44.5 123t-78.5 87t-112 32q-62 0 -110 -32t-77.5 -87t-44.5 -123t-15 -145q0 -105 25.5 -191t83 -142.5t138.5 -56.5zM489 -375q-37 0 -65.5 27.5t-28.5 66.5q0 38 28.5 65.5t65.5 27.5
q38 0 65.5 -27.5t27.5 -65.5q0 -39 -27 -66.5t-66 -27.5z" />
    <glyph glyph-name="uni1EE4" unicode="&#x1ee4;" horiz-adv-x="1165" 
d="M582 -25q-207 0 -323 121.5t-116 345.5v924h164v-926q0 -157 71.5 -238t203.5 -81q133 0 204.5 81t71.5 238v926h162v-924q0 -225 -115 -346t-323 -121zM588 -375q-37 0 -65.5 27.5t-28.5 66.5q0 38 28.5 65.5t65.5 27.5q38 0 65 -27.5t27 -65.5q0 -40 -27 -67t-65 -27z
" />
    <glyph glyph-name="uni1EE5" unicode="&#x1ee5;" 
d="M817 0h-147v137q-48 -70 -124 -116t-163 -46q-126 0 -187 65t-61 200v749h146v-706q0 -94 40.5 -135.5t116.5 -41.5q71 0 134.5 44.5t97.5 109.5v729h147v-989zM479 -375q-37 0 -65.5 27.5t-28.5 66.5q0 38 28.5 65.5t65.5 27.5q38 0 65 -27.5t27 -65.5q0 -40 -27 -67
t-65 -27z" />
    <glyph glyph-name="uni1EE6" unicode="&#x1ee6;" horiz-adv-x="1165" 
d="M582 -25q-207 0 -323 121.5t-116 345.5v924h164v-926q0 -157 71.5 -238t203.5 -81q133 0 204.5 81t71.5 238v926h162v-924q0 -225 -115 -346t-323 -121zM516 1559l-65 16q13 47 47 75.5t86 28.5q57 0 93 -33.5t36 -99.5q0 -61 -39 -119h-76q47 56 47 117q0 35 -17 53.5
t-44 18.5q-53 0 -68 -57z" />
    <glyph glyph-name="uni1EE7" unicode="&#x1ee7;" 
d="M817 0h-147v137q-48 -70 -124 -116t-163 -46q-126 0 -187 65t-61 200v749h146v-706q0 -94 40.5 -135.5t116.5 -41.5q71 0 134.5 44.5t97.5 109.5v729h147v-989zM410 1210l-66 17q13 47 47 75.5t86 28.5q57 0 93 -33.5t36 -99.5q0 -61 -39 -119h-75q47 56 47 117
q0 35 -17 53.5t-45 18.5q-51 0 -67 -58z" />
    <glyph glyph-name="uni1EE8" unicode="&#x1ee8;" horiz-adv-x="1165" 
d="M868 1776l-274 -295h-107l232 295h149zM1233 1493q0 -93 -56 -175.5t-157 -131.5v-744q0 -225 -115 -346t-323 -121q-207 0 -323 121.5t-116 345.5v924h164v-926q0 -157 71.5 -238t203.5 -81q133 0 204.5 81t71.5 238v926h162v-98q51 31 87.5 83.5t41.5 100.5
q-1 0 -10 -1t-13 -1q-34 0 -55.5 23.5t-21.5 58.5q0 36 24 61t60 25q43 0 71.5 -33.5t28.5 -91.5z" />
    <glyph glyph-name="uni1EE9" unicode="&#x1ee9;" 
d="M760 1434l-275 -295h-106l231 295h150zM817 0h-147v137q-48 -70 -124 -116t-163 -46q-126 0 -187 65t-61 200v749h146v-706q0 -94 40.5 -135.5t116.5 -41.5q71 0 134.5 44.5t97.5 109.5v729h147v-84q36 33 59.5 74t26.5 78q-14 -2 -20 -2q-34 0 -57 23.5t-23 58.5
q0 36 25 62t61 26q43 0 71.5 -34.5t28.5 -92.5q0 -83 -45 -158t-127 -127v-813z" />
    <glyph glyph-name="uni1EEA" unicode="&#x1eea;" horiz-adv-x="1165" 
d="M678 1481h-107l-274 295h149zM1233 1493q0 -93 -56 -175.5t-157 -131.5v-744q0 -225 -115 -346t-323 -121q-207 0 -323 121.5t-116 345.5v924h164v-926q0 -157 71.5 -238t203.5 -81q133 0 204.5 81t71.5 238v926h162v-98q51 31 87.5 83.5t41.5 100.5q-1 0 -10 -1t-13 -1
q-34 0 -55.5 23.5t-21.5 58.5q0 36 24 61t60 25q43 0 71.5 -33.5t28.5 -91.5z" />
    <glyph glyph-name="uni1EEB" unicode="&#x1eeb;" 
d="M571 1139h-106l-275 295h150zM817 0h-147v137q-48 -70 -124 -116t-163 -46q-126 0 -187 65t-61 200v749h146v-706q0 -94 40.5 -135.5t116.5 -41.5q71 0 134.5 44.5t97.5 109.5v729h147v-84q36 33 59.5 74t26.5 78q-14 -2 -20 -2q-34 0 -57 23.5t-23 58.5q0 36 25 62
t61 26q43 0 71.5 -34.5t28.5 -92.5q0 -83 -45 -158t-127 -127v-813z" />
    <glyph glyph-name="uni1EEC" unicode="&#x1eec;" horiz-adv-x="1165" 
d="M516 1559l-65 16q13 47 47 75.5t86 28.5q57 0 93 -33.5t36 -99.5q0 -61 -39 -119h-76q47 56 47 117q0 35 -17 53.5t-44 18.5q-53 0 -68 -57zM1233 1493q0 -93 -56 -175.5t-157 -131.5v-744q0 -225 -115 -346t-323 -121q-207 0 -323 121.5t-116 345.5v924h164v-926
q0 -157 71.5 -238t203.5 -81q133 0 204.5 81t71.5 238v926h162v-98q51 31 87.5 83.5t41.5 100.5q-1 0 -10 -1t-13 -1q-34 0 -55.5 23.5t-21.5 58.5q0 36 24 61t60 25q43 0 71.5 -33.5t28.5 -91.5z" />
    <glyph glyph-name="uni1EED" unicode="&#x1eed;" 
d="M410 1210l-66 17q13 47 47 75.5t86 28.5q57 0 93 -33.5t36 -99.5q0 -61 -39 -119h-75q47 56 47 117q0 35 -17 53.5t-45 18.5q-51 0 -67 -58zM817 0h-147v137q-48 -70 -124 -116t-163 -46q-126 0 -187 65t-61 200v749h146v-706q0 -94 40.5 -135.5t116.5 -41.5
q71 0 134.5 44.5t97.5 109.5v729h147v-84q36 33 59.5 74t26.5 78q-14 -2 -20 -2q-34 0 -57 23.5t-23 58.5q0 36 25 62t61 26q43 0 71.5 -34.5t28.5 -92.5q0 -83 -45 -158t-127 -127v-813z" />
    </font>
</defs>
</svg>
